<svg enable-background="new 0 0 200 200" viewBox="0 0 200 200" xmlns="http://www.w3.org/2000/svg"><circle cx="3.9" cy="164.5" fill="#2b4356" r="2.3"/><path d="m14.4 162.1h-3.5c-1.3 0-2.3 1-2.3 2.3s1 2.3 2.3 2.3h3.5c1.3 0 2.3-1 2.3-2.3.1-1.2-1-2.3-2.3-2.3z" fill="#2b4356"/><path d="m140 171.5h-9.7c-1.2 0-2.2 1-2.2 2.3s1 2.3 2.2 2.3h9.7c1.2 0 2.2-1 2.2-2.3s-1-2.3-2.2-2.3z" fill="#21a6a1"/><path d="m69.7 171.5h-9.7c-1.2 0-2.2 1-2.2 2.3s1 2.3 2.2 2.3h9.7c1.2 0 2.2-1 2.2-2.3s-1-2.3-2.2-2.3z" fill="#21a6a1"/><path d="m123.4 171.5h-46.8c-1.3 0-2.3 1-2.3 2.3s1.1 2.3 2.3 2.3h18.7v2.3h-9.3c-1.3 0-2.3 1-2.3 2.3s1.1 2.3 2.3 2.3h29.3c1.3 0 2.3-1.1 2.3-2.3 0-1.3-1.1-2.3-2.3-2.3h-10.5v-2.3h18.7c1.3 0 2.3-1.1 2.3-2.3 0-1.3-1.1-2.3-2.4-2.3z" fill="#21a6a1"/><path d="m60.8 125.7-3.8-14.9-19.6-31.2 9.5-8.3-1.3-5.1-12.8 11.2c-.9.8-1.1 2-.4 3z" fill="#2b4356"/><path d="m104.9 18.2c-.4-.5-1-.9-1.6-1-.7-.1-1.3.1-1.8.6l-8.5 7.3 13.7-4.4z" fill="#2b4356"/><path d="m64.8 122.6v-19l-14-55.1 14-4.5v-5l-17.6 5.7c-1.2.4-1.9 1.6-1.6 2.8z" fill="#2b4356"/><path d="m136.7 18.6c-.2-.6-.6-1.2-1.1-1.5-.6-.3-1.2-.4-1.9-.2l-15.4 4.9h19.2z" fill="#2b4356"/><path d="m189.1 162.1h-3.5c-1.3 0-2.3 1-2.3 2.3s1 2.3 2.3 2.3h3.5c1.3 0 2.3-1 2.3-2.3 0-1.2-1-2.3-2.3-2.3z" fill="#2b4356"/><circle cx="196.1" cy="164.5" fill="#2b4356" r="2.3"/><path d="m178.2 162.1h-10.2v-133.2c0-1.3-1.1-2.3-2.3-2.3h-93.8c-1.3 0-2.3 1-2.3 2.3v133.3h-47.8c-1.5 0-2.7 1.1-2.7 2.3 0 1.3 1.2 2.3 2.7 2.3h156.4c1.5 0 2.7-1.1 2.7-2.3 0-1.3-1.2-2.4-2.7-2.4zm-14.9 0h-89.1v-36.2h89.1zm-53.2-81.2c2.6 1.8 5.5 2.9 8.7 2.9 3.1 0 6.1-1.1 8.7-2.9.8 1.5 2 3.1 3.8 4.2l4.5 1.6c3.1.7 14 3.7 14.7 12.6v21.9h-63.4v-21.9c.6-8.8 11.5-11.9 14.7-12.6l4.5-1.6c1.8-1.1 3-2.6 3.8-4.2zm-7.8-23.7c0-8.5 7.4-15.4 16.4-15.4s16.4 6.9 16.4 15.4-7.5 22-16.4 22-16.4-13.6-16.4-22zm61 64h-8.2v-22.1c-.9-14.1-18.7-17-19.4-17.1-2.6-.5-3.9-2.5-4.6-4.2 5.4-5.7 8.7-14.2 8.7-20.6 0-11.1-9.5-20.1-21.1-20.1s-21.1 9-21.1 20.1c0 6.4 3.4 14.9 8.7 20.6-.6 1.7-1.9 3.8-4.5 4.2-.8.1-18.5 3-19.4 17.1v22.1h-8.2v-90h89.1z" fill="#2b4356"/><path d="m135.7 86.7c-.8 1.5-1.8 3-3 4.3-3.5 3.7-8.2 5.7-13.1 5.7h-1.6c-6.8 0-12.9-3.8-16.2-9.9l4.5-1.6c2.5 4.2 6.9 6.8 11.7 6.8h1.6c3.7 0 7.1-1.5 9.7-4.2.8-.8 1.4-1.7 2-2.6z" fill="#21a6a1"/><path d="m74.4 34.3h88.7v96.2h-88.7z" fill="#fff"/><text fill="#2b4356" font-family="'Raleway-Bold'" font-size="22.5035" transform="translate(82.4701 64.8037)">OFFER</text><g fill="#21a6a1"><path d="m106.2 126.9h4.7v-4.7-4.7-4.7h-4.7-4.7-4.7v4.7 4.7 4.7h4.7zm-4.6-9.3h4.7v4.7h-4.7z"/><path d="m129.6 131.6h-9.4v-18.7h-4.6v18.7h-18.7v4.6h32.7z"/><path d="m134.2 131.6h4.7v4.7h-4.7z"/><path d="m115.6 145.6v4 .6 4.1h4.6v-4.1-.6-4-4.7h-4.6z"/><path d="m101.6 140.9h-4.7v4.7 4.7 4.7h4.7 4.7 4.7v-4.7-4.7-4.7h-4.7zm4.6 9.3h-4.7v-4.7h4.7z"/><path d="m129.6 140.9h-4.7v4.7 4.7 4.7h4.7 4.7 4.7v-4.7-4.7-4.7h-4.7zm4.6 9.3h-4.7v-4.7h4.7z"/><path d="m134.2 112.9h-4.7-4.7v4.7 4.7 4.7h4.7 4.7 4.7v-4.7-4.7-4.7zm0 9.3h-4.7v-4.7h4.7z"/><path d="m85.9 83.7h65.6c1.3 0 2.3-1 2.3-2.3s-1-2.3-2.3-2.3h-65.6c-1.3 0-2.3 1-2.3 2.3s1 2.3 2.3 2.3z"/></g><path d="m151.6 88.4h-65.7c-1.3 0-2.3 1-2.3 2.3s1 2.3 2.3 2.3h65.6c1.3 0 2.3-1 2.3-2.3.1-1.3-.9-2.3-2.2-2.3z" fill="#2b4356"/><path d="m151.6 97.7h-65.7c-1.3 0-2.3 1-2.3 2.3s1 2.3 2.3 2.3h65.6c1.3 0 2.3-1 2.3-2.3.1-1.2-.9-2.3-2.2-2.3z" fill="#21a6a1"/></svg>