<svg enable-background="new 0 0 50 54.4" viewBox="0 0 50 54.4" xmlns="http://www.w3.org/2000/svg" xmlns:xlink="http://www.w3.org/1999/xlink"><linearGradient id="a" gradientUnits="userSpaceOnUse" x1="0" x2="50" y1="27.223" y2="27.223"><stop offset="0" stop-color="#ffe610"/><stop offset="1" stop-color="#ff8000"/></linearGradient><path d="m3.9 30.9h3.8c1.6 0 3-1.1 3.3-2.7l1.7-8.9c0-.1.1-.2.1-.2 0-.1.1-.1.2-.2.1 0 .2-.1.3-.1.2 0 .3.1.4.1 0 0 .1.1.1.1 0 .1.1.1.1.3l3.1 29.5c0 .5.2.9.4 1.3.3.6.8 1.1 1.3 1.3.5.3 1.1.4 1.7.4.8 0 1.6-.2 2.2-.8.3-.3.6-.6.8-1s.3-.9.3-1.3l1.2-42.9c0-.1 0-.2.1-.3 0-.1.1-.1.2-.2.1 0 .2-.1.3-.1.2 0 .3.1.4.1 0 0 .1.1.1.1v.4l2 32.2c0 .5.1.9.3 1.3.3.6.8 1.1 1.3 1.4s1.1.4 1.7.4c.7 0 1.5-.2 2.1-.8.3-.3.6-.6.8-1s.3-.8.4-1.3l2.2-23c0-.1 0-.1 0-.1s0-.1.1-.1h.2c.1 0 .2 0 .2.1v.1s0 .1.1.1l1.3-.3-1.4.1 1.3 13.6v.1c.3 1.4 1.5 2.4 3 2.4h4.3v-2.7h-4.3c-.1 0-.3-.1-.3-.2l-1.3.3 1.4-.1-1.3-13.6v-.1c-.1-.4-.2-.7-.4-1-.3-.5-.7-.8-1.1-1s-.9-.3-1.4-.3c-.7 0-1.4.2-2 .7-.3.2-.5.5-.7.9s-.3.8-.3 1.2l-2.2 23.2c0 .1 0 .2-.1.3 0 .1-.1.1-.2.2-.1 0-.2.1-.3.1-.2 0-.3-.1-.4-.1 0 0-.1-.1-.1-.1 0-.1-.1-.1-.1-.3l-2-32.2c0-.5-.1-.9-.3-1.3-.3-.6-.8-1.1-1.3-1.4s-1.1-.4-1.7-.4c-.8 0-1.6.2-2.2.8-.3.3-.6.6-.8 1s-.3.9-.3 1.3l-1.2 42.9c0 .1 0 .2-.1.3 0 .1-.1.1-.2.2-.1 0-.2.1-.3.1-.2 0-.3-.1-.4-.1 0 0-.1-.1-.1-.1 0-.1-.1-.1-.1-.3l-3.2-29.4c0-.5-.2-.9-.4-1.3-.3-.6-.8-1.1-1.3-1.3-.5-.3-1.1-.4-1.7-.4-.7 0-1.4.2-2 .7-.3.2-.6.5-.8.9-.2.3-.4.7-.4 1.2l-1.7 8.9c-.1-.5-.3-.3-.6-.3h-3.8z" fill="#fff" stroke="#fff" stroke-miterlimit="10" stroke-width="5.0912"/><path d="m3.9 30.9h3.8c1.6 0 3-1.1 3.3-2.7l1.7-8.9c0-.1.1-.2.1-.2 0-.1.1-.1.2-.2.1 0 .2-.1.3-.1.2 0 .3.1.4.1 0 0 .1.1.1.1 0 .1.1.1.1.3l3.1 29.5c0 .5.2.9.4 1.3.3.6.8 1.1 1.3 1.3.5.3 1.1.4 1.7.4.8 0 1.6-.2 2.2-.8.3-.3.6-.6.8-1s.3-.9.3-1.3l1.2-42.9c0-.1 0-.2.1-.3 0-.1.1-.1.2-.2.1 0 .2-.1.3-.1.2 0 .3.1.4.1 0 0 .1.1.1.1v.4l2 32.2c0 .5.1.9.3 1.3.3.6.8 1.1 1.3 1.4s1.1.4 1.7.4c.7 0 1.5-.2 2.1-.8.3-.3.6-.6.8-1s.3-.8.4-1.3l2.2-23c0-.1 0-.1 0-.1s0-.1.1-.1h.2c.1 0 .2 0 .2.1v.1s0 .1.1.1v-.2l1.3 13.6v.1c.3 1.4 1.5 2.4 3 2.4h8.3v-2.7h-8.3c-.1 0-.3-.1-.3-.2v.2l-1.3-13.6v-.1c-.1-.4-.2-.7-.4-1-.3-.5-.7-.8-1.1-1s-.9-.3-1.4-.3c-.7 0-1.4.2-2 .7-.3.2-.5.5-.7.9s-.3.8-.3 1.2l-2.2 23.2c0 .1 0 .2-.1.3 0 .1-.1.1-.2.2-.1 0-.2.1-.3.1-.2 0-.3-.1-.4-.1 0 0-.1-.1-.1-.1 0-.1-.1-.1-.1-.3l-2-32.2c0-.5-.1-.9-.3-1.3-.3-.6-.8-1.1-1.3-1.4s-1.1-.4-1.7-.4c-.8 0-1.6.2-2.2.8-.3.3-.6.6-.8 1s-.3.9-.3 1.3l-1.2 42.9c0 .1 0 .2-.1.3 0 .1-.1.1-.2.2-.1 0-.2.1-.3.1-.2 0-.3-.1-.4-.1 0 0-.1-.1-.1-.1 0-.1-.1-.1-.1-.3l-3.2-29.4c0-.5-.2-.9-.4-1.3-.3-.6-.8-1.1-1.3-1.3-.5-.3-1.1-.4-1.7-.4-.7 0-1.4.2-2 .7-.3.2-.6.5-.8.9-.2.3-.4.7-.4 1.2l-1.7 8.9c-.1-.5-.3-.3-.6-.3h-7.7v2.7z" fill="url(#a)"/></svg>