<svg enable-background="new 0 0 792 612" viewBox="0 0 792 612" xmlns="http://www.w3.org/2000/svg" xmlns:xlink="http://www.w3.org/1999/xlink"><linearGradient id="a" gradientUnits="userSpaceOnUse" x1="331.4833" x2="459.1548" y1="305.8314" y2="305.8314"><stop offset="0" stop-color="#ffe610"/><stop offset="1" stop-color="#ff8000"/></linearGradient><path d="m341.5 315.3h9.7c4.1 0 7.6-2.9 8.4-6.9l4.3-22.7c.1-.3.1-.5.2-.6.1-.2.3-.3.5-.4s.5-.2.8-.2c.4 0 .8.2 1.1.4.1.1.2.2.3.4s.1.4.2.7l5.6 75.2c.1 1.2.4 2.3.9 3.3.8 1.5 2 2.7 3.3 3.4s2.8 1.1 4.3 1.1c2 0 4-.6 5.6-2 .8-.7 1.5-1.6 2-2.6s.8-2.2.9-3.4l5.6-109.5c0-.4.1-.6.2-.7.1-.2.2-.3.5-.5.2-.1.5-.2.9-.2s.9.2 1.1.3c.1.1.2.2.3.3.1.2.1.4.2.7l5 82.3c.1 1.2.4 2.4.9 3.4.8 1.5 2 2.7 3.3 3.5s2.8 1.1 4.3 1.1c1.9 0 3.9-.6 5.5-1.9.8-.7 1.5-1.5 2-2.5s.8-2.1 1-3.3l5.6-59.1c0-.2.1-.3.1-.4l.2-.2c.1-.1.3-.1.5-.1s.4.1.5.1l.1.1c0 .1.1.2.1.3l3.4-.8-3.5.3 3.4 34.8v.2c.8 3.6 3.9 6.1 7.6 6.1h11.1v-7h-11.1c-.4 0-.7-.3-.8-.6l-3.4.8 3.5-.3-3.4-34.8v-.2c-.2-.9-.6-1.8-1.1-2.6-.8-1.2-1.8-2.1-2.9-2.6-1.1-.6-2.4-.8-3.6-.8-1.8 0-3.6.6-5 1.8-.7.6-1.4 1.4-1.9 2.3s-.8 1.9-.9 3l-5.6 59.1c0 .3-.1.5-.2.7s-.2.3-.5.5c-.2.1-.5.2-.8.2-.4 0-.9-.2-1.1-.3-.1-.1-.2-.2-.3-.3-.1-.2-.1-.4-.2-.7l-5-82.3c-.1-1.2-.4-2.4-.9-3.4-.8-1.5-2-2.7-3.3-3.5-1.4-.8-2.8-1.1-4.3-1.1-2 0-4 .6-5.6 2-.8.7-1.5 1.6-2 2.6s-.8 2.2-.9 3.4l-5.6 109.5c0 .4-.1.6-.2.7-.1.2-.2.4-.5.5-.2.1-.5.2-.9.2s-.8-.2-1-.3c-.1-.1-.2-.2-.3-.3s-.1-.4-.2-.7l-5.6-75.2c-.1-1.2-.4-2.3-.9-3.3-.8-1.5-2-2.7-3.3-3.4s-2.8-1.1-4.3-1.1c-1.8 0-3.6.5-5.2 1.7-.8.6-1.5 1.3-2 2.2s-.9 1.9-1.1 3l-4.3 22.7c-.1.7-.8 1.2-1.5 1.2h-9.7v6.7z" fill="#fff" stroke="#fff" stroke-miterlimit="10" stroke-width="13"/><path d="m341.5 315.3h9.7c4.1 0 7.6-2.9 8.4-6.9l4.3-22.7c.1-.3.1-.5.2-.6.1-.2.3-.3.5-.4s.5-.2.8-.2c.4 0 .8.2 1.1.4.1.1.2.2.3.4s.1.4.2.7l5.6 75.2c.1 1.2.4 2.3.9 3.3.8 1.5 2 2.7 3.3 3.4s2.8 1.1 4.3 1.1c2 0 4-.6 5.6-2 .8-.7 1.5-1.6 2-2.6s.8-2.2.9-3.4l5.6-109.5c0-.4.1-.6.2-.7.1-.2.2-.3.5-.5.2-.1.5-.2.9-.2s.9.2 1.1.3c.1.1.2.2.3.3.1.2.1.4.2.7l5 82.3c.1 1.2.4 2.4.9 3.4.8 1.5 2 2.7 3.3 3.5s2.8 1.1 4.3 1.1c1.9 0 3.9-.6 5.5-1.9.8-.7 1.5-1.5 2-2.5s.8-2.1 1-3.3l5.6-59.1c0-.2.1-.3.1-.4l.2-.2c.1-.1.3-.1.5-.1s.4.1.5.1l.1.1c0 .1.1.2.1.3l-.1-.4 3.4 34.8v.2c.8 3.6 3.9 6.1 7.6 6.1h21.1v-7h-21.1c-.4 0-.7-.3-.8-.6l.1.4-3.4-34.8v-.2c-.2-.9-.6-1.8-1.1-2.6-.8-1.2-1.8-2.1-2.9-2.6-1.1-.6-2.4-.8-3.6-.8-1.8 0-3.6.6-5 1.8-.7.6-1.4 1.4-1.9 2.3s-.8 1.9-.9 3l-5.6 59.1c0 .3-.1.5-.2.7s-.2.3-.5.5c-.2.1-.5.2-.8.2-.4 0-.9-.2-1.1-.3-.1-.1-.2-.2-.3-.3-.1-.2-.1-.4-.2-.7l-5-82.3c-.1-1.2-.4-2.4-.9-3.4-.8-1.5-2-2.7-3.3-3.5-1.4-.8-2.8-1.1-4.3-1.1-2 0-4 .6-5.6 2-.8.7-1.5 1.6-2 2.6s-.8 2.2-.9 3.4l-5.6 109.5c0 .4-.1.6-.2.7-.1.2-.2.4-.5.5-.2.1-.5.2-.9.2s-.8-.2-1-.3c-.1-.1-.2-.2-.3-.3s-.1-.4-.2-.7l-5.6-75.2c-.1-1.2-.4-2.3-.9-3.3-.8-1.5-2-2.7-3.3-3.4s-2.8-1.1-4.3-1.1c-1.8 0-3.6.5-5.2 1.7-.8.6-1.5 1.3-2 2.2s-.9 1.9-1.1 3l-4.3 22.7c-.1.7-.8 1.2-1.5 1.2h-19.7v7z" fill="url(#a)"/></svg>