<svg viewBox="0 0 150 150" xmlns="http://www.w3.org/2000/svg"><g fill="#5db9ae"><path d="m75 0a75 75 0 1 0 75 75 75.09 75.09 0 0 0 -75-75zm0 144.55a69.55 69.55 0 1 1 69.55-69.55 69.63 69.63 0 0 1 -69.55 69.55z"/><path d="m129.26 57.54a2.74 2.74 0 0 0 -1.86 3.38c.14.46.27.8.37 1.09a5.47 5.47 0 0 1 .26.81 2.73 2.73 0 0 0 5.3-1.27 11.51 11.51 0 0 0 -.45-1.44 7.27 7.27 0 0 1 -.24-.71 2.74 2.74 0 0 0 -3.38-1.86z"/><path d="m18.26 64a2.38 2.38 0 0 0 .46 0 2.72 2.72 0 0 0 2.68-2.26 1.94 1.94 0 0 1 .11-.45.54.54 0 0 1 .07-.13 7.24 7.24 0 0 0 .76-1.86 2.72 2.72 0 0 0 -5.26-1.41 1.54 1.54 0 0 1 -.22.54 6.46 6.46 0 0 0 -.86 2.39 2.72 2.72 0 0 0 2.26 3.18z"/><path d="m75.5 129.51h-2a2.72 2.72 0 1 0 -.1 5.49h1.6.6a2.73 2.73 0 0 0 -.1-5.45z"/><path d="m132.28 72.86a2.57 2.57 0 0 0 -1 .19l-10.59-1.87-3.07-14.48 6.64-4.7a1.27 1.27 0 0 0 .12-.1c.43.91.86 1.83 1.24 2.78a2.72 2.72 0 1 0 5-2 60 60 0 0 0 -107.06-8.53 2.73 2.73 0 0 0 -.36 1 2.73 2.73 0 0 0 .61 3.78l9.19 6.73-3.92 14.34-8.43 1.43c.06-.58.13-1.21.22-2v-.37a2.72 2.72 0 1 0 -5.41-.63v.37a45.58 45.58 0 0 0 -.46 6.2 58.62 58.62 0 0 0 12.76 36.29 63.32 63.32 0 0 0 31.14 21.56 2.62 2.62 0 0 0 2.62-.63 2.71 2.71 0 0 0 1.35-1.22l4-8 14.91.38 2.22 5.55c-.66.09-1.32.19-2 .26a2.72 2.72 0 0 0 .3 5.43h.3a58.23 58.23 0 0 0 37.23-19.25 60.79 60.79 0 0 0 15.17-39.7 2.77 2.77 0 0 0 -2.72-2.81zm-38-10 18.72-1.48 1.66 7.81a2.69 2.69 0 0 0 -.55.17l-15.73 6.78s0 0 0-.06a23.38 23.38 0 0 0 -4.11-13.26zm-16.17 55-7.31-.19c0-.13 0-.26 0-.39l-3-18.8a23.21 23.21 0 0 0 13.28.27l-2.94 18.74a2.3 2.3 0 0 0 -.04.33zm-3.2-23.75a18 18 0 1 1 18-18 18.05 18.05 0 0 1 -18 18zm-23.43-19-16.07-6.71a1.19 1.19 0 0 0 -.23-.07l2.06-7.47h.24l18.42 1.49a23.33 23.33 0 0 0 -4.42 12.78zm-22.57-29.2a54.52 54.52 0 0 1 93 1.28 2.66 2.66 0 0 0 -.8.38l-8.11 5.71a2.73 2.73 0 0 0 -1.1 2.72l-21 1.62a2.71 2.71 0 0 0 -1.1.33 23.39 23.39 0 0 0 -29.37-.33 2.7 2.7 0 0 0 -1.31-.48l-20.41-1.61.07-.23a2.75 2.75 0 0 0 -1-2.93zm33.87 73.09-4 8.07c-21.73-7.44-37.44-28.07-38.26-50.25a1.42 1.42 0 0 0 .2 0 3.73 3.73 0 0 0 .46 0l10.52-1.82a2.74 2.74 0 0 0 1.95-1.46l18.26 7.64h.11a23.56 23.56 0 0 0 10.53 14.82 2.74 2.74 0 0 0 -.38 1.85l3.12 19.64a2.71 2.71 0 0 0 -2.51 1.51zm26.65 8.86-3.26-8.17a2.73 2.73 0 0 0 -2.46-1.69h-.16l3.26-20.74a2.89 2.89 0 0 0 0-.93 23.5 23.5 0 0 0 10.72-14 3.24 3.24 0 0 0 .66-.18l17.73-7.63a2.74 2.74 0 0 0 2 1.7l11.49 2c-1.35 24.23-17.41 43.92-39.98 49.63z"/><path d="m69.27 69.36a2.92 2.92 0 0 0 2.73-3.43 2.73 2.73 0 0 0 -2.67-2.12 3 3 0 0 0 -2 .81 2.79 2.79 0 0 0 -.61.8 2.85 2.85 0 0 0 -.38 1.14 2.91 2.91 0 0 0 2.93 2.8z"/><path d="m80.18 65.21a2.67 2.67 0 0 0 -2.72-2.84 2.91 2.91 0 0 0 -2 .82 2.76 2.76 0 0 0 -.6.8 2.81 2.81 0 0 0 -.35 1.14 2.89 2.89 0 0 0 2.9 2.79 2.76 2.76 0 0 0 2.77-2.71z"/><path d="m84.53 73.18a2.78 2.78 0 0 0 2.78-2.73 2.7 2.7 0 0 0 0-.7 2.75 2.75 0 0 0 -2.68-2.13 2.88 2.88 0 0 0 -2 .82 3.3 3.3 0 0 0 -1 1.94c.51 1.55 1.37 2.8 2.9 2.8z"/><path d="m88.8 79.52a2.76 2.76 0 0 0 -.08-.71 2.73 2.73 0 0 0 -2.66-2.12 2.87 2.87 0 0 0 -2 .81 3 3 0 0 0 -.57.8 2.74 2.74 0 0 0 -.28 1.14 2.83 2.83 0 0 0 2.83 2.79 2.73 2.73 0 0 0 2.76-2.71z"/><path d="m80.37 82.41a2.78 2.78 0 0 0 -2 .82 2.43 2.43 0 0 0 -.49.8 2.66 2.66 0 0 0 -.15 1.14 2.72 2.72 0 0 0 2.75 2.83 2.68 2.68 0 0 0 2.67-2.73 3.1 3.1 0 0 0 -2.78-2.83z"/><path d="m71.77 82.89a2.8 2.8 0 0 0 -2 .81 2.73 2.73 0 0 0 -.54.81 2.64 2.64 0 0 0 -.2 1.13 2.76 2.76 0 0 0 2.76 2.78 2.7 2.7 0 0 0 2.7-2.72 2.84 2.84 0 0 0 -.11-.71 2.71 2.71 0 0 0 -2.61-2.1z"/><path d="m65.11 78.12a2.78 2.78 0 0 0 -2 .81 2.54 2.54 0 0 0 -.49.8 2.7 2.7 0 0 0 -.14 1.14 2.68 2.68 0 1 0 5.36.06 2.88 2.88 0 0 0 -.14-.71 2.71 2.71 0 0 0 -2.59-2.1z"/><path d="m66.4 72.84a2.83 2.83 0 0 0 -.1-.71 2.71 2.71 0 0 0 -2.65-2.13 2.83 2.83 0 0 0 -2 .81 2.93 2.93 0 0 0 -.55.8 2.73 2.73 0 0 0 -.23 1.14 2.79 2.79 0 0 0 2.78 2.78 2.72 2.72 0 0 0 2.75-2.69z"/></g></svg>