<svg viewBox="0 0 150 150" xmlns="http://www.w3.org/2000/svg"><g fill="#2e4456"><path d="m51.34 77.68c1.23 0 2.23-1.6 2.23-3.57s-1-3.57-2.23-3.57-2.23 1.59-2.23 3.57 1 3.57 2.23 3.57z"/><path d="m116.17 25.89 7.75-3.57h-97.83l7.75 3.57z"/><path d="m98.66 70.54c-1.23 0-2.23 1.59-2.23 3.57s1 3.57 2.23 3.57 2.23-1.6 2.23-3.57-1-3.57-2.23-3.57z"/><path d="m140.18 9.82a2.68 2.68 0 1 0 -2.68 2.68 2.68 2.68 0 0 0 2.68-2.68zm-2.68 1.34a1.34 1.34 0 1 1 1.34-1.34 1.34 1.34 0 0 1 -1.34 1.34z"/><path d="m60.71 11.61a2.68 2.68 0 1 0 -2.71-2.68 2.68 2.68 0 0 0 2.71 2.68zm0-4a1.34 1.34 0 1 1 -1.33 1.34 1.34 1.34 0 0 1 1.33-1.36z"/><path d="m144.64 64.29a1.79 1.79 0 1 0 1.79 1.78 1.78 1.78 0 0 0 -1.79-1.78zm0 2.67a.89.89 0 1 1 .9-.89.89.89 0 0 1 -.9.93z"/><path d="m85.71 42a1.79 1.79 0 1 0 1.79-1.78 1.79 1.79 0 0 0 -1.79 1.78zm2.68 0a.89.89 0 1 1 -.89-.89.89.89 0 0 1 .89.89z"/><path d="m3.57 12.5a1.79 1.79 0 1 0 1.79 1.79 1.79 1.79 0 0 0 -1.79-1.79zm0 2.68a.9.9 0 1 1 .89-.89.89.89 0 0 1 -.89.89z"/><circle cx="1.79" cy="134.82" r="1.79"/><path d="m9.82 133h-2.68a1.79 1.79 0 0 0 0 3.57h2.68a1.79 1.79 0 1 0 0-3.57z"/><path d="m142.86 133h-2.68a1.79 1.79 0 1 0 0 3.57h2.68a1.79 1.79 0 0 0 0-3.57z"/><circle cx="148.21" cy="134.82" r="1.79"/><path d="m134.57 133h-4a4.85 4.85 0 0 0 1.62-3.9v-99.31c0-3-1.75-4.79-4.23-4.79a6.26 6.26 0 0 0 -2.36.5l-33 15.19a5.64 5.64 0 0 0 -3.29 4.82v69.69a5.66 5.66 0 0 0 3.27 4.8l32 13h-99.16l32-13a5.66 5.66 0 0 0 3.29-4.83v-69.66a5.64 5.64 0 0 0 -3.29-4.82l-33-15.19a6.26 6.26 0 0 0 -2.36-.5c-2.48 0-4.23 1.82-4.23 4.79v99.35a4.85 4.85 0 0 0 1.62 3.9h-4.02a1.8 1.8 0 1 0 0 3.57h119.14a1.8 1.8 0 1 0 0-3.57zm-41.71-17.8v-69.69a2.18 2.18 0 0 1 1.07-1.51h.07.08l32.92-15.22a2.71 2.71 0 0 1 1-.21c.23 0 .66 0 .66 1.22v99.35c0 1.22-.43 1.22-.66 1.22a2.69 2.69 0 0 1 -1-.24l-33-13.4a2.2 2.2 0 0 1 -1.14-1.52zm-71.43-85.41c0-1.22.43-1.22.66-1.22a2.75 2.75 0 0 1 .95.21l32.88 15.15.08.07h.07a2.18 2.18 0 0 1 1.07 1.51v69.69a2.2 2.2 0 0 1 -1.07 1.52l-33 13.4a2.69 2.69 0 0 1 -1 .24c-.23 0-.66 0-.66-1.22z"/></g><path d="m51.34 90.18a1.78 1.78 0 0 0 1.78-1.79v-5.39a1.79 1.79 0 1 0 -3.57 0v5.35a1.79 1.79 0 0 0 1.79 1.83z" fill="#68bbab"/><path d="m98.66 90.18a1.79 1.79 0 0 0 1.79-1.79v-5.39a1.79 1.79 0 0 0 -3.58 0v5.35a1.79 1.79 0 0 0 1.79 1.83z" fill="#68bbab"/><path d="m11.23 49.12 1.33-1.75-.84-.47-.85 1.95h-.03l-.86-1.94-.85.49 1.31 1.7v.03l-2.06-.26v.95l2.07-.27v.03l-1.32 1.7.79.51.91-1.97h.03l.84 1.95.88-.5-1.35-1.68v-.03l2.11.26v-.95l-2.11.28z" fill="#68bbab"/><path d="m40.43 16.76.76-1.01-.48-.27-.49 1.13h-.02l-.49-1.12-.49.28.75.98v.02l-1.18-.16v.55l1.19-.15v.01l-.76.98.45.3.53-1.14h.01l.49 1.13.5-.29-.77-.97v-.01l1.21.14v-.55l-1.21.16z" fill="#68bbab"/><path d="m141.07 39.92v-.93l-2.07.28v-.03l1.31-1.72-.83-.46-.83 1.92h-.03l-.85-1.91-.84.48 1.29 1.67v.03l-2.01-.26v.93l2.03-.26v.03l-1.31 1.67.78.49.9-1.93h.02l.83 1.92.86-.49-1.32-1.65v-.02z" fill="#68bbab"/><path d="m99.73 16.98-1.12 1.45.67.42.77-1.67h.03l.71 1.66.74-.43-1.13-1.41v-.03l1.78.21v-.8l-1.78.24v-.03l1.12-1.47-.71-.41-.72 1.66h-.03l-.73-1.64-.72.41 1.11 1.44v.03l-1.74-.23v.8l1.75-.22z" fill="#68bbab"/><path d="m105.49 141.07h-7.41a1.79 1.79 0 0 0 0 3.57h7.41a1.79 1.79 0 0 0 0-3.57z" fill="#68bbab"/><path d="m51.92 141.07h-7.41a1.79 1.79 0 0 0 0 3.57h7.41a1.79 1.79 0 0 0 0-3.57z" fill="#68bbab"/><path d="m92.86 141.07h-35.72a1.79 1.79 0 0 0 0 3.57h14.24v1.79h-7.09a1.79 1.79 0 1 0 0 3.57h22.32a1.79 1.79 0 0 0 0-3.57h-8v-1.79h14.25a1.79 1.79 0 0 0 0-3.57z" fill="#68bbab"/></svg>