<svg viewBox="0 0 150 150" xmlns="http://www.w3.org/2000/svg"><path d="m138.47 33.32a43.12 43.12 0 0 0 -30.69-12.71c-24.07 0-30.29 11.21-32.78 19.83-2.45-8.62-8.67-19.83-32.75-19.83a43.16 43.16 0 0 0 -30.66 12.71c-14.7 14.68-15.27 34.15-1.59 56.22a3.26 3.26 0 0 0 5.54-3.42c-12.21-19.75-12-35.52.7-48.2a36.68 36.68 0 0 1 26.09-10.8c23.35 0 25.73 11.09 27.47 19.19.66 3.09 1.24 5.76 3 7.51a3.25 3.25 0 0 0 4.61 0c1.74-1.75 2.31-4.42 3-7.51 1.74-8.1 4.12-19.19 27.47-19.19a36.66 36.66 0 0 1 26.09 10.8c7.26 7.26 10.36 15.41 9.48 24.91-1.03 10.08-6.45 21.37-16.19 33.67h-23.55l-8.4-28.4a3.25 3.25 0 0 0 -6.24 0c-5.34 18.07-9.7 29.9-15.44 45.22l-5.19-14.65a3.26 3.26 0 0 0 -3.07-2.17h-10.6l-8.94-46a3.24 3.24 0 0 0 -3.19-2.63 3.26 3.26 0 0 0 -3.17 2.72l-7.75 45.91h-28.47a3.26 3.26 0 0 0 0 6.51h31.22a3.25 3.25 0 0 0 3.21-2.71l5.19-30.94 6 31a3.26 3.26 0 0 0 3.2 2.63h11l7.39 20.89a3.26 3.26 0 0 0 3 2.16 3.26 3.26 0 0 0 3-2.11l1.9-5.06c5.2-13.84 9.23-24.56 13.65-38.56l6 20.35a3.26 3.26 0 0 0 3.12 2.33h20.51c-2.13 2.39-4.39 4.81-6.83 7.27a276 276 0 0 1 -37.6 31.22l-1.74 1.23-.62.45-.53-.39c-.59-.43-1.31-1-2.22-1.6a275 275 0 0 1 -35.2-29.09 3.25 3.25 0 1 0 -4.56 4.63 282.85 282.85 0 0 0 36.21 29.84c.85.58 1.51 1.07 2 1.46 1.78 1.33 3.06 2 4.36 2s2.61-.66 4.45-2c.45-.32 1-.71 1.63-1.15 10.88-7.45 65.37-46.52 68.79-83.44 1.1-11.37-2.72-21.5-11.31-30.1z" fill="#51b6a9"/></svg>