<svg viewBox="0 0 150 150" xmlns="http://www.w3.org/2000/svg"><circle cx="1.79" cy="135.71" fill="#2e4456" r="1.79"/><path d="m9.82 133.93h-2.68a1.79 1.79 0 0 0 0 3.57h2.68a1.79 1.79 0 1 0 0-3.57z" fill="#2e4456"/><path d="m142.86 133.93h-2.68a1.79 1.79 0 1 0 0 3.57h2.68a1.79 1.79 0 0 0 0-3.57z" fill="#2e4456"/><circle cx="148.21" cy="135.71" fill="#2e4456" r="1.79"/><path d="m105.49 141.07h-7.41a1.79 1.79 0 0 0 0 3.57h7.41a1.79 1.79 0 0 0 0-3.57z" fill="#68bbab"/><path d="m51.92 141.07h-7.41a1.79 1.79 0 0 0 0 3.57h7.41a1.79 1.79 0 0 0 0-3.57z" fill="#68bbab"/><path d="m92.86 141.07h-35.72a1.79 1.79 0 0 0 0 3.57h14.24v1.79h-7.09a1.79 1.79 0 1 0 0 3.57h22.32a1.79 1.79 0 0 0 0-3.57h-8v-1.79h14.25a1.79 1.79 0 0 0 0-3.57z" fill="#68bbab"/><path d="m28.57 91.41c.2-2.56 1.73-3 2.05-3a1.78 1.78 0 0 0 -.5-3.53c-1.63.21-4.8 1.82-5.12 6.39v4.31a1.79 1.79 0 0 0 3.57 0z" fill="#68bbab"/><circle cx="26.79" cy="102.68" fill="#2e4456" r="1.79"/><g fill="#68bbab"><path d="m35.71 79.46a9.82 9.82 0 1 0 -9.82-9.82 9.83 9.83 0 0 0 9.82 9.82zm0-16.07a6.25 6.25 0 1 1 -6.25 6.25 6.26 6.26 0 0 1 6.25-6.25z"/><path d="m75 42.86a9.83 9.83 0 1 0 -9.82-9.86 9.83 9.83 0 0 0 9.82 9.86zm0-16.07a6.25 6.25 0 1 1 -6.25 6.21 6.25 6.25 0 0 1 6.25-6.21z"/><path d="m95.54 53.57a9.82 9.82 0 1 0 -9.83-9.82 9.83 9.83 0 0 0 9.83 9.82zm0-16.07a6.25 6.25 0 1 1 -6.25 6.25 6.26 6.26 0 0 1 6.25-6.25z"/><path d="m54.46 53.57a9.82 9.82 0 1 0 -9.82-9.82 9.83 9.83 0 0 0 9.82 9.82zm0-16.07a6.25 6.25 0 1 1 -6.25 6.25 6.25 6.25 0 0 1 6.25-6.25z"/><path d="m84.82 69.64a9.82 9.82 0 1 0 -9.82 9.82 9.83 9.83 0 0 0 9.82-9.82zm-16.07 0a6.25 6.25 0 1 1 6.25 6.25 6.26 6.26 0 0 1 -6.25-6.25z"/><path d="m104.46 95.54a9.82 9.82 0 1 0 -9.82 9.82 9.83 9.83 0 0 0 9.82-9.82zm-9.82 6.25a6.25 6.25 0 1 1 6.25-6.25 6.27 6.27 0 0 1 -6.25 6.25z"/><path d="m48.21 117.31c.2-2.57 1.73-3 2.06-3a1.79 1.79 0 0 0 -.5-3.54c-1.64.21-4.81 1.83-5.12 6.39a.49.49 0 0 0 0 .12v4.19a1.79 1.79 0 0 0 3.57 0z"/></g><circle cx="46.43" cy="128.57" fill="#2e4456" r="1.79"/><path d="m105.36 117.24a.49.49 0 0 0 0-.12c-.31-4.56-3.48-6.18-5.12-6.39a1.76 1.76 0 0 0 -2 1.5 1.79 1.79 0 0 0 1.47 2c.31.06 1.86.47 2.06 3v4.12a1.79 1.79 0 0 0 3.57 0z" fill="#68bbab"/><circle cx="103.57" cy="128.57" fill="#2e4456" r="1.79"/><path d="m125 91.35v-.12c-.32-4.57-3.49-6.18-5.12-6.39a1.76 1.76 0 0 0 -2 1.5 1.81 1.81 0 0 0 1.47 2c.31.06 1.86.47 2.06 3v4.13a1.79 1.79 0 0 0 3.57 0z" fill="#68bbab"/><circle cx="123.21" cy="102.68" fill="#2e4456" r="1.79"/><path d="m65.18 95.54a9.82 9.82 0 1 0 -9.82 9.82 9.84 9.84 0 0 0 9.82-9.82zm-16.07 0a6.25 6.25 0 1 1 6.25 6.25 6.25 6.25 0 0 1 -6.25-6.25z" fill="#68bbab"/><path d="m49.37 63.37a1.78 1.78 0 0 0 -.5-3.53 5.58 5.58 0 0 0 -2.79 1.33 14 14 0 0 1 1.92 3.14 2.3 2.3 0 0 1 1.37-.94z" fill="#68bbab"/><path d="m104.46 69.64a9.83 9.83 0 1 0 9.83-9.82 9.83 9.83 0 0 0 -9.83 9.82zm9.83-6.25a6.25 6.25 0 1 1 -6.29 6.25 6.27 6.27 0 0 1 6.29-6.25z" fill="#68bbab"/><path d="m47.81 55.36a13.58 13.58 0 0 1 -3.56-3 11.23 11.23 0 0 0 -5.59 4.2 13.17 13.17 0 0 1 3.5 1.32 7.65 7.65 0 0 1 5.65-2.52z" fill="#2e4456"/><path d="m61.11 55.36a7.62 7.62 0 0 1 6.25 3.3 13.44 13.44 0 0 1 3.2-1.66 11.32 11.32 0 0 0 -5.88-4.63 13.47 13.47 0 0 1 -3.57 2.99z" fill="#2e4456"/><path d="m79.44 57a13.44 13.44 0 0 1 3.2 1.64 7.62 7.62 0 0 1 6.25-3.3 13.47 13.47 0 0 1 -3.57-3 11.32 11.32 0 0 0 -5.88 4.66z" fill="#2e4456"/><path d="m102.19 55.36a7.65 7.65 0 0 1 5.65 2.55 13.17 13.17 0 0 1 3.5-1.32 11.23 11.23 0 0 0 -5.59-4.2 13.58 13.58 0 0 1 -3.56 2.97z" fill="#2e4456"/><path d="m100.62 63.37a2.33 2.33 0 0 1 1.39.94 13.59 13.59 0 0 1 1.91-3.14 5.58 5.58 0 0 0 -2.79-1.33 1.76 1.76 0 0 0 -2 1.5 1.81 1.81 0 0 0 1.49 2.03z" fill="#68bbab"/><path d="m104.07 78.28a11.33 11.33 0 0 0 -5.72 4.4 13.12 13.12 0 0 1 3.33 1.48 7.64 7.64 0 0 1 6-2.91 13.28 13.28 0 0 1 -3.61-2.97z" fill="#2e4456"/><path d="m87.61 84.16a13.12 13.12 0 0 1 3.33-1.48 11.33 11.33 0 0 0 -5.72-4.4 13.44 13.44 0 0 1 -3.57 3 7.65 7.65 0 0 1 5.96 2.88z" fill="#2e4456"/><path d="m64.78 78.28a11.33 11.33 0 0 0 -5.72 4.4 13.12 13.12 0 0 1 3.33 1.48 7.65 7.65 0 0 1 6-2.91 13.44 13.44 0 0 1 -3.61-2.97z" fill="#2e4456"/><path d="m42.36 81.25a7.64 7.64 0 0 1 6 2.91 13.12 13.12 0 0 1 3.33-1.48 11.33 11.33 0 0 0 -5.72-4.4 13.28 13.28 0 0 1 -3.61 2.97z" fill="#2e4456"/><path d="m69 88.37a1.78 1.78 0 0 0 -.5-3.53 5.7 5.7 0 0 0 -3.23 1.74 13.3 13.3 0 0 1 2.11 3.14 2.44 2.44 0 0 1 1.62-1.35z" fill="#68bbab"/><path d="m134.57 133.93h-22.08s0-.07 0-.11v-19a11.14 11.14 0 0 0 -.48-3.24h16.45a3.68 3.68 0 0 0 3.67-3.68v-18.9a11.28 11.28 0 0 0 -7.64-10.67 13.39 13.39 0 0 1 -3.56 3 7.7 7.7 0 0 1 7.63 7.7v19a.11.11 0 0 1 -.1.11h-18.26a11.35 11.35 0 0 0 -5.34-3.87 13.1 13.1 0 0 1 -3.57 3 7.7 7.7 0 0 1 7.64 7.71v19a.11.11 0 0 1 -.11.11h-28.36a.1.1 0 0 1 -.1-.11v-19a7.7 7.7 0 0 1 7.64-7.84 13.21 13.21 0 0 1 -3.56-3 11.28 11.28 0 0 0 -7.64 10.68v19s0 .07 0 .11h-3.6s0-.07 0-.11v-19a11.28 11.28 0 0 0 -7.64-10.68 13.21 13.21 0 0 1 -3.56 3 7.7 7.7 0 0 1 7.63 7.71v19a.1.1 0 0 1 -.1.11h-28.35a.11.11 0 0 1 -.11-.11v-19a7.7 7.7 0 0 1 7.64-7.71 13.1 13.1 0 0 1 -3.57-3 11.35 11.35 0 0 0 -5.34 3.86h-18.27a.11.11 0 0 1 -.1-.11v-18.89a7.7 7.7 0 0 1 7.63-7.7 13.39 13.39 0 0 1 -3.56-3 11.28 11.28 0 0 0 -7.64 10.7v19a3.68 3.68 0 0 0 3.67 3.68h16.47a11.14 11.14 0 0 0 -.48 3.24v19s0 .07 0 .11h-22.09a1.8 1.8 0 1 0 0 3.57h119.14a1.8 1.8 0 1 0 0-3.57z" fill="#2e4456"/><path d="m144.64 34.7a2.68 2.68 0 1 0 -2.64-2.7 2.68 2.68 0 0 0 2.64 2.7zm0-4a1.34 1.34 0 1 1 -1.34 1.3 1.35 1.35 0 0 1 1.34-1.32z" fill="#2e4456"/><path d="m124.11 50.6a1.79 1.79 0 1 0 1.78 1.79 1.79 1.79 0 0 0 -1.78-1.79zm0 2.68a.89.89 0 1 1 .89-.89.89.89 0 0 1 -.89.89z" fill="#2e4456"/><path d="m25 5.36a1.79 1.79 0 1 0 1.79 1.78 1.79 1.79 0 0 0 -1.79-1.78zm0 2.64a.9.9 0 1 1 .89-.9.89.89 0 0 1 -.89.9z" fill="#2e4456"/><path d="m141.34 5.36a1.79 1.79 0 1 0 1.79 1.78 1.78 1.78 0 0 0 -1.79-1.78zm0 2.68a.9.9 0 1 1 .9-.9.89.89 0 0 1 -.9.86z" fill="#2e4456"/><path d="m15.45 26.79a1.79 1.79 0 1 0 -1.79 1.78 1.79 1.79 0 0 0 1.79-1.78zm-2.68 0a.9.9 0 1 1 .89.89.89.89 0 0 1 -.89-.89z" fill="#2e4456"/><path d="m9.72 63.4 1.33-1.74-.84-.48-.85 1.96h-.03l-.87-1.94-.85.49 1.32 1.7v.03l-2.06-.27v.95l2.07-.26v.02l-1.33 1.71.8.5.91-1.97h.02l.84 1.96.88-.51-1.34-1.67v-.03l2.11.25v-.95l-2.11.28z" fill="#68bbab"/><path d="m83.92 6.72-.76.98.46.29.52-1.13h.02l.48 1.12.51-.29-.77-.96v-.02l1.21.15v-.55l-1.21.16v-.02l.76-1-.48-.28-.49 1.13h-.02l-.5-1.12-.49.28.76.99v.01l-1.19-.15v.55l1.19-.16z" fill="#68bbab"/><path d="m38.15 29.04v-.93l-2.07.27v-.03l1.3-1.71-.82-.47-.84 1.92h-.03l-.85-1.9-.83.48 1.29 1.67v.03l-2.02-.26v.93l2.03-.26v.02l-1.3 1.68.78.49.89-1.93h.03l.82 1.92.86-.5-1.31-1.64v-.03z" fill="#68bbab"/><path d="m116.7 20.35 1.12-1.48-.71-.4-.72 1.65h-.02l-.74-1.64-.72.41 1.11 1.45v.02l-1.73-.23v.81l1.74-.23v.03l-1.12 1.44.68.42.77-1.66h.02l.71 1.65.74-.42-1.13-1.42v-.02l1.78.21v-.81l-1.78.24z" fill="#68bbab"/></svg>