<svg viewBox="0 0 150 150" xmlns="http://www.w3.org/2000/svg"><g fill="#51b6a9"><path d="m149.46 49.09a2.84 2.84 0 0 0 -2.3-1.17h-110.56l-11.92-13.84a2.86 2.86 0 0 0 -2.15-1h-19.7a2.84 2.84 0 0 0 0 5.67h18.4l11.42 13.25 11 63.12a2.84 2.84 0 0 0 2.79 2.34h80a2.82 2.82 0 0 0 2.69-2l20.76-63.89a2.84 2.84 0 0 0 -.43-2.48zm-25.11 62.72h-75.52l-10.15-58.22h104.59z"/><path d="m114.28 91.26h-50.94a2.84 2.84 0 0 0 0 5.67h50.94a2.84 2.84 0 1 0 0-5.67z"/><path d="m57.41 74.65h62.8a2.84 2.84 0 1 0 0-5.67h-62.8a2.84 2.84 0 0 0 0 5.67z"/><path d="m53.91 125.23a12.39 12.39 0 1 0 12.38 12.38 12.39 12.39 0 0 0 -12.38-12.38zm0 19.1a6.72 6.72 0 1 1 6.71-6.72 6.73 6.73 0 0 1 -6.71 6.72z"/><path d="m119.84 125.23a12.39 12.39 0 1 0 12.39 12.38 12.4 12.4 0 0 0 -12.39-12.38zm0 19.1a6.72 6.72 0 1 1 6.73-6.72 6.73 6.73 0 0 1 -6.73 6.72z"/></g></svg>