<svg viewBox="0 0 150 150" xmlns="http://www.w3.org/2000/svg"><g fill="#2e4456"><path d="m121.43 16.07a1.79 1.79 0 1 0 -1.79-1.78 1.78 1.78 0 0 0 1.79 1.78zm0-2.68a.9.9 0 1 1 -.89.9.89.89 0 0 1 .89-.9z"/><path d="m112.5 33a2.68 2.68 0 1 0 -2.68-2.68 2.69 2.69 0 0 0 2.68 2.68zm0-4a1.34 1.34 0 1 1 -1.34 1.34 1.34 1.34 0 0 1 1.34-1.34z"/><path d="m133 67a2.68 2.68 0 1 0 -2.68-2.67 2.68 2.68 0 0 0 2.68 2.67zm0-4a1.34 1.34 0 1 1 -1.34 1.34 1.35 1.35 0 0 1 1.34-1.34z"/><path d="m8.93 32.14a1.79 1.79 0 1 0 -1.79-1.78 1.78 1.78 0 0 0 1.79 1.78zm0-2.68a.9.9 0 1 1 -.89.9.89.89 0 0 1 .89-.9z"/><circle cx="1.79" cy="134.82" r="1.79"/><path d="m9.82 133h-2.68a1.79 1.79 0 0 0 0 3.57h2.68a1.79 1.79 0 1 0 0-3.57z"/><path d="m142.86 133h-2.68a1.79 1.79 0 1 0 0 3.57h2.68a1.79 1.79 0 0 0 0-3.57z"/><circle cx="148.21" cy="134.82" r="1.79"/><path d="m134.57 133h-42.69a7 7 0 0 0 1-3.58v-35.67h-3.59v25h-60.72v-78.57h60.72v21.43h3.57v-32.15a7.19 7.19 0 0 0 -7.24-7.14h-53.38a7.19 7.19 0 0 0 -7.24 7.14v100a7 7 0 0 0 1 3.54h-10.57a1.8 1.8 0 1 0 0 3.57h119.14a1.8 1.8 0 1 0 0-3.57zm-106-103.54a3.63 3.63 0 0 1 3.67-3.57h53.38a3.63 3.63 0 0 1 3.67 3.57v7.15h-60.72zm3.67 103.54a3.63 3.63 0 0 1 -3.67-3.58v-7.14h60.72v7.14a3.63 3.63 0 0 1 -3.67 3.58z"/><path d="m94.64 75.89a1.79 1.79 0 0 0 0 3.57h28.57a1.79 1.79 0 1 0 0-3.57z"/><path d="m91.07 90.18h21.43a1.79 1.79 0 1 0 0-3.57h-21.43a1.79 1.79 0 0 0 0 3.57z"/><path d="m91.07 68.75h21.43a1.79 1.79 0 1 0 0-3.57h-21.43a1.79 1.79 0 0 0 0 3.57z"/><path d="m82 86.35a4.22 4.22 0 0 0 3.68-4.25v-5.27a4.23 4.23 0 0 0 -3.68-4.25l-2.69-.4a21.88 21.88 0 0 0 -.9-2.18l1.09-1.5.47-.65a4.19 4.19 0 0 0 -.49-5.75l-3.63-3.56a4.29 4.29 0 0 0 -3-1.3 4.35 4.35 0 0 0 -2.7 1l-.34.26-1.81 1.3c-.59-.28-1.19-.52-1.8-.74-.11-.78-.23-1.56-.34-2.33l-.05-.35a4.19 4.19 0 0 0 -4.27-3.7h-5.23a4.24 4.24 0 0 0 -4.31 3.66l-.18 1.22-.21 1.5a21.09 21.09 0 0 0 -2.19.92l-2.12-1.57a4.38 4.38 0 0 0 -2.61-.89h-.12a4.33 4.33 0 0 0 -2.92 1.31l-2.31 2.35-1.34 1.35a4.21 4.21 0 0 0 -.36 5.75l.76 1 .84 1.1c-.27.59-.52 1.19-.73 1.79l-2.7.4a4.19 4.19 0 0 0 -3.69 4.28v5.21a4.18 4.18 0 0 0 3.71 4.28l2.68.4a20.59 20.59 0 0 0 .92 2.18l-1 1.4-.54.75a4.21 4.21 0 0 0 .48 5.73l3.63 3.59a4.31 4.31 0 0 0 3 1.3 4.37 4.37 0 0 0 2.71-1l.16-.12 1.93-1.47a17.39 17.39 0 0 0 1.8.73c.08.59.17 1.17.25 1.75l.14.93a4.2 4.2 0 0 0 4.27 3.71h5.24a4.23 4.23 0 0 0 4.26-3.67c.14-.91.27-1.81.4-2.72a19.68 19.68 0 0 0 2.23-.83l1 .73 1.12.82a4.41 4.41 0 0 0 2.64.92 4.32 4.32 0 0 0 3.15-1.47l3.54-3.62a4.21 4.21 0 0 0 .36-5.74l-.94-1.23c-.22-.29-.44-.59-.67-.88.28-.59.52-1.19.74-1.79zm-7.5 2.73c1 1.24 1.9 2.49 2.85 3.73a.7.7 0 0 1 -.06 1.09l-3.56 3.62a.82.82 0 0 1 -.57.33.92.92 0 0 1 -.53-.23l-3.79-2.78a.56.56 0 0 0 -.21 0 .37.37 0 0 0 -.17 0 17.38 17.38 0 0 1 -5.2 2.16c-.23 0-.27.17-.3.36-.22 1.56-.45 3.11-.68 4.67a.65.65 0 0 1 -.73.63h-5.24a.66.66 0 0 1 -.74-.65c-.23-1.55-.45-3.1-.67-4.65a.4.4 0 0 0 -.35-.38 16.8 16.8 0 0 1 -4.77-1.94.5.5 0 0 0 -.23 0 .57.57 0 0 0 -.29.06c-1.26.9-2.46 1.9-3.69 2.8a.85.85 0 0 1 -.52.22.81.81 0 0 1 -.54-.28q-1.83-1.78-3.65-3.58a.68.68 0 0 1 -.09-1.08c.92-1.27 1.84-2.54 2.77-3.79a.32.32 0 0 0 0-.41 16.79 16.79 0 0 1 -2.18-5.18c-.06-.23-.18-.28-.39-.3l-4.64-.68a.66.66 0 0 1 -.64-.75v-5.21a.66.66 0 0 1 .64-.75l4.67-.68c.2 0 .33-.07.39-.3a17 17 0 0 1 2-4.88.29.29 0 0 0 0-.4c-1-1.24-1.9-2.49-2.85-3.73a.7.7 0 0 1 .02-1.12l3.6-3.66a.82.82 0 0 1 .53-.28.91.91 0 0 1 .51.21l3.8 2.8a.46.46 0 0 0 .23.05.37.37 0 0 0 .2 0 17.29 17.29 0 0 1 5.15-2.16.37.37 0 0 0 .33-.37c.22-1.56.45-3.11.67-4.67a.66.66 0 0 1 .74-.63h5.24a.65.65 0 0 1 .73.65c.23 1.55.46 3.09.68 4.65a.4.4 0 0 0 .34.38 16.86 16.86 0 0 1 4.78 1.94.47.47 0 0 0 .23 0 .6.6 0 0 0 .29-.06c1.22-1 2.45-1.88 3.68-2.82a.9.9 0 0 1 .53-.22.77.77 0 0 1 .54.28l3.64 3.58a.7.7 0 0 1 .09 1.08c-.93 1.26-1.84 2.53-2.77 3.79a.29.29 0 0 0 0 .4 17.12 17.12 0 0 1 2.17 5.18c.06.24.19.28.39.31l4.64.68a.65.65 0 0 1 .64.72v5.27a.65.65 0 0 1 -.64.72l-4.62.67a.4.4 0 0 0 -.41.37 16.93 16.93 0 0 1 -2 4.82.31.31 0 0 0 .01.4z"/></g><path d="m51.79 33h14.28a1.79 1.79 0 1 0 0-3.58h-14.28a1.79 1.79 0 1 0 0 3.58z" fill="#68bbab"/><path d="m19.14 62.59.84-1.11-.53-.3-.54 1.24h-.02l-.55-1.23-.54.31.83 1.08v.02l-1.3-.17v.6l1.31-.16v.01l-.84 1.09.5.32.58-1.26h.02l.53 1.25.56-.32-.85-1.07v-.01l1.33.15v-.6l-1.33.18z" fill="#68bbab"/><path d="m53.75 7.53-.84 1.08.5.32.58-1.25h.01l.53 1.24.56-.32-.85-1.06v-.01l1.34.15v-.6l-1.34.18v-.02l.84-1.1-.53-.3-.54 1.23h-.02l-.54-1.22-.54.31.83 1.07v.02l-1.3-.17v.6l1.31-.16z" fill="#68bbab"/><path d="m89.98 16.13-.76.98.45.29.53-1.13h.01l.48 1.12.51-.29-.77-.96v-.02l1.21.15v-.55l-1.21.16v-.01l.76-1.01-.48-.27-.49 1.12h-.02l-.49-1.12-.49.29.75.98v.01l-1.18-.15v.55l1.19-.16z" fill="#68bbab"/><path d="m141.17 38.88v-.63l-1.39.19v-.02l.87-1.16-.55-.31-.56 1.29h-.02l-.57-1.28-.57.32.87 1.13v.02l-1.35-.18v.63l1.36-.18v.02l-.88 1.13.53.33.6-1.3h.02l.55 1.29.58-.33-.88-1.11v-.02z" fill="#68bbab"/><path d="m103.37 51.77-.91 1.17.55.34.62-1.35h.02l.57 1.34.61-.34-.92-1.15v-.02l1.45.17v-.65l-1.45.19v-.02l.91-1.2-.58-.32-.58 1.34h-.02l-.59-1.33-.59.33.9 1.17v.02l-1.41-.18v.65l1.42-.18z" fill="#68bbab"/><path d="m105.49 141.07h-7.41a1.79 1.79 0 0 0 0 3.57h7.41a1.79 1.79 0 0 0 0-3.57z" fill="#68bbab"/><path d="m51.92 141.07h-7.41a1.79 1.79 0 0 0 0 3.57h7.41a1.79 1.79 0 0 0 0-3.57z" fill="#68bbab"/><path d="m92.86 141.07h-35.72a1.79 1.79 0 0 0 0 3.57h14.24v1.79h-7.09a1.79 1.79 0 1 0 0 3.57h22.32a1.79 1.79 0 0 0 0-3.57h-8v-1.79h14.25a1.79 1.79 0 0 0 0-3.57z" fill="#68bbab"/><path d="m50 125.89a1.79 1.79 0 1 0 0 3.57h17.86a1.79 1.79 0 0 0 0-3.57z" fill="#68bbab"/><path d="m58.93 90.55a11.09 11.09 0 1 0 -11.09-11.09 11.08 11.08 0 0 0 11.09 11.09zm0-18.6a7.52 7.52 0 1 1 -7.51 7.51 7.52 7.52 0 0 1 7.51-7.46z" fill="#68bbab"/></svg>