<svg viewBox="0 0 150 150" xmlns="http://www.w3.org/2000/svg"><path d="m106.15 140.88h-7.58a1.83 1.83 0 0 0 0 3.65h7.58a1.83 1.83 0 0 0 0-3.65z" fill="#68bbab"/><path d="m51.43 140.88h-7.58a1.83 1.83 0 0 0 0 3.65h7.58a1.83 1.83 0 0 0 0-3.65z" fill="#68bbab"/><path d="m93.24 140.88h-36.48a1.83 1.83 0 0 0 0 3.65h14.54v1.82h-7.24a1.83 1.83 0 1 0 0 3.65h22.8a1.83 1.83 0 0 0 0-3.65h-8.16v-1.82h14.54a1.83 1.83 0 0 0 0-3.65z" fill="#68bbab"/><path d="m48.74 32.25a2.5 2.5 0 0 1 .66-.78 3.37 3.37 0 0 1 1-.51 3.57 3.57 0 0 1 1.21-.2 3.68 3.68 0 0 1 .49 0 5.15 5.15 0 0 1 1.2.38 2.39 2.39 0 0 1 .91.73 3.26 3.26 0 0 0 .68.66 1.78 1.78 0 0 0 1 .26 2 2 0 0 0 1.32-.46 1.38 1.38 0 0 0 .54-1.09 1.19 1.19 0 0 0 -.09-.44 2.35 2.35 0 0 0 -.21-.39 5.65 5.65 0 0 0 -2.3-1.92 7.38 7.38 0 0 0 -2.15-.58 7.71 7.71 0 0 0 -1.43-.12 7.85 7.85 0 0 0 -2.68.44 6.7 6.7 0 0 0 -2.1 1.18 5.76 5.76 0 0 0 -1.4 1.76 4.69 4.69 0 0 0 -.51 2.15v3.68a4.39 4.39 0 0 0 .55 2.13 5.77 5.77 0 0 0 1.46 1.7 6.75 6.75 0 0 0 2.11 1.17 8.28 8.28 0 0 0 2.57.4h.25a7.6 7.6 0 0 0 3.29-.7 5.56 5.56 0 0 0 2.25-1.86c.09-.15.16-.3.23-.44a1 1 0 0 0 .11-.4 1.39 1.39 0 0 0 -.54-1.11 2 2 0 0 0 -1.29-.44 1.76 1.76 0 0 0 -1.07.25 3.48 3.48 0 0 0 -.63.64 2.63 2.63 0 0 1 -.91.73 4.35 4.35 0 0 1 -1.31.39h-.33a3.56 3.56 0 0 1 -1.27-.21 3.17 3.17 0 0 1 -1-.55 2.56 2.56 0 0 1 -.66-.81 2 2 0 0 1 -.2-1v-3.68a2 2 0 0 1 .25-.96z" fill="#2e4456"/><path d="m72.7 29.31a7 7 0 0 0 -2.11-1.12 8.2 8.2 0 0 0 -2.52-.4 7.74 7.74 0 0 0 -2.64.44 6.76 6.76 0 0 0 -2.09 1.18 5.62 5.62 0 0 0 -1.4 1.76 5 5 0 0 0 -.54 2.15v7.58a1.25 1.25 0 0 0 .55 1 2.09 2.09 0 0 0 1.26.41 1.91 1.91 0 0 0 1.26-.45 1.29 1.29 0 0 0 .55-1v-2.6h6.12v2.64a1.22 1.22 0 0 0 .53 1 2.11 2.11 0 0 0 1.27.4 2 2 0 0 0 1.25-.46 1.31 1.31 0 0 0 .51-1v-7.7a4.28 4.28 0 0 0 -.55-2.14 5.89 5.89 0 0 0 -1.45-1.69zm-1.56 5.95h-6.14v-2a2 2 0 0 1 .25-1 2.26 2.26 0 0 1 .66-.78 3.58 3.58 0 0 1 2.09-.72 3.47 3.47 0 0 1 1.22.21 3.23 3.23 0 0 1 1 .55 2.23 2.23 0 0 1 .66.81 2.13 2.13 0 0 1 .24 1z" fill="#68bbab"/><path d="m88.4 27.79h-7.84a1.92 1.92 0 0 0 -1.33.48 1.44 1.44 0 0 0 -.53 1.08v11.48a1.41 1.41 0 0 0 .53 1.11 2.19 2.19 0 0 0 2.66 0 1.39 1.39 0 0 0 .54-1.11v-3.47h4.14a2 2 0 0 0 1.31-.44 1.38 1.38 0 0 0 .52-1.09 1.39 1.39 0 0 0 -.52-1.09 1.87 1.87 0 0 0 -1.31-.46h-4.14v-3.4h6a2 2 0 0 0 1.3-.44 1.34 1.34 0 0 0 .54-1.09 1.4 1.4 0 0 0 -.54-1.1 2 2 0 0 0 -1.33-.46z" fill="#2e4456"/><path d="m103.26 30.88a2 2 0 0 0 1.3-.44 1.34 1.34 0 0 0 .54-1.09 1.4 1.4 0 0 0 -.54-1.1 2 2 0 0 0 -1.3-.46h-7.84a1.88 1.88 0 0 0 -1.32.48 1.47 1.47 0 0 0 -.52 1.08v11.48a1.37 1.37 0 0 0 .57 1.11 2 2 0 0 0 1.27.45h7.84a2 2 0 0 0 1.3-.45 1.39 1.39 0 0 0 .54-1.11 1.36 1.36 0 0 0 -.54-1.07 1.92 1.92 0 0 0 -1.3-.46h-6v-2.74h4.19a2 2 0 0 0 1.29-.44 1.35 1.35 0 0 0 .55-1.09 1.36 1.36 0 0 0 -.55-1.09 1.93 1.93 0 0 0 -1.29-.46h-4.22v-2.6z" fill="#68bbab"/><path d="m124.25 65.19a7.3 7.3 0 1 0 7.29 7.29 7.29 7.29 0 0 0 -7.29-7.29zm0 10.94a3.65 3.65 0 1 1 3.65-3.65 3.66 3.66 0 0 1 -3.65 3.65z" fill="#68bbab"/><path d="m92.33 85.25a1.81 1.81 0 0 0 1.82 1.82 1.85 1.85 0 0 0 1.68-1.07 12.27 12.27 0 0 1 1.55-.49c1.81-.51 4.07-1.14 4.07-3.28 0-1.83-1.64-2.55-3.24-3 1.6-.49 3.24-1.21 3.24-3a1.83 1.83 0 0 0 -3.45-.83 14.15 14.15 0 0 1 -1.55.49c-1.81.5-4.07 1.13-4.07 3.28 0 1.83 1.64 2.55 3.24 3-1.62.53-3.29 1.25-3.29 3.08z" fill="#68bbab"/><path d="m49.46 122.64a1.83 1.83 0 1 0 0-3.65h-7.29a1.83 1.83 0 1 0 0 3.65z" fill="#68bbab"/><path d="m38.52 128.11a1.83 1.83 0 0 0 1.82 1.83h10.95a1.83 1.83 0 0 0 0-3.65h-10.95a1.83 1.83 0 0 0 -1.82 1.82z" fill="#68bbab"/><path d="m67.7 65.19a7.3 7.3 0 1 0 7.3 7.29 7.29 7.29 0 0 0 -7.3-7.29zm0 10.94a3.65 3.65 0 1 1 3.65-3.65 3.65 3.65 0 0 1 -3.65 3.65z" fill="#68bbab"/><g fill="#2e4456"><path d="m57.81 77.11a.16.16 0 0 1 0-.07h-12.92a3.63 3.63 0 0 0 -3.63 3.65v25.53h-1.09a24.58 24.58 0 0 1 .17 2.74v.91h14.6v-3.65h-10v-25.53h10.46a8.46 8.46 0 0 1 2.41-3.58z"/><path d="m81.29 101.05a6.38 6.38 0 0 1 3.3 1.53h22.77a6.42 6.42 0 0 1 3.3-1.53v-2.12h-7.94l.33-1.83h1.13a1.82 1.82 0 1 0 0-3.64h-.46l.11-.62a3.29 3.29 0 0 0 -3.29-3.94h-11a3.29 3.29 0 0 0 -3.29 3.94l1.11 6.09h-6.07zm18.88-8.51-1.1 6.09a.5.5 0 0 1 -.36.3h-7.29a.48.48 0 0 1 -.36-.3l-1.06-6.09z"/><path d="m20.49 64.27h8.91v27.73a11.8 11.8 0 0 1 3.65 1.61v-29.34h27.44a10.9 10.9 0 0 1 14.43 0h42v.08a10.76 10.76 0 0 1 1.72-1.27 13.43 13.43 0 0 1 1.92-.9 10.79 10.79 0 0 1 3.66-.64 10.92 10.92 0 0 1 7 2.54c2.54-.61 2.88-2.66.54-5.1l-12.1-12.67v-18.31a7.27 7.27 0 0 0 -7.08-7.45h-75.19a7.27 7.27 0 0 0 -7.08 7.45v18.31l-12.1 12.69c-2.8 2.91-1.77 5.27 2.28 5.27zm17-3.64 10.95-11h11.21l-10.94 11zm35.73 0h-19.35l10.94-11h8.37zm3.64 0v-11h8.37l10.94 11zm24.47 0-10.94-11h11.21l11 11zm16.57-11 10.46 11h-10.65l-10.95-11zm-83.9-21.63a3.63 3.63 0 0 1 3.43-3.8h75.22a3.63 3.63 0 0 1 3.35 3.8v18h-82zm-1.86 21.68h11.1l-11 11h-10.56z"/><circle cx=".22" cy="135.41" r="1.82"/><path d="m8.42 133.58h-2.73a1.83 1.83 0 0 0 0 3.65h2.73a1.83 1.83 0 1 0 0-3.65z"/><path d="m144.31 133.58h-2.73a1.83 1.83 0 1 0 0 3.65h2.73a1.83 1.83 0 0 0 0-3.65z"/><circle cx="149.78" cy="135.41" r="1.82"/><path d="m135.85 133.58h-2.48v-50.15a4.81 4.81 0 0 0 -1.37-3.28 10.84 10.84 0 0 1 -3.45 2.37h.71a1.14 1.14 0 0 1 .42.87v28.31h-11.82a2.71 2.71 0 0 0 -2.82 2.73v18.77a.41.41 0 0 1 -.18.38h-2.29a.4.4 0 0 1 -.18-.38v-24.92h2.74a2.87 2.87 0 0 0 2.82-2.93v-15.66a7.7 7.7 0 0 1 .71-3.18c.52-.84 2.62-2.21 5.12-3.11a10.82 10.82 0 0 1 -5.16-1.55 9.78 9.78 0 0 0 -3.06 2.75 11 11 0 0 0 -1.25 5.09v14.94h-2.74a2.89 2.89 0 0 0 -2.83 2.93v25.64.38h-3.64v-26a7.42 7.42 0 0 1 .13-1.34h-18.51a6.62 6.62 0 0 1 .14 1.34v26h-3.69c0-.13 0-.25 0-.38v-25.64a2.89 2.89 0 0 0 -2.83-2.93h-2.69v-14.94a10.93 10.93 0 0 0 -1.26-5.09 9.66 9.66 0 0 0 -3.06-2.75 10.82 10.82 0 0 1 -5.16 1.55c2.51.9 4.6 2.27 5.12 3.11a7.7 7.7 0 0 1 .71 3.18v15.66a2.88 2.88 0 0 0 2.82 2.93h2.74v24.92a.4.4 0 0 1 -.18.38h-2.29a.41.41 0 0 1 -.18-.38v-18.77a2.71 2.71 0 0 0 -2.82-2.73h-11.86v-28.27a1.28 1.28 0 0 1 .37-.86 6.4 6.4 0 0 1 .77 0 11.19 11.19 0 0 1 -3.46-2.38 4.81 4.81 0 0 0 -1.33 3.28v50.15h-30.09v-11.21c4.72-1.14 8.21-6.63 8.21-13.45 0-7.67-4.41-13.68-10-13.68s-10 6-10 13.68c0 6.82 3.49 12.31 8.21 13.45v11.17h-10.76a1.84 1.84 0 1 0 0 3.65h121.7a1.84 1.84 0 1 0 0-3.65zm-115.57-24.58c0-5.44 2.92-10 6.38-10s6.39 4.59 6.39 10c0 4.45-2 8.33-4.56 9.59v-6.89a1.83 1.83 0 1 0 -3.65 0v6.85c-2.6-1.26-4.56-5.14-4.56-9.55zm41.95 24.62v-18.28h11v17.86.38h-3.7v-1.77a1.83 1.83 0 0 0 -3.65 0v1.77zm28.27-23.75h11v23.71h-11zm35.57 23.71v-1.77a1.83 1.83 0 0 0 -3.65 0v1.77h-3.77c0-.13 0-.25 0-.38v-17.86h11v18.24z"/><path d="m48.83 16.85a2.74 2.74 0 1 0 -2.74-2.74 2.74 2.74 0 0 0 2.74 2.74zm0-4.1a1.37 1.37 0 1 1 -1.37 1.36 1.37 1.37 0 0 1 1.37-1.36z"/><path d="m131.82 31.44a1.83 1.83 0 1 0 1.83 1.83 1.83 1.83 0 0 0 -1.83-1.83zm0 2.74a.92.92 0 1 1 .91-.91.91.91 0 0 1 -.91.91z"/><path d="m20.56 36.91a1.83 1.83 0 1 0 1.82 1.83 1.83 1.83 0 0 0 -1.82-1.83zm0 2.74a.91.91 0 1 1 .91-.91.91.91 0 0 1 -.91.91z"/><path d="m131.82 1.35a1.82 1.82 0 1 0 1.83 1.82 1.82 1.82 0 0 0 -1.83-1.82zm0 2.73a.91.91 0 1 1 .91-.91.91.91 0 0 1 -.91.91z"/><path d="m6 11.38a1.83 1.83 0 1 0 -1.86 1.82 1.83 1.83 0 0 0 1.86-1.82zm-2.74 0a.91.91 0 1 1 .91.91.91.91 0 0 1 -.94-.91z"/></g><path d="m77.63 2.27 1.36-1.79-.86-.48-.87 2h-.03l-.88-1.99-.87.5 1.34 1.74v.03l-2.1-.27v.97l2.11-.27v.03l-1.35 1.74.81.51.93-2.01h.03l.85 2 .9-.51-1.37-1.72v-.02l2.16.25v-.97l-2.16.29z" fill="#68bbab"/><path d="m26.74 2.32-.78 1 .47.3.53-1.16h.02l.49 1.15.52-.3-.79-.98v-.02l1.24.15v-.56l-1.24.16v-.01l.78-1.03-.49-.28-.5 1.15h-.02l-.51-1.14-.5.29.77 1v.02l-1.21-.16v.56l1.22-.16z" fill="#68bbab"/><path d="m149.15 22.97v-.95l-2.11.28v-.03l1.33-1.75-.84-.47-.86 1.96h-.03l-.86-1.95-.86.49 1.32 1.71v.03l-2.06-.27v.95l2.07-.26v.02l-1.33 1.71.8.51.91-1.98h.03l.84 1.96.88-.5-1.34-1.68v-.03z" fill="#68bbab"/><path d="m103.04 15.56 1.15-1.51-.73-.41-.73 1.69h-.03l-.75-1.68-.73.42 1.13 1.48v.02l-1.77-.23v.82l1.78-.22v.02l-1.14 1.47.69.44.78-1.71h.03l.72 1.69.76-.43-1.16-1.45v-.02l1.82.21v-.82l-1.82.24z" fill="#68bbab"/></svg>