<?xml version="1.0" encoding="utf-8"?>
<!-- Generator: Adobe Illustrator 23.0.4, SVG Export Plug-In . SVG Version: 6.00 Build 0)  -->
<svg version="1.1" id="Layer_1" xmlns="http://www.w3.org/2000/svg" xmlns:xlink="http://www.w3.org/1999/xlink" x="0px" y="0px"
	 viewBox="0 0 73.4 73.6" style="enable-background:new 0 0 73.4 73.6;" xml:space="preserve">
<style type="text/css">
	.st0{fill:#5DB9AE;}
</style>
<path class="st0" d="M36.7,1.9C17.4,1.9,1.8,17.5,1.8,36.8c0,19.3,15.7,34.9,34.9,34.9S71.6,56,71.6,36.8C71.6,17.5,56,1.9,36.7,1.9
	z M65.8,24.1h-12c-0.9-4.3-2.1-8.2-3.8-11.6c-1.2-2.4-2.6-4.5-4.1-6.1C54.8,9.1,62,15.6,65.8,24.1z M68.4,36.8
	c0,3.3-0.5,6.5-1.5,9.5H54.3c0.4-3.1,0.7-6.2,0.7-9.5c0-3.3-0.2-6.4-0.7-9.5H67C67.9,30.3,68.4,33.5,68.4,36.8z M5,36.8
	c0-3.3,0.5-6.5,1.5-9.5h12.7c-0.4,3.1-0.7,6.2-0.7,9.5c0,3.3,0.2,6.4,0.7,9.5H6.4C5.5,43.3,5,40.1,5,36.8z M21.7,36.8
	c0-3.3,0.3-6.5,0.7-9.5h12.7v19H22.4C21.9,43.3,21.7,40.1,21.7,36.8z M38.3,5.3c5.4,1.3,10,8.7,12.1,18.8H38.3V5.3z M35.1,5.3v18.8
	H23C25.1,14,29.7,6.5,35.1,5.3z M35.1,49.5v18.8c-5.4-1.3-10-8.7-12.1-18.8H35.1z M38.3,68.3V49.5h12.1C48.3,59.6,43.7,67,38.3,68.3
	z M38.3,46.3v-19H51c0.5,3,0.7,6.2,0.7,9.5c0,3.3-0.3,6.5-0.7,9.5H38.3z M27.6,6.4c-1.5,1.6-2.9,3.7-4.1,6.1
	c-1.7,3.4-3,7.3-3.8,11.6h-12C11.4,15.6,18.6,9.1,27.6,6.4z M7.7,49.5h12c0.9,4.3,2.1,8.2,3.8,11.6c1.2,2.4,2.6,4.5,4.1,6.1
	C18.6,64.5,11.4,57.9,7.7,49.5z M45.8,67.2c1.5-1.6,2.9-3.7,4.1-6.1c1.7-3.4,3-7.3,3.8-11.6h12C62,57.9,54.8,64.5,45.8,67.2z"/>
</svg>
