<svg viewBox="0 0 150 150" xmlns="http://www.w3.org/2000/svg"><g fill="#51b6a9"><path d="m50.08 58.41a2.69 2.69 0 0 0 3.81 0 2.72 2.72 0 0 0 0-3.81l-30.14-30.13a2.69 2.69 0 0 0 -3.81 0 2.7 2.7 0 0 0 0 3.8z"/><path d="m39.9 68.59a2.69 2.69 0 0 0 3.8-3.8l-30.13-30.14a2.7 2.7 0 0 0 -4.57 1.91 2.72 2.72 0 0 0 .79 1.9z"/><path d="m84.76 89.37c2.71-3.67 5.52-7.51 8.49-11.58a20.84 20.84 0 0 0 13.28 4.9 24.1 24.1 0 0 0 9.22-2c17.64-7.28 34.25-34.9 34.25-51 0-4.25-1.13-7.54-3.35-9.76s-5.76-3.52-10.19-3.52-9.84 1.24-15.77 3.69c-17.69 7.41-36.58 23.95-36.58 40.14a20.76 20.76 0 0 0 4.76 13.14c-4.57 3.33-8.87 6.47-12.87 9.46-4-3-8.26-6.07-12.77-9.36a21 21 0 0 0 3.48-7.24c2.52-9.39-1.15-19.9-10.07-28.82l-21.97-21.93a2.72 2.72 0 0 0 -3.81 0 2.69 2.69 0 0 0 0 3.81l21.93 21.93c7.53 7.52 10.69 16.13 8.69 23.62a15.92 15.92 0 0 1 -3.77 6.79 2.58 2.58 0 0 0 -.43.34 2.21 2.21 0 0 0 -.31.39 15.93 15.93 0 0 1 -6.81 3.78 17.42 17.42 0 0 1 -4.57.6c-6.33 0-13.1-3.29-19.07-9.25l-21.93-21.93a2.68 2.68 0 0 0 -3.8 0 2.68 2.68 0 0 0 0 3.8l21.93 21.93c7 7 15.1 10.83 22.86 10.83a23 23 0 0 0 6-.78 21.34 21.34 0 0 0 7.22-3.46c2.94 4 5.72 7.83 8.4 11.46-37.38 27.88-50.48 40.25-50.48 49.86a10.31 10.31 0 0 0 3.3 7.44 10.41 10.41 0 0 0 7.46 3.35q.4 0 .81 0c9.23-.75 21.61-14 47.71-48.78 27 36.08 39.09 48.78 48.55 48.78a11.33 11.33 0 0 0 10.76-11.6c-.73-9.4-14.38-22.03-50.55-49.03zm38-64.23c5.22-2.17 10-3.31 13.76-3.31 2.86 0 5.05.68 6.33 2 1.47 1.47 1.78 4.05 1.78 6 0 14.22-15.29 39.57-30.92 46-7.09 2.92-13.51 1.62-19-3.86-3.48-3.5-5.25-7.42-5.25-11.67.03-13.41 16.94-28.39 33.29-35.16zm-94.89 119.46a5 5 0 0 1 -4.08-1.75 5 5 0 0 1 -1.72-3.64c0-8.4 21.36-25.79 58.3-52.95-27.51 37.34-44.06 57.68-52.5 58.34zm100.32-1.7a5 5 0 0 1 -3.64 1.72c-7.57 0-22.46-17.38-45.23-47.88.73-1 1.49-2 2.25-3 31 23.13 47.78 37.46 48.38 45.12a5 5 0 0 1 -1.76 4.04z"/><path d="m98.24 63.21a11.78 11.78 0 0 0 .78 2c.26.53.52.91.68 1.18l.27.39s-.21-.63-.45-1.75a15.2 15.2 0 0 1 -.27-2 12.28 12.28 0 0 1 .09-2.54 12.86 12.86 0 0 1 .7-2.91 10.46 10.46 0 0 1 .62-1.49 14.53 14.53 0 0 1 .79-1.51 13.32 13.32 0 0 1 1-1.49c.34-.49.7-1 1.09-1.46a16 16 0 0 1 1.2-1.43c.41-.47.83-.94 1.29-1.38.87-.92 1.81-1.78 2.74-2.63s1.87-1.67 2.84-2.4c1.86-1.54 3.7-2.89 5.25-4.08l3.83-2.83c.93-.7 1.45-1.12 1.45-1.12s-.63.22-1.71.65-2.6 1.09-4.38 2c-.88.47-1.85 1-2.82 1.55s-2 1.2-3 1.94-2.09 1.49-3.11 2.33-2 1.75-3 2.73a34.26 34.26 0 0 0 -2.64 3.11 13.26 13.26 0 0 0 -1.12 1.68 15.42 15.42 0 0 0 -.94 1.74 11.41 11.41 0 0 0 -.75 1.78 13.17 13.17 0 0 0 -.5 1.78 12 12 0 0 0 -.3 3.36 10.06 10.06 0 0 0 .37 2.8z"/></g></svg>