<svg viewBox="0 0 150 150" xmlns="http://www.w3.org/2000/svg"><path d="m105.49 141.07h-7.41a1.79 1.79 0 0 0 0 3.57h7.41a1.79 1.79 0 0 0 0-3.57z" fill="#68bbab"/><path d="m51.92 141.07h-7.41a1.79 1.79 0 0 0 0 3.57h7.41a1.79 1.79 0 0 0 0-3.57z" fill="#68bbab"/><path d="m92.86 141.07h-35.72a1.79 1.79 0 0 0 0 3.57h14.23v1.79h-7.08a1.79 1.79 0 1 0 0 3.57h22.32a1.79 1.79 0 0 0 0-3.57h-8v-1.79h14.25a1.79 1.79 0 0 0 0-3.57z" fill="#68bbab"/><g fill="#334355"><path d="m116.18 48-14.08 22.36-4.27 13.48 22.33-35.44a1.83 1.83 0 0 0 .23-1.35 1.8 1.8 0 0 0 -.79-1.11l-8.13-5.12-1.12 3.52z"/><path d="m53.85 83.84-4.27-13.48-14.08-22.36 5.83-3.67-1.12-3.52-8.13 5.12a1.79 1.79 0 0 0 -.56 2.46z"/><path d="m55.76 80.08v-11.82l-10.61-33.47 10.61-3.36v-3.75l-13.39 4.24a1.8 1.8 0 0 0 -1.17 2.24z"/><path d="m109.31 31.92-12.31-3.92v3.75l9.5 3-9.5 30v11.84l13.45-42.43a1.8 1.8 0 0 0 -1.14-2.24z"/><path d="m60.5 94.74h31.79a1.78 1.78 0 0 0 1.78-1.74v-68a1.79 1.79 0 0 0 -1.78-1.79h-31.79a1.79 1.79 0 0 0 -1.78 1.79v68a1.78 1.78 0 0 0 1.78 1.74zm1.79-68h28.21v64.43h-28.21z"/><path d="m64.26 59a12.14 12.14 0 1 0 12.13-12.15 12.14 12.14 0 0 0 -12.13 12.15zm20.74 0a8.57 8.57 0 1 1 -8.57-8.56 8.57 8.57 0 0 1 8.57 8.56z"/></g><path d="m74.89 61.12c-1 0-1.43-.68-1.43-2.09a3.55 3.55 0 0 1 1.18-2.54.9.9 0 0 0 .36-.69.83.83 0 0 0 -.83-.82.84.84 0 0 0 -.44.13 4.45 4.45 0 0 0 -1.85 3.21h-.88a.72.72 0 0 0 -.73.71.73.73 0 0 0 .73.73h.86c.21 2.08 1.32 3.16 3 3.16 3.88 0 2.93-5.66 5-5.66.62 0 1.22.48 1.22 1.77a3.18 3.18 0 0 1 -.82 2.17 1 1 0 0 0 -.34.67.83.83 0 0 0 .82.84.93.93 0 0 0 .5-.16 4 4 0 0 0 1.39-2.79h.9a.73.73 0 0 0 .73-.73.72.72 0 0 0 -.73-.71h-.88c-.22-2-1.41-2.86-2.79-2.86-3.74 0-2.7 5.66-4.97 5.66z" fill="#68bbab"/><path d="m80.21 75.87h-7.36a1.79 1.79 0 1 0 0 3.57h7.36a1.79 1.79 0 1 0 0-3.57z" fill="#334355"/><path d="m87.12 75.87h-1.84a1.79 1.79 0 1 0 0 3.57h1.84a1.79 1.79 0 0 0 0-3.57z" fill="#68bbab"/><path d="m67.79 75.87h-1.85a1.79 1.79 0 0 0 0 3.57h1.85a1.79 1.79 0 0 0 0-3.57z" fill="#68bbab"/><path d="m72.85 42.18h7.36a1.79 1.79 0 1 0 0-3.57h-7.36a1.79 1.79 0 1 0 0 3.57z" fill="#334355"/><path d="m87.12 38.61h-1.84a1.79 1.79 0 1 0 0 3.57h1.84a1.79 1.79 0 0 0 0-3.57z" fill="#68bbab"/><path d="m65.94 42.18h1.85a1.79 1.79 0 0 0 0-3.57h-1.85a1.79 1.79 0 0 0 0 3.57z" fill="#68bbab"/><circle cx="124.11" cy="112.59" fill="#68bbab" r="1.79"/><circle cx="25.89" cy="112.59" fill="#68bbab" r="1.79"/><circle cx="1.79" cy="135.71" fill="#334355" r="1.79"/><path d="m9.82 133.93h-2.68a1.79 1.79 0 0 0 0 3.57h2.68a1.79 1.79 0 1 0 0-3.57z" fill="#334355"/><path d="m142.86 133.93h-2.68a1.79 1.79 0 1 0 0 3.57h2.68a1.79 1.79 0 0 0 0-3.57z" fill="#334355"/><circle cx="148.21" cy="135.71" fill="#334355" r="1.79"/><path d="m134.57 133.93h-2.43v-28.55a1.79 1.79 0 0 0 -1.78-1.79h-12.5a1.79 1.79 0 0 0 -1.79 1.79v.11c-2.53-2.88-5.92-8.42-6.11-17.59a1.65 1.65 0 0 0 0-.31c-.09-.47-1-4.57-4.18-5.31-2.38-.55-4.89 1-7.68 4.57a2.11 2.11 0 0 0 -.18.27 23.46 23.46 0 0 0 -1.23 15h-17a1.79 1.79 0 0 0 -1.27.53 8.86 8.86 0 0 0 -2.45 5.83 7.07 7.07 0 0 0 1.53 4.28 7.41 7.41 0 0 0 -.7 5.83 6.84 6.84 0 0 0 2.73 3.45 7.11 7.11 0 0 0 .44 4.6 7.93 7.93 0 0 0 2.87 3.25 2.88 2.88 0 0 0 -.05.78 5.78 5.78 0 0 0 1.44 3.25h-17.93a5.84 5.84 0 0 0 1.44-3.25 4 4 0 0 0 0-.78 8 8 0 0 0 2.87-3.25 7.11 7.11 0 0 0 .43-4.6 6.85 6.85 0 0 0 2.74-3.45 7.41 7.41 0 0 0 -.71-5.83 7 7 0 0 0 1.53-4.28 8.81 8.81 0 0 0 -2.45-5.83 1.77 1.77 0 0 0 -1.27-.53h-17a23.5 23.5 0 0 0 -1.24-15c-.05-.09-.11-.18-.17-.27-2.79-3.62-5.31-5.12-7.68-4.57-3.18.74-4.09 4.84-4.19 5.31a1.63 1.63 0 0 0 0 .31c-.21 9.73-4 15.37-6.56 18.08v-1.5a1.79 1.79 0 0 0 -1.79-1.78h-12.61a1.78 1.78 0 0 0 -1.78 1.78v29.45h-2.43a1.8 1.8 0 1 0 0 3.57h119.14a1.8 1.8 0 1 0 0-3.57zm-6-26.77v26.77h-8.93v-26.77zm-42 24h2.65a1.79 1.79 0 1 0 0-3.57h-3.22l-.2-.11a5.18 5.18 0 0 1 -2.68-2.34 3.63 3.63 0 0 1 -.21-2.09h6.42a1.79 1.79 0 0 0 0-3.57h-7.18a3.82 3.82 0 0 1 -2-2 4 4 0 0 1 .53-3.13h8.52a1.79 1.79 0 1 0 0-3.57h-8.81a3.9 3.9 0 0 1 0-5.06h18.61a1.77 1.77 0 0 0 1.44-.73 1.74 1.74 0 0 0 .26-1.59 21.1 21.1 0 0 1 .32-14.5c2.59-3.31 3.79-3.15 3.92-3.12.63.14 1.24 1.46 1.47 2.4.35 13.69 7.24 20.33 9.68 22.26v19.36c-1.76 1.48-5.62 4.1-9.16 4.13h-17.56a12.43 12.43 0 0 1 -2.83-2.77zm-52.2-20.74c2.44-1.93 9.34-8.57 9.68-22.26.23-.94.85-2.26 1.47-2.4.13 0 1.33-.19 3.92 3.12a21 21 0 0 1 .32 14.5 1.78 1.78 0 0 0 1.71 2.32h18.53a5 5 0 0 1 1 2.76 3.63 3.63 0 0 1 -.92 2.3h-7.94a1.79 1.79 0 1 0 0 3.57h7.67a4.13 4.13 0 0 1 .54 3.11 3.71 3.71 0 0 1 -1.93 2h-6.6a1.79 1.79 0 1 0 0 3.57h5.7a3.51 3.51 0 0 1 -.2 2.15 5.17 5.17 0 0 1 -2.66 2.34h-3.13a1.79 1.79 0 0 0 0 3.57h2.47a11.8 11.8 0 0 1 -2.89 2.88h-17.57c-3.83 0-7.74-3-9.17-4.14zm-12.94-4.15h8.93v27.66h-8.93z" fill="#334355"/></svg>