<svg viewBox="0 0 150 150" xmlns="http://www.w3.org/2000/svg"><path d="m89 48.79a2.78 2.78 0 0 0 .52-.2 2.62 2.62 0 0 0 1.33-2.85v-.31c-.45-4.68-1.32-15.61-15.85-14.91-6.23.31-9.33 1.49-10.06 3.83a3 3 0 0 0 -.14 1 4 4 0 0 0 -.94.4c-1.46.85-2.26 2.51-2.37 4.91-.18 1.71-.3 5.57 1.78 7v.36c0 8.22 2.24 13.38 6.68 15.63l-.58 2.77-3.49 1-.26-3.42a1.82 1.82 0 0 0 -1.31-1.62l-11.31-3.19-.59-2.9c3.08-1.67 5-4.8 5.92-9.45a15 15 0 0 1 -.65-5.46c0-.37 0-.73.08-1.07s0-.42.06-.63a9.58 9.58 0 0 1 2.33-5.68c-1.02-5-4.15-11.29-15.29-10.75-6.23.3-9.33 1.48-10.06 3.82a3.3 3.3 0 0 0 -.14 1 4 4 0 0 0 -.93.4c-1.47.86-2.27 2.51-2.38 4.91-.17 1.72-.3 5.57 1.78 7v.36c0 8.22 2.23 13.38 6.67 15.63l-.57 2.78-11.31 3.2a1.83 1.83 0 0 0 -1.31 1.65l-.61 15.14h3.59l.54-13.68 8.27-2.32.29-.08c.15.66.28 1.41.4 2.21.58 3.79.93 9 1.15 13.81h2.37c.39-.35.77-.67 1.18-1a116.84 116.84 0 0 0 -1.58-15.66l1-4.88a17.37 17.37 0 0 0 2.77.22 16.76 16.76 0 0 0 3-.26l1 4.82a78.48 78.48 0 0 0 -1.74 13 27.19 27.19 0 0 1 3.76-1.52 81.68 81.68 0 0 1 1-8.46c.14-.8.3-1.57.49-2.3l.33.09 8.3 2.33.18 3-4.3 1.18a1.81 1.81 0 0 0 -1.31 1.61l-.07 1.23c2.14-.58 4.46-1.16 5.81-1.42h.17l.5-.08c.35 0 .73-.06 1.14-.06s1.1 0 1.79.11h.28l2.19-.61.33-.08c.09.34.17.71.25 1.08.9.15 1.82.32 2.68.51l1.13.26c-.16-.92-.35-1.79-.56-2.62l1-4.77a17.37 17.37 0 0 0 2.77.2 16 16 0 0 0 3-.26l.9 4.56a.05.05 0 0 0 0 0l.3-.11a7.88 7.88 0 0 1 3.26-.41c.31 0 .65.08 1 .14.67.12 1.34.28 2 .46.47.12 1 .26 1.44.4l.42.14c.51.16 1 .34 1.55.53l1 .36c1.57.6 3.17 1.28 4.83 2.09l-.09-1.67a1.8 1.8 0 0 0 -1.31-1.61l-4.27-1.2.18-3 8.29-2.33.33-.09c.19.73.35 1.5.51 2.3a89.44 89.44 0 0 1 1.13 10c.13.07.27.13.4.21 1.09.6 2.2 1.25 3.31 1.91a87.52 87.52 0 0 0 -1.84-15.22l1-4.77a17.25 17.25 0 0 0 2.76.22 16.7 16.7 0 0 0 3-.25l1 4.93c-.91 4.32-1.4 11.37-1.66 17.47h3.59c.21-5 .58-10.6 1.19-14.6.12-.8.25-1.55.4-2.21l.29.08 8.27 2.32.57 14.33h1.73a6.35 6.35 0 0 1 1.87.39l-.64-16.11a1.79 1.79 0 0 0 -1.31-1.66l-11.3-3.16-.59-2.89c4.15-2.23 6.27-7.12 6.43-14.77a2.58 2.58 0 0 0 .53-.19 2.66 2.66 0 0 0 1.33-2.86v-.31c-.37-4.67-1.23-15.6-15.81-14.9-6.23.3-9.33 1.48-10.06 3.82a3 3 0 0 0 -.15 1 4.14 4.14 0 0 0 -.93.4c-1.46.86-2.26 2.51-2.37 4.91 0 .25 0 .53-.07.85a18.84 18.84 0 0 1 2 4.71l.15.56.09.34.12.55.07.32a35.72 35.72 0 0 1 .57 4.45v.31a7.48 7.48 0 0 1 -.32 2.92q1.51 5.88 5.81 8l-.57 2.78-11.3 3.16a1.81 1.81 0 0 0 -1.32 1.66l-.21 3.48-3.48-1-.6-2.91c4.14-2.25 6.26-7.13 6.48-14.78zm-53.87-11.51a10.58 10.58 0 0 1 -.21-3.61.41.41 0 0 0 0-.11c0-1.26.36-1.88.6-2a2 2 0 0 1 1.4.16 1.79 1.79 0 0 0 1.91-3 2.55 2.55 0 0 1 -.52-.58c.39-.28 1.89-1 6.72-1.28 10.09-.55 11.5 5.49 11.97 10.23-.9-.7-1.95-1.63-2.58-2.19-2.12-1.87-3.18-2.81-4.52-1.8a1.85 1.85 0 0 0 -.67 2 8.43 8.43 0 0 1 -4.45-2.36c-.87-1-1.84-1.94-3.15-1.81s-2 1.13-2.61 2.12a14.61 14.61 0 0 1 -3 3.59 5.17 5.17 0 0 1 -.89.64zm10.87 16.87c-3 0-9.24 0-9.29-13.41 0-.09 0-.18 0-.27a8 8 0 0 0 1.57-1 18 18 0 0 0 3.72-4.39l.08.09c2.36 2.64 7.47 4.59 9.84 3a3.12 3.12 0 0 0 .41-.33c1.1 1 2.07 1.79 2.94 2.42v.47c-.03 13.42-6.27 13.42-9.27 13.42zm49.33-16.87a10.1 10.1 0 0 1 -.21-3.61s0-.07 0-.11c.05-1.26.36-1.88.6-2a2 2 0 0 1 1.4.16 1.79 1.79 0 0 0 1.91-3 2.61 2.61 0 0 1 -.53-.58c.4-.28 1.9-1 6.73-1.28 10.08-.51 11.48 5.53 11.94 10.27-.9-.7-2-1.63-2.59-2.19-2.11-1.87-3.17-2.81-4.52-1.8a1.85 1.85 0 0 0 -.67 2 8.46 8.46 0 0 1 -4.39-2.35c-.87-1-1.84-1.94-3.14-1.81s-2 1.13-2.61 2.12a14.47 14.47 0 0 1 -3 3.59 5.21 5.21 0 0 1 -.92.59zm1.58 3.46a2.44 2.44 0 0 1 0-.27 8.58 8.58 0 0 0 1.57-1 18.18 18.18 0 0 0 3.7-4.34l.09.09c2.36 2.64 7.47 4.59 9.83 3a2.65 2.65 0 0 0 .42-.33c1.1 1 2.07 1.78 2.94 2.41v.48c0 13.4-6.29 13.4-9.29 13.4s-9.17-.03-9.26-13.44zm-31.68 3.82a10.33 10.33 0 0 1 -.23-3.56.45.45 0 0 0 0-.11c0-1.27.36-1.89.6-2a2 2 0 0 1 1.4.11 1.79 1.79 0 0 0 1.91-3 2.87 2.87 0 0 1 -.53-.58c.4-.28 1.9-1 6.73-1.28 10.09-.52 11.49 5.53 11.94 10.26-.9-.69-2-1.62-2.59-2.18-2.11-1.87-3.17-2.81-4.52-1.8a1.83 1.83 0 0 0 -.66 2 8.36 8.36 0 0 1 -4.46-2.35c-.87-1-1.83-1.94-3.14-1.81s-2 1.13-2.61 2.12a14.42 14.42 0 0 1 -3 3.58 4.79 4.79 0 0 1 -.84.6zm10.87 16.86c-3 0-9.24 0-9.29-13.4 0-.09 0-.18 0-.27a7.89 7.89 0 0 0 1.57-1.06 17.75 17.75 0 0 0 3.7-4.33l.09.09c2.36 2.64 7.47 4.59 9.84 3a3.21 3.21 0 0 0 .41-.34c1.1 1 2.07 1.79 2.94 2.42v.48c-.02 13.41-6.27 13.41-9.26 13.41z" fill="#2e4456"/><ellipse cx="32.21" cy="94.84" fill="#68bbab" rx="1.79" ry="1.79"/><ellipse cx="117.74" cy="106.77" fill="#68bbab" rx="1.79" ry="1.79"/><g fill="#2e4456"><path d="m57.41 17.86a2.68 2.68 0 1 0 -2.67-2.68 2.68 2.68 0 0 0 2.67 2.68zm0-4a1.34 1.34 0 1 1 -1.33 1.34 1.34 1.34 0 0 1 1.33-1.36z"/><path d="m141.34 61.61a1.79 1.79 0 1 0 1.79 1.78 1.78 1.78 0 0 0 -1.79-1.78zm0 2.68a.9.9 0 1 1 .9-.9.89.89 0 0 1 -.9.9z"/><path d="m81.52 22.32a1.79 1.79 0 1 0 1.79 1.79 1.79 1.79 0 0 0 -1.79-1.79zm0 2.68a.9.9 0 1 1 .89-.89.89.89 0 0 1 -.89.89z"/><path d="m128 33.93a1.79 1.79 0 1 0 1.79 1.78 1.79 1.79 0 0 0 -1.79-1.78zm0 2.68a.9.9 0 1 1 .89-.9.89.89 0 0 1 -.89.9z"/><path d="m17.24 50.89a1.79 1.79 0 1 0 -1.79 1.79 1.79 1.79 0 0 0 1.79-1.79zm-2.68 0a.89.89 0 1 1 .89.9.89.89 0 0 1 -.89-.9z"/></g><path d="m6.15 23.22 1.33-1.74-.84-.48-.85 1.96h-.03l-.87-1.94-.85.49 1.31 1.7v.03l-2.05-.27v.95l2.07-.26v.03l-1.33 1.7.8.5.91-1.97h.02l.84 1.96.88-.5-1.34-1.68v-.03l2.11.25v-.95l-2.11.28z" fill="#68bbab"/><path d="m27.75 6.31-.76.98.46.29.52-1.13h.01l.49 1.12.5-.29-.77-.96v-.02l1.22.15v-.55l-1.22.16v-.02l.77-1-.49-.28-.49 1.13h-.01l-.5-1.12-.49.28.75.99v.01l-1.18-.15v.55l1.19-.16z" fill="#68bbab"/><path d="m144.02 9.57v-.94l-2.07.28v-.03l1.31-1.71-.83-.47-.83 1.92h-.03l-.85-1.91-.84.49 1.29 1.67v.02l-2.01-.26v.94l2.03-.26v.02l-1.31 1.67.78.5.9-1.93h.02l.83 1.91.86-.49-1.32-1.64v-.03z" fill="#68bbab"/><path d="m109.6 5.88 1.12-1.48-.71-.4-.72 1.66h-.02l-.74-1.65-.72.42 1.11 1.44v.02l-1.73-.22v.8l1.74-.22v.02l-1.12 1.44.67.43.77-1.67h.03l.71 1.66.74-.43-1.13-1.42v-.02l1.78.21v-.8l-1.78.23z" fill="#68bbab"/><circle cx="1.79" cy="135.71" fill="#2e4456" r="1.79"/><path d="m9.82 133.93h-2.68a1.79 1.79 0 0 0 0 3.57h2.68a1.79 1.79 0 1 0 0-3.57z" fill="#2e4456"/><path d="m142.86 133.93h-2.68a1.79 1.79 0 1 0 0 3.57h2.68a1.79 1.79 0 0 0 0-3.57z" fill="#2e4456"/><circle cx="148.21" cy="135.71" fill="#2e4456" r="1.79"/><path d="m105.49 141.07h-7.41a1.79 1.79 0 0 0 0 3.57h7.41a1.79 1.79 0 0 0 0-3.57z" fill="#68bbab"/><path d="m51.92 141.07h-7.41a1.79 1.79 0 0 0 0 3.57h7.41a1.79 1.79 0 0 0 0-3.57z" fill="#68bbab"/><path d="m92.86 141.07h-35.72a1.79 1.79 0 0 0 0 3.57h14.24v1.79h-7.09a1.79 1.79 0 1 0 0 3.57h22.32a1.79 1.79 0 0 0 0-3.57h-8v-1.79h14.25a1.79 1.79 0 0 0 0-3.57z" fill="#68bbab"/><path d="m134.57 133.93h-51.47c.17-.12.33-.25.49-.38a6.05 6.05 0 0 0 6-3.1 6.52 6.52 0 0 0 6.85-2.75c5.82-.69 6.66-4.37 7-5.8.71-.62 1.58-1.47 2.35-2.24l.88-.86q8.48.12 17 .21h.13a5.3 5.3 0 0 0 .69 0 2.44 2.44 0 0 0 2.24-2.11c0-.2.09-30.84 0-31.22a2.47 2.47 0 0 0 -2.36-2.31h-2c-3.38 0-13.12.1-15.32.07-2.64-1.71-5.27-3.3-7.84-4.71a75.2 75.2 0 0 0 -9.55-4.57 31.86 31.86 0 0 0 -5.78-1.69l-.51-.07a4.25 4.25 0 0 0 -1.9.2h-.12c-.19.07-5.09 2.11-6.5 2.82l-1.26.64c-2.59-.86-8.3-1.79-10.07-1.59s-8.52 2.17-9.91 2.53a21.07 21.07 0 0 0 -9.51 5.56c-2.55.06-12.08.12-18.16.13a2.51 2.51 0 0 0 -2.68 2.67l-.05 30.43a2.67 2.67 0 0 0 .75 2 2.74 2.74 0 0 0 2 .72c.8 0 10.6-.1 16.18-.13a5.62 5.62 0 0 0 -1 3.75 7.19 7.19 0 0 0 6.6 6 3.54 3.54 0 0 0 .65 0 6.42 6.42 0 0 0 5.61 4.02 4.86 4.86 0 0 0 2.59-.72 7.31 7.31 0 0 0 2.31 2.5h-43.47a1.8 1.8 0 1 0 0 3.57h119.14a1.8 1.8 0 1 0 0-3.57zm-61.57-1.35c-.39.38-1.07 1-1.44 1.34a5.93 5.93 0 0 1 -3.14-.79 2.46 2.46 0 0 1 -.49-.61l11.43-14.19h.4.53a2.56 2.56 0 0 1 1.73 1.21 2.59 2.59 0 0 1 .3 2.14 4.73 4.73 0 0 1 -1 1.57c-4.07 4.83-7.9 8.95-8.32 9.33zm8.09-1.64a2.75 2.75 0 0 1 -2.22.61c.63-.7 1.36-1.53 2.18-2.48.06.72.07 1.39.07 1.87zm-3.92-15.6-12.49 15.54a7.53 7.53 0 0 1 -2.07.72 3.82 3.82 0 0 1 -3.13-2.32s0-.09-.13-.22 13.65-17.06 13.8-17.24a2.28 2.28 0 0 1 1.85-.82 3.38 3.38 0 0 1 2.6 1.33c.59.67-.07 2.46-.4 3.01zm7.5 14.6c0-1.05-.08-2.34-.13-3.46 0-.49 0-1-.06-1.4a7.56 7.56 0 0 0 1.26-2.3 6.24 6.24 0 0 0 -4.57-7.89 5.85 5.85 0 0 0 -.16-3.71c2 2.12 4 4.23 4.66 5a75.86 75.86 0 0 1 .9 11.19v1a2.15 2.15 0 0 1 -1.87 1.57zm-50.67-15.13v-14.92a5.3 5.3 0 0 1 -1.79.31 5.36 5.36 0 0 1 -1.8-.31v15l-3.59.06.05-28.63h3.58v3.49a5.2 5.2 0 0 1 1.78-.31 5.13 5.13 0 0 1 1.8.32v-3.54c11.57 0 11.67-.13 12.22-.74a17.37 17.37 0 0 1 8.35-5.07c3.84-1.08 8.44-2.3 9.4-2.42a29.2 29.2 0 0 1 5.21.63l-3.31 1.9a2.89 2.89 0 0 0 -1.36 1.61c-.47 1.35-1 2.7-1.44 4-.77 2.16-1.54 4.33-2.3 6.49 0 0-1.5 4.88-1.18 6.35a4.28 4.28 0 0 0 3 3.24 7.73 7.73 0 0 0 2.7.48 9.17 9.17 0 0 0 4.62-1.34 17.85 17.85 0 0 0 4.72-4.16 34.86 34.86 0 0 0 4.76-7.54l5.11 1.29a1.79 1.79 0 1 0 .92-3.45c-1.36-.37-2.72-.7-4.08-1-.77-.19-1.53-.36-2.28-.56a2.07 2.07 0 0 0 -2.49 1.24 31.78 31.78 0 0 1 -4.72 7.77 14.23 14.23 0 0 1 -3.78 3.35 4.82 4.82 0 0 1 -4.31.59c-.48-.17-.59-.34-.65-.5a30 30 0 0 1 1-4.53q1.14-3.26 2.29-6.48c.47-1.29.92-2.57 1.38-3.86 1.73-1 11.67-6.46 12.71-6.88a7.56 7.56 0 0 1 2.75-.69 27.67 27.67 0 0 1 5.13 1.5 72.11 72.11 0 0 1 9.1 4.35c2.63 1.46 5.33 3.08 8 4.86.47.31.55.35 10.48.28v14.71a5.19 5.19 0 0 1 1.73-.29 5.47 5.47 0 0 1 1.86.33c0-6 0-12.16 0-14.77h3.59v28.48h-3.6c0-.89 0-2.11 0-3.57a5.3 5.3 0 0 1 -1.83.33 5.63 5.63 0 0 1 -1.75-.29v3.48l-9.9-.12c-.84 0-1.14.27-2.73 1.85 0-1.23-.11-2.61-.16-3.92-.21-5-.31-7.35-.32-7.61-.07-.8-.08-1-11.36-12.45a1.79 1.79 0 1 0 -2.51 2.43c1.44 1.48 8.69 8.94 10.36 10.77.06 1.24.62 14.66.63 14.81s0 0 0 0a3.21 3.21 0 0 1 -2.84 2.84c-.14-2-.92-13.31-.93-13.49-.06-.85-.06-.85-10.08-10.69l-1.49-1.46a1.8 1.8 0 0 0 -2.53 0 1.78 1.78 0 0 0 0 2.53c.09.09 9.15 9 10.59 10.51.06.78.94 13.56 1 14.14-.33.62-1.12 1.84-3.49 1.45a74.63 74.63 0 0 0 -1-11.68c0-.67-.31-1-3.88-4.79-1.4-1.48-4-4.23-5.87-5.9a1.79 1.79 0 1 0 -2.47 2.56l1.09 1a7 7 0 0 0 -2.94-.76 5.77 5.77 0 0 0 -4.64 2l-.29.33a6.57 6.57 0 0 0 -4.22-2.41 6.43 6.43 0 0 0 -5.18 1.42c-.16.14-.19.16-4.67 5.1l-.13.14-.05-.07a5.75 5.75 0 0 0 -5.89-2.49c-.37.06-.74.12-4.41 3.41-1.51-.12-4.67-.13-11.67-.04zm14.34 9.82h-.07-.1a3.64 3.64 0 0 1 -3.44-3 3.59 3.59 0 0 1 .66-1.59c.44-.4 1-.91 1.6-1.44a2.86 2.86 0 0 0 .41-.37c1.46-1.31 3-2.7 3.72-3.26a2.2 2.2 0 0 1 2 1.09 2.56 2.56 0 0 1 .44 1.16zm7.49 3.11a7 7 0 0 1 -1.62.81 2.92 2.92 0 0 1 -2.64-2.27l6.06-8.63c.32-.36 5.18-5.72 5.62-6.19a2.8 2.8 0 0 1 2.27-.61 3 3 0 0 1 2.21 1.46 1.82 1.82 0 0 1 .11.28z" fill="#2e4456"/></svg>