<svg viewBox="0 0 150 150" xmlns="http://www.w3.org/2000/svg"><path d="m14.51 50.27a2.68 2.68 0 1 0 -2.68-2.68 2.69 2.69 0 0 0 2.68 2.68zm0-4a1.34 1.34 0 1 1 -1.34 1.34 1.34 1.34 0 0 1 1.34-1.36z" fill="#2e4456"/><path d="m141.34 91.52a1.79 1.79 0 1 0 1.79 1.78 1.78 1.78 0 0 0 -1.79-1.78zm0 2.68a.9.9 0 1 1 .9-.9.89.89 0 0 1 -.9.9z" fill="#2e4456"/><path d="m87.77 65.63a1.79 1.79 0 1 0 1.79 1.78 1.78 1.78 0 0 0 -1.79-1.78zm0 2.67a.89.89 0 1 1 .89-.89.89.89 0 0 1 -.89.89z" fill="#2e4456"/><path d="m133.8 44.46a1.79 1.79 0 1 0 1.79 1.79 1.79 1.79 0 0 0 -1.79-1.79zm0 2.68a.89.89 0 1 1 .89-.89.89.89 0 0 1 -.89.89z" fill="#2e4456"/><path d="m57.14 53.49a1.79 1.79 0 1 0 -1.78 1.79 1.78 1.78 0 0 0 1.78-1.79zm-2.68 0a.9.9 0 1 1 .9.9.89.89 0 0 1 -.9-.9z" fill="#2e4456"/><g fill="#68bbab"><path d="m9.72 91.53 1.33-1.75-.84-.47-.85 1.95h-.03l-.87-1.94-.85.49 1.32 1.7v.03l-2.06-.26v.95l2.07-.27v.03l-1.33 1.7.8.51.91-1.97h.02l.84 1.95.88-.5-1.34-1.68v-.03l2.11.26v-.95l-2.11.28z"/><path d="m73.07 36.16-.77.98.46.29.52-1.13h.02l.48 1.12.51-.29-.77-.96v-.02l1.21.15v-.55l-1.21.16v-.01l.76-1.01-.48-.27-.49 1.12h-.02l-.5-1.12-.49.29.76.98v.01l-1.18-.15v.55l1.19-.16z"/><path d="m30.66 68.44-.77.98.46.29.52-1.13h.02l.48 1.12.51-.29-.77-.96v-.02l1.21.15v-.55l-1.21.16v-.02l.76-1-.48-.27-.49 1.12h-.02l-.5-1.12-.49.29.76.98v.01l-1.19-.15v.55l1.2-.16z"/><path d="m138.66 72.51v-.93l-2.06.27v-.02l1.3-1.72-.82-.46-.84 1.92h-.03l-.85-1.91-.83.48 1.28 1.67v.03l-2.01-.26v.93l2.03-.26v.03l-1.3 1.67.78.49.89-1.93h.03l.82 1.92.86-.49-1.31-1.65v-.02z"/><path d="m104.24 47.4 1.12-1.48-.71-.4-.72 1.65h-.02l-.73-1.64-.73.41 1.12 1.45v.02l-1.74-.22v.8l1.75-.22v.02l-1.13 1.44.68.43.77-1.67h.02l.71 1.65.74-.42-1.13-1.42v-.02l1.78.21v-.8l-1.78.23z"/><path d="m105.49 141.07h-7.41a1.79 1.79 0 0 0 0 3.57h7.41a1.79 1.79 0 0 0 0-3.57z"/><path d="m51.92 141.07h-7.41a1.79 1.79 0 0 0 0 3.57h7.41a1.79 1.79 0 0 0 0-3.57z"/><path d="m92.86 141.07h-35.72a1.79 1.79 0 0 0 0 3.57h14.24v1.79h-7.09a1.79 1.79 0 1 0 0 3.57h22.32a1.79 1.79 0 0 0 0-3.57h-8v-1.79h14.25a1.79 1.79 0 0 0 0-3.57z"/><circle cx="35.71" cy="115.63" r="1.79"/></g><path d="m37.9 103.73v-5.81h3.43a.66.66 0 0 0 .76-.74v-1.5a.66.66 0 0 0 -.76-.74h-3.43v-3.58h4.1c.51 0 .76-.24.76-.73v-1.5a.66.66 0 0 0 -.76-.74h-4.25a2.85 2.85 0 0 0 -2.07.84 2.69 2.69 0 0 0 -.86 2v12.5c0 .49.25.73.76.73h1.56c.51 0 .76-.24.76-.73z" fill="#2e4456"/><path d="m45.78 104.46a.68.68 0 0 0 .75-.59l.62-3h3.21l.62 3a.67.67 0 0 0 .75.59h1.58a.72.72 0 0 0 .58-.26.69.69 0 0 0 .16-.62l-3.05-14.58a.69.69 0 0 0 -.75-.6h-3.03a.68.68 0 0 0 -.74.6l-3 14.59a.66.66 0 0 0 .16.62.71.71 0 0 0 .59.26zm3-11.35 1 4.81h-2z" fill="#68bbab"/><path d="m59.62 104.46c.51 0 .76-.24.76-.73v-7.73l3.17 8a.67.67 0 0 0 .71.46h2c.51 0 .75-.24.75-.72v-14.61a.66.66 0 0 0 -.76-.74h-1.51a.66.66 0 0 0 -.76.74v7.69l-3.17-8a.72.72 0 0 0 -.71-.47h-2a.66.66 0 0 0 -.76.74v14.6c0 .49.25.73.76.73z" fill="#2e4456"/><path d="m72.55 104.46a.65.65 0 0 0 .75-.73v-4.73h3.09a3 3 0 0 0 2.16-.89 2.81 2.81 0 0 0 .94-2.11v-4.63a2.82 2.82 0 0 0 -.94-2.08 3 3 0 0 0 -2.15-.9h-5.4a.66.66 0 0 0 -.76.74v14.6c0 .49.25.73.76.73zm.75-13.1h3.12v4.64h-3.12z" fill="#68bbab"/><path d="m83.32 104.46a.69.69 0 0 0 .76-.59l.61-3h3.21l.62 3a.67.67 0 0 0 .75.59h1.58a.71.71 0 0 0 .58-.26.69.69 0 0 0 .16-.62l-3.01-14.58a.69.69 0 0 0 -.75-.6h-3.07a.68.68 0 0 0 -.76.6l-3 14.59a.66.66 0 0 0 .16.62.7.7 0 0 0 .59.26zm3-11.35 1 4.81h-2z" fill="#2e4456"/><path d="m101.66 92.6h1.55a.66.66 0 0 0 .75-.73v-.51a2.8 2.8 0 0 0 -.93-2.07 3 3 0 0 0 -2.16-.9h-3.28a3 3 0 0 0 -2.15.9 2.78 2.78 0 0 0 -.94 2.07v10.16a2.76 2.76 0 0 0 .92 2.06 3 3 0 0 0 2.14.88h3.31a3.07 3.07 0 0 0 2.16-.88 2.78 2.78 0 0 0 .93-2.08v-5.82a.66.66 0 0 0 -.75-.74h-3.66a.66.66 0 0 0 -.75.74v1.5a.66.66 0 0 0 .75.74h1.35v3.58h-3.32v-10.14h3.32v.51c0 .48.25.73.76.73z" fill="#68bbab"/><path d="m114.35 91.36c.51 0 .76-.24.76-.73v-1.5a.66.66 0 0 0 -.76-.74h-6.42a.67.67 0 0 0 -.76.74v12.51a2.7 2.7 0 0 0 .86 2 2.86 2.86 0 0 0 2.06.82h4.33c.51 0 .76-.24.76-.73v-1.5c0-.49-.25-.73-.76-.73h-4.18v-3.58h3.44a.66.66 0 0 0 .76-.74v-1.5a.66.66 0 0 0 -.76-.74h-3.44v-3.58z" fill="#2e4456"/><path d="m23.21 117.41h5.36a1.79 1.79 0 1 0 0-3.57h-5.36a1.79 1.79 0 0 1 -1.78-1.79v-31.25a1.78 1.78 0 0 1 1.78-1.8h103.58a1.78 1.78 0 0 1 1.78 1.78v31.25a1.79 1.79 0 0 1 -1.78 1.79h-.79a5.3 5.3 0 0 1 1.18 3.23 1.72 1.72 0 0 1 0 .32 5.36 5.36 0 0 0 4.95-5.34v-31.23a5.36 5.36 0 0 0 -5.35-5.35h-103.57a5.36 5.36 0 0 0 -5.35 5.35v31.25a5.36 5.36 0 0 0 5.35 5.36z" fill="#2e4456"/><path d="m42.86 117.41h52.44l-.85-3.57h-51.59a1.79 1.79 0 1 0 0 3.57z" fill="#2e4456"/><circle cx="1.79" cy="135.71" fill="#2e4456" r="1.79"/><path d="m9.82 133.93h-2.68a1.79 1.79 0 0 0 0 3.57h2.68a1.79 1.79 0 1 0 0-3.57z" fill="#2e4456"/><path d="m142.86 133.93h-2.68a1.79 1.79 0 1 0 0 3.57h2.68a1.79 1.79 0 0 0 0-3.57z" fill="#2e4456"/><circle cx="148.21" cy="135.71" fill="#2e4456" r="1.79"/><path d="m134.57 133.93h-11.85l2.53-2.11a1.79 1.79 0 0 0 .64-1.28 1.75 1.75 0 0 0 -.51-1.34l-8.26-8.45 5.33-1.88a1.79 1.79 0 0 0 -.07-3.39l-22.75-6.92a1.79 1.79 0 0 0 -2.26 2.12l5.16 21.6a1.79 1.79 0 0 0 3.3.44l2.69-4.92 6 6.13h-99.09a1.8 1.8 0 1 0 0 3.57h119.14a1.8 1.8 0 1 0 0-3.57zm-26.47-10.93a1 1 0 0 0 -.24 0 1.75 1.75 0 0 0 -1.32.91l-1.62 3-3.35-14.05 14.57 4.43-2.85 1a1.79 1.79 0 0 0 -.68 2.93l8.87 9.06-3 2.53-9.07-9.26a1.78 1.78 0 0 0 -1.31-.55z" fill="#2e4456"/></svg>