<svg viewBox="0 0 150 150" xmlns="http://www.w3.org/2000/svg"><path d="m100.11 17.39a2.68 2.68 0 1 0 -2.68-2.67 2.68 2.68 0 0 0 2.68 2.67zm0-4a1.34 1.34 0 1 1 -1.34 1.34 1.34 1.34 0 0 1 1.34-1.35z" fill="#2e4456"/><path d="m65.18 10.25a1.79 1.79 0 1 0 1.82 1.75 1.79 1.79 0 0 0 -1.82-1.75zm0 2.68a.9.9 0 1 1 .89-.89.89.89 0 0 1 -.89.89z" fill="#2e4456"/><path d="m67.24 41.51a1.79 1.79 0 1 0 1.76 1.79 1.79 1.79 0 0 0 -1.76-1.79zm0 2.68a.9.9 0 1 1 .89-.89.89.89 0 0 1 -.89.89z" fill="#2e4456"/><path d="m122.62 25a1.79 1.79 0 1 0 1.78 1.79 1.79 1.79 0 0 0 -1.78-1.79zm0 2.68a.9.9 0 1 1 .89-.89.89.89 0 0 1 -.89.89z" fill="#2e4456"/><path d="m42 35.71a1.79 1.79 0 1 0 -1.79 1.79 1.79 1.79 0 0 0 1.79-1.79zm-2.68 0a.9.9 0 1 1 .89.9.89.89 0 0 1 -.93-.9z" fill="#2e4456"/><path d="m9.72 63.4 1.33-1.74-.84-.48-.85 1.96h-.03l-.87-1.94-.85.49 1.32 1.7v.03l-2.06-.27v.95l2.07-.26v.02l-1.33 1.71.8.5.91-1.97h.02l.84 1.96.88-.51-1.34-1.67v-.03l2.11.25v-.95l-2.11.28z" fill="#68bbab"/><path d="m19.05 17.53-.77.98.46.29.53-1.13h.01l.48 1.12.51-.29-.77-.96v-.02l1.21.15v-.55l-1.21.16v-.01l.76-1.01-.48-.27-.49 1.12h-.02l-.5-1.12-.49.29.76.98v.01l-1.18-.15v.55l1.19-.15z" fill="#68bbab"/><path d="m140.82 57.81v-.93l-2.06.28v-.03l1.3-1.72-.82-.46-.84 1.92h-.03l-.85-1.91-.83.48 1.29 1.67v.03l-2.02-.26v.93l2.03-.26v.03l-1.3 1.67.78.49.89-1.93h.03l.82 1.92.86-.49-1.31-1.65v-.02z" fill="#68bbab"/><path d="m138.98 7.4 1.12-1.48-.71-.4-.72 1.65h-.02l-.74-1.64-.72.42 1.12 1.44v.02l-1.74-.22v.8l1.75-.22v.02l-1.13 1.44.68.43.77-1.67h.02l.71 1.66.74-.43-1.13-1.42v-.02l1.78.21v-.8l-1.78.23z" fill="#68bbab"/><circle cx="1.79" cy="135.71" fill="#2e4456" r="1.79"/><path d="m9.82 133.93h-2.68a1.79 1.79 0 0 0 0 3.57h2.68a1.79 1.79 0 1 0 0-3.57z" fill="#2e4456"/><path d="m142.86 133.93h-2.68a1.79 1.79 0 1 0 0 3.57h2.68a1.79 1.79 0 0 0 0-3.57z" fill="#2e4456"/><circle cx="148.21" cy="135.71" fill="#2e4456" r="1.79"/><g fill="#68bbab"><path d="m105.49 141.07h-7.41a1.79 1.79 0 0 0 0 3.57h7.41a1.79 1.79 0 0 0 0-3.57z"/><path d="m51.92 141.07h-7.41a1.79 1.79 0 0 0 0 3.57h7.41a1.79 1.79 0 0 0 0-3.57z"/><path d="m92.86 141.07h-35.72a1.79 1.79 0 0 0 0 3.57h14.24v1.79h-7.09a1.79 1.79 0 1 0 0 3.57h22.32a1.79 1.79 0 0 0 0-3.57h-8v-1.79h14.25a1.79 1.79 0 0 0 0-3.57z"/><path d="m82.65 62.5a1.79 1.79 0 0 0 -1.78-1.79h-45.67a1.79 1.79 0 0 0 0 3.58h45.67a1.79 1.79 0 0 0 1.78-1.79z"/><path d="m31.24 67.86a1.79 1.79 0 0 0 0 3.57h46.44a1.79 1.79 0 0 0 0-3.57z"/><path d="m92.62 86.61h-10.24a4.71 4.71 0 0 0 -4.7 4.7v2.44h-14.29a1.83 1.83 0 0 0 -1.79 1.79v31.21a2.72 2.72 0 0 0 2.72 2.71h46.36a2.72 2.72 0 0 0 2.72-2.71v-30.28a3.42 3.42 0 0 0 -.34-1.92c-.56-.85-1.48-.8-2.38-.8h-13.36v-2.44a4.71 4.71 0 0 0 -4.7-4.7zm-11.37 4.7a1.14 1.14 0 0 1 1.13-1.13h10.24a1.14 1.14 0 0 1 1.13 1.13v2.44h-12.5zm28.58 34.58h-44.65v-27.19l20.66 12.49a3.72 3.72 0 0 0 1.7.42v1.26a4.54 4.54 0 0 0 9 .69 4 4 0 0 0 .06-.69v-1.26a4.14 4.14 0 0 0 3.19-1.15l10-10.46zm-18.68-13v-1.26h1.93v1.26a1 1 0 0 1 -1.93-.02zm16.29-15.55-10.18 10.66s-.05.05-.08.05h-9.68l-17.7-10.73z"/></g><path d="m90.48 62.64c-2.57.91-4.3 2.32-4.3 4.29 0 3.83 6.53 5.54 13 5.54s13-1.71 13-5.54c0-2-1.8-3.42-4.43-4.33-.69 1.11-1.36 2.16-2 3.13a7.38 7.38 0 0 1 2.73 1.2c-.76.7-3.92 2-9.32 2s-8.57-1.27-9.33-2a6.91 6.91 0 0 1 2.61-1.16c-.6-.97-1.27-2.02-1.96-3.13z" fill="#2e4456"/><path d="m26.55 83.93a10.13 10.13 0 0 0 4-.8 8.53 8.53 0 0 0 2.95-2 9.88 9.88 0 0 0 13.84 0 9.88 9.88 0 0 0 13.84 0 9.88 9.88 0 0 0 13.82-.03 9.88 9.88 0 0 0 13.84 0 9.88 9.88 0 0 0 13.84 0 9.88 9.88 0 0 0 13.84 0 9.44 9.44 0 0 0 6.93 2.83c4.72 0 8.6-3.11 8.69-7a1.86 1.86 0 0 0 -.22-1l-12-21.42a1.77 1.77 0 0 0 -1.56-.92h-5.43c-.62 1.2-1.27 2.4-1.93 3.57h6.32l11.21 20c-.29 1.75-2.51 3.17-5.09 3.17-2.79 0-5.14-1.64-5.14-3.57a1.79 1.79 0 1 0 -3.57 0c0 1.93-2.35 3.57-5.14 3.57s-5.13-1.64-5.13-3.57a1.79 1.79 0 1 0 -3.57 0c0 1.93-2.35 3.57-5.14 3.57s-5.13-1.64-5.13-3.57a1.79 1.79 0 1 0 -3.57 0c0 1.93-2.36 3.57-5.14 3.57s-5.13-1.64-5.13-3.57a1.79 1.79 0 0 0 -3.58 0c0 1.93-2.35 3.57-5.13 3.57s-5.14-1.64-5.14-3.57a1.79 1.79 0 1 0 -3.57 0c0 1.93-2.35 3.57-5.13 3.57s-5.14-1.64-5.14-3.57a1.79 1.79 0 1 0 -3.57 0c0 1.93-2.35 3.57-5.13 3.57s-5.14-1.64-5.14-3.57a1.79 1.79 0 1 0 -3.57 0c0 1.93-2.35 3.57-5.14 3.57-2.58 0-4.8-1.42-5.09-3.17l11.21-20h54.56c-.67-1.17-1.31-2.37-1.93-3.57h-53.66a1.77 1.77 0 0 0 -1.56.92l-12 21.42a1.92 1.92 0 0 0 -.22 1c.15 3.89 3.98 7 8.7 7z" fill="#2e4456"/><path d="m106.25 37.5a7.15 7.15 0 1 0 -7.14 7.14 7.14 7.14 0 0 0 7.14-7.14zm-7.14 3.57a3.57 3.57 0 1 1 3.57-3.57 3.57 3.57 0 0 1 -3.57 3.57z" fill="#68bbab"/><path d="m99.11 67.86a1.77 1.77 0 0 0 1.47-.78c1.41-2 13.71-20.16 13.71-28.17a15.19 15.19 0 1 0 -30.36 0c0 8 12.31 26.13 13.71 28.17a1.77 1.77 0 0 0 1.47.78zm0-41.07a11.89 11.89 0 0 1 11.61 12.12c0 5.17-7.38 17.51-11.61 24-4.22-6.44-11.61-18.78-11.61-24a11.89 11.89 0 0 1 11.61-12.12z" fill="#2e4456"/><path d="m134.57 133.93h-14v-46.74a13.26 13.26 0 0 1 -3.57-1.32v48.06h-59v-33.93a10.72 10.72 0 0 0 -21.43 0v33.93h-3.57v-48.06a12.93 12.93 0 0 1 -3.57 1.32v46.74h-14a1.8 1.8 0 1 0 0 3.57h119.14a1.8 1.8 0 1 0 0-3.57zm-94.4-33.93a7.27 7.27 0 0 1 7-7.14 7.36 7.36 0 0 1 7.29 7.14v33.93h-14.29z" fill="#2e4456"/></svg>