<svg viewBox="0 0 150 150" xmlns="http://www.w3.org/2000/svg"><g fill="#51b6a9"><path d="m140.87 42.47c-5.8-11.18-19.67-16.94-32.95-14.54a18.51 18.51 0 0 0 0-12.29c-4.92-13.75-25.07-18.64-39.79-13.84-6.61 2.2-11.49 6.12-14.13 11.45a22.09 22.09 0 0 0 -2.15 9c-6.36-5.92-15-9.29-23.56-8.37a24 24 0 0 0 -17.26 9.85 25.82 25.82 0 0 0 -3.89 21 25 25 0 0 0 12.74 16.39 38.55 38.55 0 0 0 -1.54 8.65 31.93 31.93 0 0 0 1 9.17c.26 1.19.5 2.3.66 3.41-.84-.11-1.18-.45-1.95-1.28a2.93 2.93 0 0 0 -4.28 4c1.87 2 3.37 2.81 5.38 3.06a14.52 14.52 0 0 1 -1.07 1.46c-.31.38-.59.73-.82 1.07a20.09 20.09 0 0 1 -4.07 4.11c-1.43 1.23-2.6 2.23-3.19 3.53-1.77 4.29 2.24 7.49 4.9 9.61a16.2 16.2 0 0 1 2.29 2c.66 1.5.94 4.77 1.22 7.93.7 8 1.65 18.83 10.42 19.4h.27a50.67 50.67 0 0 0 17.55-3.48 33.47 33.47 0 0 1 0 12.63 2.93 2.93 0 0 0 2.2 3.51 2.48 2.48 0 0 0 .66.08 2.93 2.93 0 0 0 2.85-2.27c1.1-4.75 1-10.2-.19-16.58a44.65 44.65 0 0 0 11.23-9 2.93 2.93 0 0 0 -4.35-3.92 38.8 38.8 0 0 1 -10.92 8.46 2.73 2.73 0 0 0 -1.08.53 43.73 43.73 0 0 1 -17.92 4.19c-3.38-.35-4.2-6.57-4.86-14.05-.34-4-.64-7.38-1.69-9.77-.72-1.64-2.31-2.91-4-4.25a16.13 16.13 0 0 1 -3-2.83c.33-.33.94-.83 1.41-1.22a25.93 25.93 0 0 0 5.17-5.27 8.59 8.59 0 0 1 .53-.69 15.66 15.66 0 0 0 3-5.55 2.74 2.74 0 0 0 .09-.39 24.24 24.24 0 0 0 -.74-9.66 26.46 26.46 0 0 1 -.9-7.58 32.36 32.36 0 0 1 1.18-6.87 21.76 21.76 0 0 0 5.15.65c.72 0 1.45 0 2.17-.11a19 19 0 0 0 10.52-4.49c-.67 11.36 7.07 22.25 17.85 24.67a19.71 19.71 0 0 0 4.42.5 18.79 18.79 0 0 0 10.91-3.48 19.57 19.57 0 0 0 6.37-7.6 2.89 2.89 0 0 0 1 0c13-3 26.7 4.69 30.64 17.16a21.22 21.22 0 0 1 -1.68 17.09 22 22 0 0 1 -14.37 10.44c-9.36 2.18-19.28-3.38-22.12-12.38a15.18 15.18 0 0 1 1.2-12.23 15.75 15.75 0 0 1 10.28-7.48 11.65 11.65 0 0 1 13.59 7.59 9.15 9.15 0 0 1 -.72 7.38 9.53 9.53 0 0 1 -6.24 4.52 4.39 4.39 0 0 1 -5.07-2.81 3.14 3.14 0 0 1 .23-2.52 3.31 3.31 0 0 1 2.19-1.56 2.93 2.93 0 0 0 -1.33-5.71 9.12 9.12 0 0 0 -5.94 4.36 8.93 8.93 0 0 0 -.74 7.19 10.3 10.3 0 0 0 12 6.76 15.32 15.32 0 0 0 10-7.33 14.92 14.92 0 0 0 1.22-12 17.63 17.63 0 0 0 -20.52-11.62 21.55 21.55 0 0 0 -14.07 10.29 21 21 0 0 0 -1.7 16.89 24.18 24.18 0 0 0 11.65 13.84c-1.36 4.43-.93 10.21 1.28 15.44 2.62 6.16 7.09 10.46 12.6 12.11a3 3 0 0 0 .84.12 2.93 2.93 0 0 0 .84-5.73c-5.14-1.54-7.77-6.17-8.88-8.79a18 18 0 0 1 -1.23-10.95 24.81 24.81 0 0 0 6.54.9 24.15 24.15 0 0 0 5.39-.61 27.77 27.77 0 0 0 18.13-13.24 27 27 0 0 0 2.19-21.77 29.83 29.83 0 0 0 -5-9.35c.4 0 .8.07 1.2.07a25.87 25.87 0 0 0 9.58-1.83 28.37 28.37 0 0 0 16.35-16.08 23.32 23.32 0 0 0 -1.17-19.09zm-81.59-26.64c1.94-3.93 5.52-6.78 10.72-8.46 11.68-3.81 28.74-.1 32.43 10.24a12.94 12.94 0 0 1 -.68 10.11 16.78 16.78 0 0 1 -9.92 8.33c-8.57 2.79-17.7-1-20.36-8.49a7.62 7.62 0 0 1 .4-6 10.19 10.19 0 0 1 6.05-5c5.2-1.71 10.75.56 12.35 5a2.37 2.37 0 0 1 -.14 1.86 3.66 3.66 0 0 1 -2.16 1.78c-1.83.59-3.82-.15-4.35-1.63a2.93 2.93 0 1 0 -5.51 2c1.59 4.46 6.83 6.81 11.68 5.23a9.56 9.56 0 0 0 5.55-4.8 8.2 8.2 0 0 0 .4-6.4c-2.66-7.44-11.49-11.32-19.69-8.6a16.12 16.12 0 0 0 -9.49 8 13.47 13.47 0 0 0 -.66 10.53 18.64 18.64 0 0 0 3 5.33 24.26 24.26 0 0 0 -8.27 1.14 30.44 30.44 0 0 0 -1.22-3.22 3 3 0 0 0 -.15-1.22c-2.09-5.87-2.08-11.44.02-15.73zm-27.2 42.09a16.23 16.23 0 0 1 -7-.86 2.65 2.65 0 0 0 -.71-.37 3 3 0 0 0 -.59-.13 19 19 0 0 1 -10.9-13.05 20 20 0 0 1 2.94-16.32 18.22 18.22 0 0 1 13.12-7.45c11.52-1.21 23.06 7.12 26.31 18.75-.39.25-.79.47-1.17.74a24.5 24.5 0 0 0 -4.39 4 24 24 0 0 0 -.49-3.52c-1.87-8.23-10-14.26-18.07-13.38a13.42 13.42 0 0 0 -9.67 5.53 14.53 14.53 0 0 0 -2.19 11.69 10.05 10.05 0 0 0 10.62 7.82 8.14 8.14 0 0 0 5.87-3.37 8.68 8.68 0 0 0 1.33-7 2.93 2.93 0 1 0 -5.71 1.29 2.83 2.83 0 0 1 -.38 2.28 2.35 2.35 0 0 1 -1.72 1 4.23 4.23 0 0 1 -4.28-3.33 8.56 8.56 0 0 1 1.23-7 7.63 7.63 0 0 1 5.52-3.12c5.25-.55 10.5 3.43 11.73 8.88a14.32 14.32 0 0 1 -2.08 11.64 12.93 12.93 0 0 1 -9.32 5.28zm52.51 9.33c0-.24.09-.46.12-.7 1-8.4-4.61-16.69-12.58-18.49a13.66 13.66 0 0 0 -11 2.11 14.57 14.57 0 0 0 -6 10.32 9.9 9.9 0 0 0 7.47 10.85 8.3 8.3 0 0 0 6.65-1.29 8.85 8.85 0 0 0 3.6-6.17 2.93 2.93 0 1 0 -5.85-.72 2.94 2.94 0 0 1 -1.16 2.1 2.39 2.39 0 0 1 -2 .36 4.08 4.08 0 0 1 -2.84-4.42 8.8 8.8 0 0 1 3.54-6.2 7.82 7.82 0 0 1 6.3-1.18c5.12 1.15 8.73 6.56 8.06 12.06a14.57 14.57 0 0 1 -5.9 10.33 13.17 13.17 0 0 1 -10.62 2c-8.38-1.88-14.38-10.71-13.25-19.68a20.41 20.41 0 0 1 8.32-14.53 18.53 18.53 0 0 1 14.93-2.84c11.16 2.53 19.17 13.84 18.5 25.76a30.25 30.25 0 0 0 -6.29.33zm52-7.72a22.57 22.57 0 0 1 -13 12.67c-8.85 3.54-19.2.34-23.08-7.14a12.44 12.44 0 0 1 -.64-10.18 16.18 16.18 0 0 1 9.36-9.08c5.44-2.18 11.79-.25 14.16 4.3a7.24 7.24 0 0 1 .37 6 9.79 9.79 0 0 1 -5.76 5.49c-2 .81-4.4.13-5.23-1.47a2.19 2.19 0 0 1 -.11-1.82 3.42 3.42 0 0 1 2-1.89 2.93 2.93 0 0 0 -2.14-5.41 9.29 9.29 0 0 0 -5.33 5.29 8 8 0 0 0 .4 6.56c2.23 4.3 7.77 6.15 12.61 4.2a15.62 15.62 0 0 0 9-8.88 13.13 13.13 0 0 0 -.66-10.74c-3.72-7.15-13.37-10.31-21.53-7a22 22 0 0 0 -12.68 12.41c0 .13-.08.26-.12.39a32.13 32.13 0 0 0 -7.21-10.45 24.24 24.24 0 0 0 6.6-1.16 23.34 23.34 0 0 0 10-6.4h.11c12.25-4.9 26.6-.43 32 10a17.6 17.6 0 0 1 .86 14.31z"/><path d="m32.69 91a2.92 2.92 0 0 0 2.42 3.36 13.84 13.84 0 0 0 2.28.19 15.41 15.41 0 0 0 11.61-5.47 3.13 3.13 0 0 0 -2.56-5.18c-5.43.34-9.58 0-12.34-1a2.93 2.93 0 0 0 -1.92 5.54c.55.19 1.13.36 1.75.52a2.92 2.92 0 0 0 -1.24 2.04z"/></g></svg>