<svg viewBox="0 0 150 150" xmlns="http://www.w3.org/2000/svg"><g fill="#5db9ae"><path d="m149.9 88.15-16.61-55.25a2.34 2.34 0 0 0 -2.92-1.56l-116 34.87a2.35 2.35 0 0 0 -1.57 2.92l2.47 8.21a2.34 2.34 0 1 0 4.49-1.34l-1.76-6 111.48-33.5 15.26 50.76-3.85 1.15a2.34 2.34 0 1 0 1.35 4.49l6.09-1.83a2.35 2.35 0 0 0 1.57-2.92z"/><path d="m123.6 52.89a2.34 2.34 0 0 0 -2.91-1.57l-119.02 35.78a2.35 2.35 0 0 0 -1.57 2.9l6.81 22.65a2.35 2.35 0 0 0 2.92 1.57 4.34 4.34 0 0 1 2.5 8.31 2.35 2.35 0 0 0 -1.57 2.92l6.87 22.86a2.35 2.35 0 0 0 2.92 1.57l119-35.78a2.34 2.34 0 0 0 1.57-2.92zm-76.74 84.21-.9-3a2.34 2.34 0 1 0 -4.48 1.35l.89 3-20.93 6.29-5.61-18.67a9 9 0 0 0 -5-16.69l-5.57-18.47 20.93-6.29 1.08 3.59a2.34 2.34 0 1 0 4.49-1.35l-1.08-3.59 89.11-26.79 16.21 53.83z"/><path d="m35.62 99.72-1.26-4.19a2.34 2.34 0 1 0 -4.48 1.35l1.26 4.19a2.34 2.34 0 1 0 4.48-1.35z"/><path d="m39.4 112.28-1.17-3.89a2.34 2.34 0 0 0 -4.49 1.35l1.17 3.89a2.34 2.34 0 1 0 4.49-1.35z"/><path d="m42.1 121.25a2.34 2.34 0 0 0 -4.49 1.35l1.17 3.89a2.34 2.34 0 0 0 4.48-1.35z"/><path d="m96.3 87.29-9.8 1.46-6.77-7.25a2.35 2.35 0 0 0 -4 1.21l-1.64 9.78-9 4.19a2.34 2.34 0 0 0 -.09 4.2l8.79 4.58 1.21 9.84a2.34 2.34 0 0 0 4 1.39l7.07-7 9.73 1.89a2.23 2.23 0 0 0 1.12 0 2.32 2.32 0 0 0 1.19-.83 2.35 2.35 0 0 0 .24-2.46l-4.42-8.87 4.8-8.67a2.35 2.35 0 0 0 -2.39-3.46zm-7.15 13.11 2.85 5.73-6.28-1.22a2.39 2.39 0 0 0 -1.13.06 2.26 2.26 0 0 0 -1 .57l-4.53 4.46-.78-6.35a2.32 2.32 0 0 0 -1.28-1.77l-5.68-3 5.8-2.71a2.3 2.3 0 0 0 1.32-1.73l1.06-6.31 4.37 4.68a2.35 2.35 0 0 0 2.06.72l6.33-.94-3.11 5.59a2.34 2.34 0 0 0 0 2.22z"/></g></svg>