<svg viewBox="0 0 150 150" xmlns="http://www.w3.org/2000/svg"><g fill="#2e4456"><path d="m24.51 65h6.65a21.28 21.28 0 0 0 2.28 3.64 2.84 2.84 0 0 0 4.55 0l2.28-3.64h6.65a6.79 6.79 0 0 0 6.65-6.92v-11a7 7 0 0 0 -7.14-6.92h-21.43a7 7 0 0 0 -7.14 6.92v11a6.79 6.79 0 0 0 6.65 6.92zm-3.08-17.9a3.47 3.47 0 0 1 3.57-3.35h21.43a3.47 3.47 0 0 1 3.57 3.35v11a3.22 3.22 0 0 1 -3.08 3.35h-6.65a3.56 3.56 0 0 0 -3 1.67l-1.6 2.55a20.26 20.26 0 0 1 -1.28-2.2 3.57 3.57 0 0 0 -3.21-2h-6.67a3.22 3.22 0 0 1 -3.08-3.35z"/><path d="m28.87 57.89h13.69a1.79 1.79 0 0 0 0-3.57h-13.69a1.79 1.79 0 1 0 0 3.57z"/><path d="m63.79 65h6.65a21.28 21.28 0 0 0 2.28 3.64 2.85 2.85 0 0 0 4.56 0l2.28-3.64h6.65a6.79 6.79 0 0 0 6.65-6.92v-11a7 7 0 0 0 -7.15-6.92h-21.42a7 7 0 0 0 -7.15 6.92v11a6.79 6.79 0 0 0 6.65 6.92zm-3.08-17.9a3.48 3.48 0 0 1 3.58-3.35h21.42a3.48 3.48 0 0 1 3.58 3.35v11a3.23 3.23 0 0 1 -3.08 3.35h-6.65a3.59 3.59 0 0 0 -3 1.67l-1.59 2.55a22.73 22.73 0 0 1 -1.29-2.2 3.55 3.55 0 0 0 -3.21-2h-6.68a3.23 3.23 0 0 1 -3.08-3.35z"/><path d="m68.16 50.81h13.68a1.79 1.79 0 1 0 0-3.57h-13.68a1.79 1.79 0 1 0 0 3.57z"/><path d="m103.08 65h6.65a21.28 21.28 0 0 0 2.27 3.67 2.84 2.84 0 0 0 4.55 0l2.29-3.67h6.65a6.79 6.79 0 0 0 6.65-6.92v-11a7 7 0 0 0 -7.14-6.9h-21.43a7 7 0 0 0 -7.14 6.92v11a6.79 6.79 0 0 0 6.65 6.9zm-3.08-17.9a3.47 3.47 0 0 1 3.57-3.35h21.43a3.47 3.47 0 0 1 3.57 3.35v11a3.22 3.22 0 0 1 -3.08 3.35h-6.65a3.57 3.57 0 0 0 -3 1.67l-1.59 2.55a19.13 19.13 0 0 1 -1.29-2.2 3.56 3.56 0 0 0 -3.21-2h-6.65a3.22 3.22 0 0 1 -3.1-3.36z"/><path d="m107.44 57.89h13.69a1.79 1.79 0 1 0 0-3.57h-13.69a1.79 1.79 0 0 0 0 3.57z"/><path d="m108.93 87.07a10.62 10.62 0 1 0 10.71 10.61 10.67 10.67 0 0 0 -10.71-10.61zm0 17.66a7 7 0 1 1 7.14-7 7.1 7.1 0 0 1 -7.14 7z"/><path d="m75 95a10.62 10.62 0 1 0 -10.71-10.59 10.67 10.67 0 0 0 10.71 10.59zm0-17.66a7 7 0 1 1 -7.14 7 7.1 7.1 0 0 1 7.14-6.97z"/><path d="m41.07 87.07a10.62 10.62 0 1 0 10.72 10.61 10.66 10.66 0 0 0 -10.72-10.61zm0 17.66a7 7 0 1 1 7.14-7 7.1 7.1 0 0 1 -7.14 7z"/><path d="m53.45 103.23a25.25 25.25 0 0 1 3.18 1.65 17.63 17.63 0 0 1 10.2-8.77 14.45 14.45 0 0 1 -2.92-2.71 20.65 20.65 0 0 0 -10.46 9.83z"/><path d="m93.37 104.88a25.25 25.25 0 0 1 3.18-1.65 20.65 20.65 0 0 0 -10.46-9.83 14.19 14.19 0 0 1 -2.92 2.71 17.63 17.63 0 0 1 10.2 8.77z"/><circle cx="1.79" cy="134.82" r="1.79"/><path d="m9.82 133h-2.68a1.79 1.79 0 0 0 0 3.57h2.68a1.79 1.79 0 1 0 0-3.57z"/><path d="m142.86 133h-2.68a1.79 1.79 0 1 0 0 3.57h2.68a1.79 1.79 0 0 0 0-3.57z"/><circle cx="148.21" cy="134.82" r="1.79"/><path d="m134.57 133h-2.44c0-.06 0-.12 0-.18v-9.08c0-7.78-5.27-14.1-12.12-17.12a14.22 14.22 0 0 1 -2.92 2.72c6.17 2.17 11.47 7.48 11.47 14.4v9.08a.17.17 0 0 1 -.14.18h-39a.17.17 0 0 1 -.14-.18v-9.08c0-6.92 5.3-12.23 11.47-14.39a14.51 14.51 0 0 1 -2.92-2.72c-6.85 3-12.13 9.33-12.13 17.11v9.08.18h-21.43c0-.06 0-.12 0-.18v-9.08c0-7.78-5.28-14.1-12.12-17.12a14.27 14.27 0 0 1 -2.93 2.72c6.17 2.17 11.47 7.48 11.47 14.4v9.08a.17.17 0 0 1 -.14.18h-39a.17.17 0 0 1 -.14-.18v-9.08c0-6.92 5.31-12.23 11.47-14.39a14.79 14.79 0 0 1 -2.88-2.68c-6.85 3-12.12 9.33-12.12 17.11v9.08.18h-2.45a1.8 1.8 0 1 0 0 3.57h119.14a1.8 1.8 0 1 0 0-3.57z"/><path d="m142.86 25.89a2.68 2.68 0 1 0 -2.68 2.68 2.69 2.69 0 0 0 2.68-2.68zm-4 0a1.34 1.34 0 1 1 1.34 1.34 1.34 1.34 0 0 1 -1.36-1.34z"/><path d="m62.5 20.54a2.68 2.68 0 1 0 -2.68-2.68 2.69 2.69 0 0 0 2.68 2.68zm0-4a1.34 1.34 0 1 1 -1.34 1.34 1.34 1.34 0 0 1 1.34-1.36z"/><path d="m140.18 50a1.79 1.79 0 1 0 1.82-1.79 1.79 1.79 0 0 0 -1.82 1.79zm2.68 0a.9.9 0 1 1 -.9-.89.89.89 0 0 1 .9.89z"/><path d="m116.07 20.54a1.79 1.79 0 1 0 -1.78-1.79 1.79 1.79 0 0 0 1.78 1.79zm0-2.68a.89.89 0 1 1 -.89.89.89.89 0 0 1 .89-.89z"/><path d="m78.57 29.46a1.79 1.79 0 1 0 -1.78-1.78 1.79 1.79 0 0 0 1.78 1.78zm0-2.67a.89.89 0 1 1 -.89.89.89.89 0 0 1 .89-.89z"/><path d="m8 41.07a1.79 1.79 0 1 0 -1.79-1.78 1.78 1.78 0 0 0 1.79 1.78zm0-2.68a.9.9 0 1 1 -.9.9.89.89 0 0 1 .9-.9z"/></g><path d="m44.34 49a1.78 1.78 0 0 0 -1.78-1.79h-13.69a1.79 1.79 0 1 0 0 3.57h13.69a1.78 1.78 0 0 0 1.78-1.78z" fill="#68bbab"/><path d="m68.16 57.89h13.68a1.79 1.79 0 1 0 0-3.57h-13.68a1.79 1.79 0 1 0 0 3.57z" fill="#68bbab"/><path d="m121.13 47.24h-13.69a1.79 1.79 0 0 0 0 3.57h13.69a1.79 1.79 0 1 0 0-3.57z" fill="#68bbab"/><path d="m105.49 141.07h-7.41a1.79 1.79 0 0 0 0 3.57h7.41a1.79 1.79 0 0 0 0-3.57z" fill="#68bbab"/><path d="m51.92 141.07h-7.41a1.79 1.79 0 0 0 0 3.57h7.41a1.79 1.79 0 0 0 0-3.57z" fill="#68bbab"/><path d="m92.86 141.07h-35.72a1.79 1.79 0 0 0 0 3.57h14.24v1.79h-7.09a1.79 1.79 0 1 0 0 3.57h22.32a1.79 1.79 0 0 0 0-3.57h-8v-1.79h14.25a1.79 1.79 0 0 0 0-3.57z" fill="#68bbab"/><path d="m11.23 75.01 1.33-1.75-.84-.47-.85 1.95h-.03l-.86-1.94-.85.49 1.31 1.71v.02l-2.06-.26v.95l2.07-.27v.03l-1.32 1.7.79.51.91-1.97h.03l.84 1.95.88-.5-1.35-1.68v-.02l2.11.25v-.95l-2.11.28z" fill="#68bbab"/><path d="m47.06 34.4-1.33 1.7.8.51.91-1.97h.02l.84 1.95.88-.5-1.34-1.68v-.02l2.11.25v-.95l-2.11.28v-.03l1.33-1.75-.84-.47-.85 1.95h-.03l-.86-1.94-.86.49 1.32 1.7v.03l-2.06-.26v.95l2.07-.27z" fill="#68bbab"/><path d="m38.19 21.49-.76.98.46.29.52-1.13h.02l.48 1.12.51-.29-.78-.96v-.02l1.22.15v-.55l-1.22.16v-.02l.77-1-.48-.28-.49 1.13h-.02l-.5-1.12-.49.28.76.98v.02l-1.19-.15v.55l1.19-.16z" fill="#68bbab"/><path d="m141.96 80.99v-.93l-2.06.28v-.03l1.3-1.71-.82-.47-.84 1.92h-.03l-.85-1.91-.83.48 1.29 1.68v.02l-2.02-.26v.93l2.03-.26v.03l-1.3 1.67.78.5.89-1.94h.03l.82 1.92.86-.49-1.31-1.64v-.03z" fill="#68bbab"/><path d="m105.09 31.27-1.12 1.44.67.43.77-1.67h.02l.71 1.66.75-.43-1.14-1.42v-.02l1.79.21v-.8l-1.79.23v-.02l1.13-1.48-.71-.4-.72 1.66h-.03l-.73-1.65-.72.42 1.11 1.44v.02l-1.74-.22v.8l1.75-.22z" fill="#68bbab"/></svg>