<svg viewBox="0 0 150 150" xmlns="http://www.w3.org/2000/svg"><g fill="#334355"><circle cx="1.79" cy="135.71" r="1.79"/><path d="m9.82 133.93h-2.68a1.79 1.79 0 0 0 0 3.57h2.68a1.79 1.79 0 1 0 0-3.57z"/><path d="m142.86 133.93h-2.68a1.79 1.79 0 1 0 0 3.57h2.68a1.79 1.79 0 0 0 0-3.57z"/><circle cx="148.21" cy="135.71" r="1.79"/></g><path d="m105.49 141.07h-7.41a1.79 1.79 0 0 0 0 3.57h7.41a1.79 1.79 0 0 0 0-3.57z" fill="#68bbab"/><path d="m51.92 141.07h-7.41a1.79 1.79 0 0 0 0 3.57h7.41a1.79 1.79 0 0 0 0-3.57z" fill="#68bbab"/><path d="m92.86 141.07h-35.72a1.79 1.79 0 0 0 0 3.57h14.23v1.79h-7.08a1.79 1.79 0 1 0 0 3.57h22.32a1.79 1.79 0 0 0 0-3.57h-8v-1.79h14.25a1.79 1.79 0 0 0 0-3.57z" fill="#68bbab"/><path d="m104.46 44.64h-14.28a1.79 1.79 0 1 0 0 3.57h14.28a1.79 1.79 0 1 0 0-3.57z" fill="#68bbab"/><path d="m91.16 41.07h11.6a37.76 37.76 0 0 1 3-11.12c.65-1.41 2.75-3.91 2.19-5.72a1.7 1.7 0 0 0 -1.72-1 2 2 0 0 0 -.36 0c-2.26.41-3.65 4-6 4a2.33 2.33 0 0 1 -.68-.1c-1-.31-1.35-1.87-2.24-2.41a1.18 1.18 0 0 0 -.59-.18c-1 0-1.68 1.42-2.33 2.12a2.75 2.75 0 0 1 -1.94 1 2.06 2.06 0 0 1 -.93-.23c-1-.49-1.89-1.49-3-1.85a1.41 1.41 0 0 0 -.35 0 1.27 1.27 0 0 0 -1.25 1.29 5.46 5.46 0 0 0 1.24 2.81s2.2 3.03 3.36 11.39zm5.13-11.62a4.89 4.89 0 0 0 1.92 1.09 6.11 6.11 0 0 0 1.69.24 6 6 0 0 0 1.74-.26 41.16 41.16 0 0 0 -1.94 7h-5.52a41.35 41.35 0 0 0 -1.69-6.29 6.11 6.11 0 0 0 3.8-1.78z" fill="#334355"/><path d="m93.45 93.65a10.63 10.63 0 0 0 2.09.68v2.1a1.79 1.79 0 0 0 3.57 0v-2a9.24 9.24 0 0 0 2.25-.6c3.31-1.37 5-4.55 4-7.58-1.17-3.52-4.56-4.45-7.29-5.2-2-.56-4-1.09-4.79-2.44a2.87 2.87 0 0 1 0-3.14c1.06-1.57 3.59-1.9 5.62-1.54a5.29 5.29 0 0 1 3.91 3.3 1.79 1.79 0 1 0 3.43-1 8.75 8.75 0 0 0 -6.7-5.81l-.38-.06s0 0 0 0v-2.5a1.79 1.79 0 1 0 -3.57 0v2.56a7.58 7.58 0 0 0 -5.28 3.08 6.46 6.46 0 0 0 0 7c1.59 2.53 4.4 3.3 6.87 4 2.66.73 4.31 1.26 4.85 2.88.47 1.42-.69 2.63-2 3.16a6.59 6.59 0 0 1 -5.09-.18 5.55 5.55 0 0 1 -3-3.07 1.78 1.78 0 1 0 -3.36 1.2 9 9 0 0 0 4.87 5.16z" fill="#68bbab"/><circle cx="41.97" cy="123.21" fill="#68bbab" r="1.79"/><circle cx="25.89" cy="110.71" fill="#68bbab" r="1.79"/><path d="m134.57 133.93h-91.81l5.32-1.51a5.31 5.31 0 0 0 4-3.85l26.35-.86h.13l3.94-.41c3.78-.39 7.64-.59 11.38-.78 4.26-.22 8.66-.44 13-1l.58-.06c2.69-.29 9-1 8.6-6.25a4.94 4.94 0 0 0 -3.44-4.31 7.13 7.13 0 0 0 -2.67-.21c-.26 0-.52 0-.73 0l-5.08-.14a5.36 5.36 0 0 0 1.31-2.69c10-1.72 19.62-8 20.38-19.35.71-10.76-4.4-19.45-10.6-27.6-3.3-4.36-7.55-8.65-10.61-13.18h-14.62c-3 4.59-7.29 8.88-10.59 13.27-5.93 7.81-10.86 16.11-10.64 26.25-2.43 2.08-4.69 4-6.84 5.7-8.54 4.74-11.33 8.29-12.22 9.87l-1.51.71a5.19 5.19 0 0 0 -1.84-2.16 5.28 5.28 0 0 0 -4-.76l-9.28 2.25a1.79 1.79 0 0 0 .84 3.47l9.22-2.23a1.65 1.65 0 0 1 1.26.25 1.69 1.69 0 0 1 .74 1.1l3.51 17.47a1.74 1.74 0 0 1 -1.34 2l-17.63 5h-14.25a1.8 1.8 0 1 0 0 3.57h119.14a1.8 1.8 0 1 0 0-3.57zm-52.32-66.81c1.32-1.73 2.79-3.45 4.35-5.27 1.79-2.1 3.63-4.25 5.28-6.49h10.89c1.64 2.24 3.48 4.39 5.27 6.49 1.56 1.82 3 3.54 4.35 5.28 5.51 7.26 10.53 15.34 9.87 25.2-.7 10.63-11 15.93-20.92 16.47-7.11.38-14.89.12-21.06-3.87-.38-.24-4.28-3.27-4.11-3.46 2.87-3.2 5.42-6.51 7.22-9 3.23-4.43 2.43-7.18 1.19-8.71a4.33 4.33 0 0 0 -5.16-1.24 35.51 35.51 0 0 0 -6.94 5.31c.83-7.83 5.12-14.57 9.77-20.71zm19.09 45.26a2.29 2.29 0 0 1 -.81.45l-5.23 1.53a68.32 68.32 0 0 1 -7.25-.91l3.87-1.18 1.19.1c1.2.06 2.38.13 3.58.13h1c1.21 0 2.44-.06 3.65-.12zm-17-1.68-3.69 1.08a40.32 40.32 0 0 1 -4.12-1.4l4-1.24a28.09 28.09 0 0 0 3.81 1.56zm-7.81-4.06-4 1.22a2.57 2.57 0 0 1 -.42-.67c-.1-.27-.43-1.09 1.22-2.72l.38-.39a21.44 21.44 0 0 0 2.82 2.56zm-24.72 3.11a1.65 1.65 0 0 0 .91-1s1.53-3.51 11.08-8.79a2.2 2.2 0 0 0 .25-.17c2.55-2.06 14.6-12.87 17-14.08a.92.92 0 0 1 .78.3c.87 1.07-.44 3.19-1.29 4.37a100.72 100.72 0 0 1 -9.7 11.55c-2.74 2.72-2.61 5.07-2 6.57 3.13 7.87 27.09 9.45 27.33 9.46l5.25.14 5.77.15a23.72 23.72 0 0 0 2.53 0 5.9 5.9 0 0 1 1.77.07 1.25 1.25 0 0 1 1 1.17c.11 1.54-2.08 2.1-5.41 2.45l-.61.06c-4.24.5-8.59.72-12.79.94-3.78.19-7.69.39-11.57.79l-3.88.4-26.34.87-2.8-14z" fill="#334355"/></svg>