<svg viewBox="0 0 150 150" xmlns="http://www.w3.org/2000/svg"><path d="m16.91 37.14a1.71 1.71 0 1 0 -1.71 1.71 1.72 1.72 0 0 0 1.71-1.71zm-2.57 0a.86.86 0 1 1 1.71 0 .85.85 0 0 1 -.85.85.86.86 0 0 1 -.86-.85z" fill="#334355"/><path d="m40.47 8.96 1.27-1.67-.8-.46-.82 1.87h-.02l-.83-1.86-.82.47 1.26 1.63v.03l-1.97-.26v.91l1.98-.25v.03l-1.27 1.63.76.48.87-1.89h.03l.8 1.87.84-.48-1.28-1.6v-.03l2.02.24v-.91l-2.02.27z" fill="#68bbab"/><path d="m136.51 32.62v-.89l-1.98.26v-.02l1.25-1.64-.79-.45-.8 1.84h-.03l-.81-1.83-.8.46 1.23 1.6v.03l-1.92-.25v.89l1.94-.25v.03l-1.25 1.6.75.47.85-1.85h.03l.78 1.84.83-.47-1.26-1.58v-.02z" fill="#68bbab"/><path d="m101.01 15.43 1.07-1.42-.68-.38-.68 1.58h-.03l-.7-1.57-.69.4 1.06 1.38v.02l-1.66-.22v.77l1.68-.21v.02l-1.08 1.38.64.41.74-1.6h.02l.68 1.59.71-.41-1.08-1.36v-.02l1.71.2v-.77l-1.71.23z" fill="#68bbab"/><g fill="#334355"><circle cx="18.6" cy="138.15" r="1.39"/><path d="m24.88 136.75h-2.09a1.4 1.4 0 1 0 0 2.79h2.09a1.4 1.4 0 0 0 0-2.79z"/><path d="m128.76 136.75h-2.09a1.4 1.4 0 1 0 0 2.79h2.09a1.4 1.4 0 0 0 0-2.79z"/><circle cx="132.94" cy="138.15" r="1.39"/><path d="m122.29 136.75h-20.65a5.5 5.5 0 0 0 .76-2.79v-27.88h-2.79v19.52h-47.4v-61.35h47.4v45.75h2.79v-54.12a5.62 5.62 0 0 0 -5.65-5.58h-41.68a5.62 5.62 0 0 0 -5.65 5.58v78.12a5.5 5.5 0 0 0 .76 2.79h-20.92a1.41 1.41 0 1 0 0 2.79h93a1.41 1.41 0 1 0 0-2.79zm-70.08-80.87a2.83 2.83 0 0 1 2.86-2.79h41.68a2.83 2.83 0 0 1 2.86 2.79v5.58h-47.4zm2.86 80.87a2.83 2.83 0 0 1 -2.86-2.75v-5.57h47.4v5.57a2.83 2.83 0 0 1 -2.86 2.79z"/></g><path d="m70.33 58.67h11.16a1.4 1.4 0 0 0 0-2.79h-11.16a1.4 1.4 0 0 0 0 2.79z" fill="#68bbab"/><path d="m99.58 143h-5.79a1.4 1.4 0 0 0 0 2.79h5.79a1.4 1.4 0 0 0 0-2.79z" fill="#68bbab"/><path d="m57.75 143h-5.75a1.4 1.4 0 0 0 0 2.79h5.79a1.4 1.4 0 0 0 0-2.79z" fill="#68bbab"/><path d="m89.72 143h-27.89a1.4 1.4 0 1 0 0 2.79h11.11v1.39h-5.53a1.4 1.4 0 1 0 0 2.79h17.43a1.4 1.4 0 0 0 0-2.79h-6.24v-1.39h11.12a1.4 1.4 0 0 0 0-2.79z" fill="#68bbab"/><path d="m68.94 131.18a1.39 1.39 0 1 0 0 2.78h13.94a1.39 1.39 0 1 0 0-2.78z" fill="#68bbab"/><path d="m34.2 29.63v.07 5.71a1.72 1.72 0 0 0 1.8 1.7 1.74 1.74 0 0 0 1.41-.76l6.37 12.65a1.7 1.7 0 0 0 1.52.93 1.74 1.74 0 0 0 .77-.18 1.7 1.7 0 0 0 .75-2.3l-6.5-12.83a1.7 1.7 0 0 0 1.68-3l-5.16-3.4a1.73 1.73 0 0 0 -2.64 1.41z" fill="#334355"/><path d="m109.46 49.74a1.74 1.74 0 0 0 .77.18 1.7 1.7 0 0 0 1.52-.93l6.41-12.64a1.75 1.75 0 0 0 1.42.76 1.71 1.71 0 0 0 1.71-1.7v-5.71s0 0 0-.07a1.88 1.88 0 0 0 0-.33 1.73 1.73 0 0 0 -2.55-1.06l-5.16 3.4a1.7 1.7 0 0 0 1.68 3l-6.5 12.83a1.7 1.7 0 0 0 .7 2.27z" fill="#334355"/><path d="m77.77 44.8a1.71 1.71 0 0 0 1.7-1.71v-7.87l.28.42a1.68 1.68 0 0 0 1.43.78 1.76 1.76 0 0 0 .93-.27 1.71 1.71 0 0 0 .51-2.36l-3.42-5.3a1.71 1.71 0 0 0 -2.87 0l-3.42 5.3a1.71 1.71 0 0 0 2.87 1.85l.28-.42v7.87a1.71 1.71 0 0 0 1.71 1.71z" fill="#334355"/><path d="m27.26 14.74a6.84 6.84 0 1 0 -6.84-6.84 6.83 6.83 0 0 0 6.84 6.84zm0-10.26a3.42 3.42 0 1 1 -3.42 3.42 3.42 3.42 0 0 1 3.42-3.42z" fill="#334355"/><path d="m36.72 24.42c0-.07 0-.14 0-.21 0-6.08-4.24-11-9.47-11s-9.48 4.93-9.48 11v.21z" fill="none" stroke="#334355" stroke-miterlimit="10" stroke-width="2.5"/><path d="m78.24 13.67a6.84 6.84 0 1 0 -6.84-6.84 6.83 6.83 0 0 0 6.84 6.84zm0-10.25a3.42 3.42 0 1 1 -3.42 3.41 3.41 3.41 0 0 1 3.42-3.41z" fill="#334355"/><path d="m87.7 23.35c0-.07 0-.14 0-.21 0-6.08-4.24-11-9.47-11s-9.48 4.92-9.48 11v.21z" fill="none" stroke="#334355" stroke-miterlimit="10" stroke-width="2.5"/><path d="m124.41 14.74a6.84 6.84 0 1 0 -6.83-6.84 6.84 6.84 0 0 0 6.83 6.84zm0-10.26a3.42 3.42 0 1 1 -3.41 3.42 3.42 3.42 0 0 1 3.41-3.42z" fill="#334355"/><path d="m133.88 24.42c0-.07 0-.14 0-.21 0-6.08-4.24-11-9.48-11s-9.47 4.93-9.47 11v.21z" fill="none" stroke="#334355" stroke-miterlimit="10" stroke-width="2.5"/><path d="m57.6 75.95h37.14v31.78h-37.14z" fill="none" stroke="#67bbab" stroke-dasharray="3" stroke-miterlimit="10" stroke-width="2"/><text fill="#334355" font-family="Raleway-Bold, Raleway" font-size="10.87" font-weight="700" letter-spacing="-.01em" transform="translate(62.64 96.63)">S<tspan letter-spacing="-.06em" x="6.53" y="0">A</tspan><tspan letter-spacing="0em" x="13.18" y="0">VE</tspan></text></svg>