<svg viewBox="0 0 150 150" xmlns="http://www.w3.org/2000/svg"><g fill="#51b6a9"><path d="m56.25 118.75v-103.13a9.38 9.38 0 0 1 18.75 0v46.88h-3.13v6.25h56.25v-6.25h-3.12v-46.88a15.64 15.64 0 0 0 -15.63-15.62h-43.75a15.65 15.65 0 0 0 -15.3 12.5h-.32v106.25a6.25 6.25 0 0 1 -12.5 0v-59.38a12.41 12.41 0 0 0 -1.69-6.25h11.06v-6.24h-21.87a12.51 12.51 0 0 0 -12.5 12.49v46.88h15.62v-6.25h-9.37v-40.63a6.25 6.25 0 0 1 12.5 0v59.38a12.52 12.52 0 0 0 12.5 12.5h15.63v-6.25h-4.82a12.39 12.39 0 0 0 1.69-6.25zm53.12-112.5a9.38 9.38 0 0 1 9.38 9.37v46.88h-37.5v-46.88a15.57 15.57 0 0 0 -3.13-9.37z"/><path d="m128.13 46.88v6.24a3.13 3.13 0 0 1 3.12 3.13v84.37a3.13 3.13 0 0 1 -3.12 3.13h-56.26a3.13 3.13 0 0 1 -3.12-3.13v-84.37a3.13 3.13 0 0 1 3.12-3.13v-6.24a9.38 9.38 0 0 0 -9.37 9.37v84.37a9.39 9.39 0 0 0 9.37 9.38h56.26a9.38 9.38 0 0 0 9.37-9.38v-84.37a9.38 9.38 0 0 0 -9.37-9.37z"/><path d="m75 103.13h12.5v6.25h-12.5z"/><path d="m93.75 103.13h12.5v6.25h-12.5z"/><path d="m112.5 103.13h12.5v6.25h-12.5z"/><path d="m75 115.63h12.5v6.25h-12.5z"/><path d="m93.75 115.63h12.5v6.25h-12.5z"/><path d="m112.5 115.63h12.5v6.25h-12.5z"/><path d="m75 128.13h12.5v6.25h-12.5z"/><path d="m93.75 128.13h12.5v6.25h-12.5z"/><path d="m112.5 128.13h12.5v6.25h-12.5z"/><path d="m125 75h-50v21.87h50zm-6.25 15.63h-37.5v-9.38h37.5z"/></g></svg>