<svg viewBox="0 0 150 150" xmlns="http://www.w3.org/2000/svg"><g fill="#5db9ae" fill-rule="evenodd"><path d="m138.25 81.39-58.78-58.79-4.47-4.47-4.48 4.47-53.52 53.55-5.24 5.24a3.16 3.16 0 1 1 -4.47-4.48l-4.51-4.48a9.5 9.5 0 1 0 13.43 13.43l.79-.76v61.7a3.16 3.16 0 0 0 .9 2.2 3.12 3.12 0 0 0 2.23.93h3.17 28.75a3.16 3.16 0 0 0 3.16-3.17v-52.76h39.56v52.8a3.18 3.18 0 0 0 3.17 3.2h31.91a3.18 3.18 0 0 0 3.17-3.17v-61.73l.76.76zm-11.56 62.28h-25.59v-52.81a3.16 3.16 0 0 0 -3.16-3.16h-42.73-3.16a3.16 3.16 0 0 0 -2.24.93 3.12 3.12 0 0 0 -.92 2.2v52.81h-25.59v-64.87l51.7-51.69 51.7 51.69z"/><path d="m94.68 28.86 8.07 8.07 9.49 9.49 30.49 30.49 4.48-4.48-31.04-31.03-16.88-16.88-19.82-19.82-4.48-4.48-4.47 4.48-67.74 67.73 4.48 4.48 67.73-67.74z"/><path d="m147.22 72.45-4.48 4.47a3.16 3.16 0 0 1 -4.47 4.48l-4.48 4.48a9.5 9.5 0 0 0 13.43-13.43z"/></g></svg>