<svg viewBox="0 0 150 150" xmlns="http://www.w3.org/2000/svg"><circle cx="1.79" cy="135.71" fill="#2e4456" r="1.79"/><path d="m9.82 133.93h-2.68a1.79 1.79 0 0 0 0 3.57h2.68a1.79 1.79 0 1 0 0-3.57z" fill="#2e4456"/><path d="m105.49 141.07h-7.41a1.79 1.79 0 0 0 0 3.57h7.41a1.79 1.79 0 0 0 0-3.57z" fill="#68bbab"/><path d="m51.92 141.07h-7.41a1.79 1.79 0 0 0 0 3.57h7.41a1.79 1.79 0 0 0 0-3.57z" fill="#68bbab"/><path d="m92.86 141.07h-35.72a1.79 1.79 0 0 0 0 3.57h14.24v1.79h-7.09a1.79 1.79 0 1 0 0 3.57h22.32a1.79 1.79 0 0 0 0-3.57h-8v-1.79h14.25a1.79 1.79 0 0 0 0-3.57z" fill="#68bbab"/><path d="m113.73 68.18h11.35l-23.89 18.25 1.41 3.42 28.84-22a1.79 1.79 0 0 0 -1.08-3.21h-16.63a1.79 1.79 0 1 0 0 3.57z" fill="#2e4456"/><path d="m65.08 84.78-1.61 6.92a3.09 3.09 0 0 0 .15 1.85l14.7 35.7a1.8 1.8 0 0 0 1.68 1.11 1.61 1.61 0 0 0 .67-.14l20.68-8.43 7.36-3a1.81 1.81 0 0 0 1-2.34l-14.71-35.71a3.08 3.08 0 0 0 -1.2-1.42l-17.42-11a3 3 0 0 0 -2.78-.25l-3.6 1.5a3.15 3.15 0 0 0 -1 .7 13.5 13.5 0 0 0 2 5l.58-2.48 3.14-1.28 17.03 10.75 14 33.89-4.07 1.66-6.7-16.28a1.78 1.78 0 1 0 -3.3 1.36l6.7 16.27-11.27 4.59-6.7-16.28a1.79 1.79 0 0 0 -3.31 1.36l6.71 16.27-2.81 1.15-14-33.91 1.2-5.17a18 18 0 0 1 -3.12-2.39z" fill="#68bbab"/><g fill="#2e4456"><path d="m67.65 54 7.35-23.84 11.36 36.76a1.79 1.79 0 0 0 1.71 1.26h13.6a1.79 1.79 0 1 0 0-3.57h-12.28l-12.68-41a1.79 1.79 0 0 0 -3.42 0l-10.06 32.55a11.57 11.57 0 0 1 2.84-1.7 12.13 12.13 0 0 1 1.58-.46z"/><path d="m51.78 93.19-3.55 11.51a1.78 1.78 0 0 0 1.18 2.23 1.88 1.88 0 0 0 .52.08 1.78 1.78 0 0 0 1.71-1.26l3.92-12.69a1.8 1.8 0 0 0 -.62-2l-30-22.93h33.06a19.82 19.82 0 0 1 .35-3.57h-38.71a1.79 1.79 0 0 0 -1.08 3.21z"/><path d="m70.56 84.39a6.72 6.72 0 0 0 .54 2.27 7.38 7.38 0 0 0 6.8 4.41 7.58 7.58 0 0 0 2.75-.52 1.79 1.79 0 0 0 -1.31-3.33 3.86 3.86 0 0 1 -4.73-1.55 7 7 0 0 0 .79 0 8.25 8.25 0 0 0 3.14-.62 1.79 1.79 0 0 0 -1.37-3.3 4.72 4.72 0 0 1 -2.51.28 3.74 3.74 0 0 1 1.77-1.45 3.86 3.86 0 0 1 5 2 1.79 1.79 0 0 0 3.29-1.4 7.45 7.45 0 0 0 -9.56-3.89 7.24 7.24 0 0 0 -3.78 3.38 14.57 14.57 0 0 1 -5-6.51c-2.28-5.62-1.17-11.63 2.42-13.12a5.45 5.45 0 0 1 4.17.17c2.72 1.14 5.2 3.92 6.63 7.44a1.78 1.78 0 1 0 3.3-1.34c-1.77-4.38-5-7.89-8.55-9.39a8.87 8.87 0 0 0 -6.92-.18c-5.55 2.3-7.47 10.11-4.36 17.77a17.52 17.52 0 0 0 7.49 8.88z"/><path d="m142.86 133.93h-2.68a1.79 1.79 0 1 0 0 3.57h2.68a1.79 1.79 0 0 0 0-3.57z"/><circle cx="148.21" cy="135.71" r="1.79"/><path d="m134.57 133.93h-23.76l-3.34-10.79-3.32 1.36 1.71 5.51-5.3-4-3.84 1.57 8.38 6.4h-60.2l23.95-18.3-1.41-3.42-23.3 17.74 3.86-12.3a1.78 1.78 0 0 0 -3.41-1l-5.35 17.28h-23.81a1.8 1.8 0 1 0 0 3.57h119.14a1.8 1.8 0 1 0 0-3.57z"/></g></svg>