<svg viewBox="0 0 150 150" xmlns="http://www.w3.org/2000/svg"><circle cx="1.79" cy="135.71" fill="#334355" r="1.79"/><path d="m9.82 133.93h-2.68a1.79 1.79 0 0 0 0 3.57h2.68a1.79 1.79 0 1 0 0-3.57z" fill="#334355"/><path d="m105.49 141.07h-7.41a1.79 1.79 0 0 0 0 3.57h7.41a1.79 1.79 0 0 0 0-3.57z" fill="#68bbab"/><path d="m51.92 141.07h-7.41a1.79 1.79 0 0 0 0 3.57h7.41a1.79 1.79 0 0 0 0-3.57z" fill="#68bbab"/><path d="m92.86 141.07h-35.72a1.79 1.79 0 0 0 0 3.57h14.23v1.79h-7.08a1.79 1.79 0 1 0 0 3.57h22.32a1.79 1.79 0 0 0 0-3.57h-8v-1.79h14.25a1.79 1.79 0 0 0 0-3.57z" fill="#68bbab"/><path d="m45.13 106.17-2.89-11.33-14.92-23.84 7.25-6.3-1-3.87-9.75 8.48a1.78 1.78 0 0 0 -.34 2.29z" fill="#334355"/><path d="m78.7 24.26a1.77 1.77 0 0 0 -2.63-.32l-6.44 5.6 10.42-3.36z" fill="#334355"/><path d="m48.21 103.8v-14.45l-10.7-42 10.7-3.45v-3.73l-13.4 4.31a1.78 1.78 0 0 0 -1.18 2.13z" fill="#334355"/><path d="m102.93 24.56a1.81 1.81 0 0 0 -.87-1.12 1.78 1.78 0 0 0 -1.41-.14l-11.65 3.76h14.6z" fill="#334355"/><path d="m142.86 133.93h-2.68a1.79 1.79 0 1 0 0 3.57h2.68a1.79 1.79 0 0 0 0-3.57z" fill="#334355"/><circle cx="148.21" cy="135.71" fill="#334355" r="1.79"/><path d="m134.57 133.93h-7.78v-101.52a1.79 1.79 0 0 0 -1.79-1.79h-71.43a1.79 1.79 0 0 0 -1.78 1.79v101.52h-36.36a1.8 1.8 0 1 0 0 3.57h119.14a1.8 1.8 0 1 0 0-3.57zm-11.36 0h-67.85v-27.6h67.85zm-40.53-61.87a11 11 0 0 0 13.21 0 8.29 8.29 0 0 0 2.9 3.24l3.42 1.2c2.33.5 10.69 2.79 11.18 9.59v16.69h-48.21v-16.7c.48-6.74 8.78-9 11.17-9.59l3.42-1.19a8.24 8.24 0 0 0 2.91-3.24zm-5.89-18.06c0-6.48 5.6-11.75 12.5-11.75s12.5 5.27 12.5 11.75-5.73 16.75-12.5 16.75-12.5-10.33-12.5-16.75zm46.42 48.81h-6.21v-16.91c-.7-10.73-14.23-13-14.77-13a4.69 4.69 0 0 1 -3.49-3.23c4.09-4.32 6.66-10.8 6.66-15.67 0-8.44-7.21-15.32-16.07-15.32s-16.12 6.84-16.12 15.32c0 4.88 2.58 11.36 6.67 15.67a4.65 4.65 0 0 1 -3.47 3.22c-.57.09-14.1 2.32-14.8 13.05v16.87h-6.25v-68.62h67.85z" fill="#334355"/><path d="m102.21 76.49a14.57 14.57 0 0 1 -2.33 3.24 13.68 13.68 0 0 1 -10 4.33h-1.21a13.91 13.91 0 0 1 -12.32-7.57l3.42-1.19a10.35 10.35 0 0 0 8.9 5.2h1.21a10.17 10.17 0 0 0 7.41-3.21 10.78 10.78 0 0 0 1.5-2z" fill="#68bbab"/><path d="m55.51 36.57h67.57v73.28h-67.57z" fill="#fff"/><path d="m68.11 59.88a5.69 5.69 0 0 1 -2.43-.52 6.17 6.17 0 0 1 -1.87-1.36 6.37 6.37 0 0 1 -1.63-4.26 6.21 6.21 0 0 1 .45-2.34 6.53 6.53 0 0 1 1.25-2 5.94 5.94 0 0 1 1.9-1.4 5.56 5.56 0 0 1 2.38-.51 5.36 5.36 0 0 1 2.41.54 6.22 6.22 0 0 1 1.86 1.42 6.57 6.57 0 0 1 1.2 2 6.38 6.38 0 0 1 .43 2.26 6.07 6.07 0 0 1 -.45 2.32 6.5 6.5 0 0 1 -1.23 2 6 6 0 0 1 -1.89 1.35 5.59 5.59 0 0 1 -2.38.5zm-3.53-6.17a4.88 4.88 0 0 0 .24 1.52 4 4 0 0 0 .69 1.3 3.39 3.39 0 0 0 1.11.91 3.43 3.43 0 0 0 3 0 3.63 3.63 0 0 0 1.12-.94 4.09 4.09 0 0 0 .68-1.31 4.71 4.71 0 0 0 .23-1.48 4.63 4.63 0 0 0 -.25-1.53 4.07 4.07 0 0 0 -.7-1.3 3.24 3.24 0 0 0 -1.11-.9 3.17 3.17 0 0 0 -1.49-.34 3.24 3.24 0 0 0 -1.5.36 3.51 3.51 0 0 0 -1.12.93 4.22 4.22 0 0 0 -.67 1.3 4.73 4.73 0 0 0 -.23 1.48z" fill="#334355"/><path d="m75.87 59.79v-12.17h8.18v2.07h-5.81v3.14h4.83v1.92h-4.83v5z" fill="#334355"/><path d="m85.71 59.79v-12.17h8.18v2.07h-5.81v3.14h4.83v1.92h-4.83v5z" fill="#334355"/><path d="m104 57.72v2.07h-8.45v-12.17h8.3v2.07h-5.93v2.94h5.13v1.92h-5.13v3.17z" fill="#334355"/><path d="m105.86 59.79v-12.17h5.38a3.49 3.49 0 0 1 1.55.35 3.92 3.92 0 0 1 1.23.93 4.34 4.34 0 0 1 .8 1.3 3.86 3.86 0 0 1 .3 1.47 4 4 0 0 1 -.6 2.15 3.33 3.33 0 0 1 -1.6 1.39l2.78 4.58h-2.7l-2.48-4.08h-2.34v4.08zm2.36-6.15h3a1.18 1.18 0 0 0 .61-.16 1.51 1.51 0 0 0 .49-.42 2.13 2.13 0 0 0 .32-.62 2.43 2.43 0 0 0 .12-.77 2.22 2.22 0 0 0 -.13-.79 2.43 2.43 0 0 0 -.37-.63 1.72 1.72 0 0 0 -.53-.41 1.37 1.37 0 0 0 -.61-.15h-2.87z" fill="#334355"/><g fill="#68bbab"><path d="m79.75 107.1h3.56v-10.67h-10.67v10.67zm-3.55-7.1h3.55v3.55h-3.55z"/><path d="m97.53 110.66h-7.11v-14.23h-3.56v14.23h-14.22v3.55h24.89z"/><path d="m101.09 110.66h3.56v3.56h-3.56z"/><path d="m86.86 121.33v3.09.46 3.09h3.56v-3.09-.46-3.09-3.56h-3.56z"/><path d="m76.2 117.77h-3.56v10.67h10.67v-10.67zm3.55 7.11h-3.55v-3.56h3.55z"/><path d="m97.53 117.77h-3.53v10.67h10.67v-10.67zm3.56 7.11h-3.56v-3.56h3.56z"/><path d="m101.09 96.43h-7.09v10.67h10.67v-10.67zm0 7.11h-3.56v-3.54h3.56z"/><path d="m64.29 74.2h50a1.78 1.78 0 0 0 0-3.56h-50a1.78 1.78 0 1 0 0 3.56z"/></g><path d="m114.29 77.76h-50a1.78 1.78 0 1 0 0 3.56h50a1.78 1.78 0 0 0 0-3.56z" fill="#334355"/><path d="m114.29 84.89h-50a1.78 1.78 0 1 0 0 3.56h50a1.78 1.78 0 0 0 0-3.56z" fill="#68bbab"/></svg>