<svg viewBox="0 0 150 150" xmlns="http://www.w3.org/2000/svg"><g fill="#2e4456"><path d="m60.72 10.36a2.68 2.68 0 1 0 -2.72-2.68 2.68 2.68 0 0 0 2.72 2.68zm0-4a1.34 1.34 0 1 1 -1.34 1.34 1.34 1.34 0 0 1 1.34-1.36z"/><path d="m15.18 9.19a1.79 1.79 0 1 0 1.82 1.81 1.79 1.79 0 0 0 -1.82-1.81zm0 2.68a.89.89 0 1 1 .89-.89.89.89 0 0 1 -.89.89z"/><path d="m5.36 48.21a1.79 1.79 0 1 0 1.78 1.79 1.79 1.79 0 0 0 -1.78-1.79zm0 2.68a.89.89 0 1 1 .89-.89.89.89 0 0 1 -.89.89z"/><path d="m142.24 5.89a1.79 1.79 0 1 0 1.76 1.79 1.79 1.79 0 0 0 -1.76-1.79zm0 2.68a.89.89 0 1 1 .89-.89.89.89 0 0 1 -.89.89z"/><path d="m143.3 51.82a1.79 1.79 0 1 0 -1.78 1.78 1.79 1.79 0 0 0 1.78-1.78zm-2.67 0a.89.89 0 1 1 .89.89.89.89 0 0 1 -.89-.89z"/></g><path d="m83.6 13.2 1.32-1.75-.83-.47-.86 1.95h-.02l-.87-1.94-.85.49 1.31 1.71v.02l-2.05-.26v.95l2.06-.27v.03l-1.32 1.7.79.51.91-1.97h.03l.84 1.95.88-.5-1.34-1.68v-.02l2.11.25v-.95l-2.11.28z" fill="#68bbab"/><path d="m29.76 22.49-.76.98.46.29.52-1.14h.02l.48 1.13.51-.29-.78-.96v-.02l1.22.14v-.54l-1.22.16v-.02l.77-1-.48-.28-.5 1.13h-.01l-.5-1.12-.49.28.75.98v.02l-1.18-.15v.54l1.19-.15z" fill="#68bbab"/><path d="m125.65 32.61v-.93l-2.07.27v-.03l1.3-1.71-.82-.46-.84 1.91h-.02l-.85-1.9-.84.48 1.29 1.67v.03l-2.02-.26v.93l2.03-.26v.03l-1.3 1.67.78.49.89-1.93h.03l.82 1.92.86-.5-1.31-1.64v-.03z" fill="#68bbab"/><path d="m111.92 6.06 1.12-1.48-.71-.4-.72 1.66h-.02l-.73-1.65-.72.42 1.11 1.44v.02l-1.74-.22v.8l1.75-.22v.02l-1.12 1.44.67.43.77-1.67h.02l.71 1.66.75-.43-1.14-1.42v-.02l1.78.21v-.8l-1.78.23z" fill="#68bbab"/><circle cx="1.79" cy="135.71" fill="#2e4456" r="1.79"/><path d="m9.82 133.93h-2.68a1.79 1.79 0 0 0 0 3.57h2.68a1.79 1.79 0 1 0 0-3.57z" fill="#2e4456"/><path d="m142.86 133.93h-2.68a1.79 1.79 0 1 0 0 3.57h2.68a1.79 1.79 0 0 0 0-3.57z" fill="#2e4456"/><circle cx="148.21" cy="135.71" fill="#2e4456" r="1.79"/><path d="m105.49 141.07h-7.41a1.79 1.79 0 0 0 0 3.57h7.41a1.79 1.79 0 0 0 0-3.57z" fill="#68bbab"/><path d="m51.92 141.07h-7.41a1.79 1.79 0 0 0 0 3.57h7.41a1.79 1.79 0 0 0 0-3.57z" fill="#68bbab"/><path d="m92.86 141.07h-35.72a1.79 1.79 0 0 0 0 3.57h14.24v1.79h-7.09a1.79 1.79 0 1 0 0 3.57h22.32a1.79 1.79 0 0 0 0-3.57h-8v-1.79h14.25a1.79 1.79 0 0 0 0-3.57z" fill="#68bbab"/><path d="m69.64 59.1h8.36.24c-3.27 5.93-5.46 11.36-5 20.61.75 15.43 11.48 23 21.26 23.71 1.23.09 2.45.14 3.66.14s2.47 0 3.71-.14c9.78-.73 20.51-8.28 21.26-23.71.51-10.64-2.45-16.22-6.55-23.34a6.35 6.35 0 0 0 -.14-6.69 7.53 7.53 0 0 0 1.36-4.91 7.88 7.88 0 0 0 -1.8-4.3 1.48 1.48 0 0 0 -.15-.31 6.52 6.52 0 0 0 -.4-4.43 7.23 7.23 0 0 0 -4-3.5 1.76 1.76 0 0 0 -.55-.09h-4.48c.55-1.66 1.26-3.6 2.13-5.58s.29-3.35-1.55-3.35h-18.28c-1.85 0-2.53 1.5-1.66 3.43s1.89 3.85 2.72 5.77a18.91 18.91 0 0 0 -5.47 1.76c-3.7 2-5.54 2.48-6.44 2.48h-6.87a1.79 1.79 0 1 0 0 3.57h6.91c2 0 4.57-.93 8.17-2.92a16 16 0 0 1 6.45-1.58h18a3.52 3.52 0 0 1 1.72 1.56 3.08 3.08 0 0 1 .15 2 1.78 1.78 0 0 0 .15 3.56h.79a4.25 4.25 0 0 1 1 2.27 4.64 4.64 0 0 1 -1.39 3.37 1.8 1.8 0 0 0 0 2.4 3 3 0 0 1 .06 4.35 2.63 2.63 0 0 0 -.64 2.1c0 1.91-.3 2.39-1.5 2.54l-16.35.82a15.43 15.43 0 0 1 -6.7-1.5l-1.3-.69c-2.8-1.48-6-3-8.46-3h-8.4a1.79 1.79 0 0 0 0 3.57zm33-27h-9.11c-.6-1.54-2.3-5-2.46-5.35h13.44c-.79 2-1.43 3.86-1.92 5.39zm-16.51 30.27a19.6 19.6 0 0 0 8 1.92l16.91-.84h.11a4.72 4.72 0 0 0 3.96-2.45c3 5.53 4.88 10.29 4.48 18.55-.64 13.16-9.48 19.69-18 20.32-1.15.08-2.31.13-3.45.13s-2.27-.05-3.39-.13c-8.48-.63-17.32-7.16-18-20.32-.42-8.67 1.63-13.47 4.93-19.38 1.37.57 4.45 2.2 4.45 2.2z" fill="#2e4456"/><circle cx="62.5" cy="57.15" fill="#2e4456" r="1.79"/><path d="m28.57 130.36a1.79 1.79 0 1 0 -1.78 1.79 1.78 1.78 0 0 0 1.78-1.79z" fill="#68bbab"/><circle cx="21.43" cy="46.43" fill="#2e4456" r="1.79"/><path d="m35.71 41.07h8.93a1.79 1.79 0 1 0 0-3.57h-8.93a1.79 1.79 0 0 0 0 3.57z" fill="#2e4456"/><path d="m44.64 51.79h-8.93a1.79 1.79 0 0 0 0 3.57h8.93a1.79 1.79 0 1 0 0-3.57z" fill="#2e4456"/><path d="m28.57 48.22h16.07a1.79 1.79 0 0 0 0-3.58h-16.07a1.79 1.79 0 0 0 0 3.58z" fill="#68bbab"/><path d="m95.32 91a8.09 8.09 0 0 0 1.11.38v1.48a1.79 1.79 0 1 0 3.57 0v-1.32a6.73 6.73 0 0 0 1.46-.47 5.43 5.43 0 0 0 3.21-6.51c-.93-3-3.6-3.84-5.75-4.48-1.49-.44-2.78-.83-3.33-1.78a2.3 2.3 0 0 1 0-2.31c.69-1.09 2.36-1.32 3.7-1a3.63 3.63 0 0 1 2.61 2.42 1.79 1.79 0 1 0 3.45-.93 7.21 7.21 0 0 0 -5.3-5v-1.8a1.79 1.79 0 1 0 -3.57 0v1.81a6 6 0 0 0 -3.92 2.64 5.87 5.87 0 0 0 0 6c1.26 2.18 3.56 2.87 5.4 3.42 2.08.61 3 1 3.36 2.09a1.92 1.92 0 0 1 -1.32 2.17 4.22 4.22 0 0 1 -5.46-2.42 1.78 1.78 0 0 0 -3.39 1.11 7.58 7.58 0 0 0 4.17 4.5z" fill="#68bbab"/><path d="m134.57 133.93h-30.14c5.62-2.29 16-7.12 22.31-11.83 4.31-3.25 3.76-6 3.33-7-.84-2-3.24-2.91-6.26-2.44-8.94 1.41-27.43 3.44-27.62 3.46a1.79 1.79 0 1 0 .39 3.55c.19 0 18.76-2.06 27.78-3.48 1.63-.26 2.36.16 2.42.3s-.27 1.33-2.19 2.78c-7.15 5.38-21 11.38-24.43 12.48a43.45 43.45 0 0 1 -11.74 2.21h-1.84a25.14 25.14 0 0 1 -7.27-1.29 74.57 74.57 0 0 1 -10.7-5c-4.3-2.29-8.74-4.65-13.55-5.92a12.51 12.51 0 0 0 -6-.22v-16.79c0-.15 0-.31 0-.46l5.59-1.66c.09 0 9.07-2.78 17.6 1.92 1.22.67 2.47 1.33 3.72 2a97.32 97.32 0 0 1 8.46 4.82c1.94 1.29 3 2.48 3.23 3.54a2.61 2.61 0 0 1 -.54 2c-.54.78-3.26 1-13.22-2.35-1.3-.44-2.33-.78-3-1a1.79 1.79 0 1 0 -.9 3.45c.56.14 1.57.48 2.75.88 7.7 2.59 14.82 4.62 17.31 1a6 6 0 0 0 1.1-4.66c-.4-2.06-2-4-4.77-5.84a97.87 97.87 0 0 0 -8.77-5c-1.23-.65-2.46-1.3-3.66-2-9.82-5.38-19.96-2.3-20.34-2.18l-5.56 1.65a9 9 0 0 0 -7.88-4.42h-13.39a1.79 1.79 0 0 0 0 3.58h13.39c3 0 5.36 2.12 5.36 4.73v19.1c0 2.61-2.41 4.74-5.36 4.74h-6.25a1.79 1.79 0 1 0 0 3.57h6.25a8.79 8.79 0 0 0 8.82-6.84 8.2 8.2 0 0 1 5.19-.12c4.41 1.16 8.47 3.32 12.78 5.61 2 1.06 4 2.15 6.14 3.13h-57.68a1.8 1.8 0 1 0 0 3.57h119.14a1.8 1.8 0 1 0 0-3.57z" fill="#2e4456"/></svg>