<svg viewBox="0 0 150 150" xmlns="http://www.w3.org/2000/svg"><path d="m61 8.93a2.68 2.68 0 1 0 -2.68-2.68 2.68 2.68 0 0 0 2.68 2.68zm0-4a1.34 1.34 0 1 1 -1.34 1.34 1.35 1.35 0 0 1 1.34-1.36z" fill="#2e4456"/><path d="m144.91 19.64a1.79 1.79 0 1 0 1.79 1.79 1.79 1.79 0 0 0 -1.79-1.79zm0 2.68a.89.89 0 1 1 .9-.89.89.89 0 0 1 -.9.89z" fill="#2e4456"/><path d="m82.41 10.71a1.79 1.79 0 1 0 1.79 1.79 1.79 1.79 0 0 0 -1.79-1.79zm0 2.68a.89.89 0 1 1 .9-.89.89.89 0 0 1 -.9.89z" fill="#2e4456"/><path d="m123.49 7.14a1.79 1.79 0 1 0 1.78 1.79 1.79 1.79 0 0 0 -1.78-1.79zm0 2.68a.89.89 0 1 1 .89-.89.89.89 0 0 1 -.89.89z" fill="#2e4456"/><path d="m13.66 49.11a1.79 1.79 0 1 0 -1.78 1.78 1.79 1.79 0 0 0 1.78-1.78zm-2.67 0a.89.89 0 1 1 .89.89.89.89 0 0 1 -.88-.89z" fill="#2e4456"/><path d="m38.29 19.65 1.33-1.74-.84-.48-.85 1.96h-.03l-.86-1.94-.86.48 1.32 1.71v.03l-2.06-.27v.95l2.07-.26v.02l-1.33 1.71.8.5.91-1.97h.02l.84 1.96.88-.51-1.34-1.67v-.03l2.11.25v-.95l-2.11.28z" fill="#68bbab"/><path d="m6.32 6.31-.76.98.46.29.52-1.13h.02l.48 1.12.51-.29-.78-.96v-.02l1.22.15v-.55l-1.22.16v-.02l.77-1-.49-.28-.49 1.13h-.01l-.5-1.12-.49.28.76.99v.01l-1.19-.15v.55l1.19-.16z" fill="#68bbab"/><path d="m138.66 44.39v-.94l-2.06.28v-.03l1.3-1.71-.82-.47-.84 1.92h-.03l-.85-1.9-.83.48 1.28 1.67v.03l-2.01-.27v.94l2.03-.26v.02l-1.3 1.68.78.49.89-1.93h.03l.82 1.91.86-.49-1.31-1.64v-.03z" fill="#68bbab"/><path d="m101.56 26.42 1.12-1.48-.71-.4-.72 1.65h-.02l-.73-1.64-.72.41 1.11 1.44v.03l-1.74-.23v.81l1.75-.23v.03l-1.12 1.44.67.42.77-1.66h.02l.71 1.65.74-.42-1.13-1.42v-.03l1.78.22v-.81l-1.78.24z" fill="#68bbab"/><path d="m105.49 141.07h-7.41a1.79 1.79 0 0 0 0 3.57h7.41a1.79 1.79 0 0 0 0-3.57z" fill="#68bbab"/><path d="m51.92 141.07h-7.41a1.79 1.79 0 0 0 0 3.57h7.41a1.79 1.79 0 0 0 0-3.57z" fill="#68bbab"/><path d="m92.86 141.07h-35.72a1.79 1.79 0 0 0 0 3.57h14.23v1.79h-7.08a1.79 1.79 0 1 0 0 3.57h22.32a1.79 1.79 0 0 0 0-3.57h-8v-1.79h14.25a1.79 1.79 0 0 0 0-3.57z" fill="#68bbab"/><path d="m51 92.88a1.58 1.58 0 0 0 .38 0l1.17-.25a4.84 4.84 0 0 0 2.41 2.33 3.38 3.38 0 0 0 .42.13v-7.87a1.78 1.78 0 0 0 -3.29.19 5.8 5.8 0 0 0 -.32 1.68l-1.15.26a1.79 1.79 0 0 0 .38 3.53z" fill="#2e4456"/><path d="m95.86 117.94a5.55 5.55 0 0 0 1.15.13 5.41 5.41 0 0 0 5.24-4.2l9.43-42.16a5.35 5.35 0 0 0 -4.07-6.39l-13.43-2.95a8.71 8.71 0 0 1 .46 2.81v.95l12.2 2.68a1.79 1.79 0 0 1 1.12.78 1.76 1.76 0 0 1 .23 1.34l-9.42 42.16a1.82 1.82 0 0 1 -2.14 1.36l-3.94-.86a8.88 8.88 0 0 1 -3.86 2.8z" fill="#2e4456"/><path d="m42.39 65.32a5.35 5.35 0 0 0 -4.07 6.39l9.43 42.16a5.41 5.41 0 0 0 5.24 4.2 5.55 5.55 0 0 0 1.15-.13l7-1.55a8.88 8.88 0 0 1 -3.86-2.8l-3.94.86a1.82 1.82 0 0 1 -2.14-1.36l-9.39-42.16a1.76 1.76 0 0 1 .19-1.34 1.79 1.79 0 0 1 1.12-.78l12.2-2.68v-.95a8.71 8.71 0 0 1 .46-2.81z" fill="#2e4456"/><path d="m82.14 73.92a1.79 1.79 0 0 0 1.79-1.79v-3.38a1.79 1.79 0 0 0 -1.79-1.75h-14.28a1.79 1.79 0 0 0 -1.79 1.79v3.57a1.79 1.79 0 1 0 3.57 0v-1.82h10.72v1.59a1.79 1.79 0 0 0 1.78 1.79z" fill="#68bbab"/><path d="m79.07 90.47a1.79 1.79 0 0 0 2.44-.67 6.7 6.7 0 0 0 .58-1.35h1a1.79 1.79 0 0 0 0-3.57h-.89a6.14 6.14 0 0 0 -.22-.73c-.89-2.27-3-3.41-5.08-2.69-2.28.79-2.86 3-3.27 4.6-.25.94-.5 1.9-1 2.21a.61.61 0 0 1 -.66 0 2.63 2.63 0 0 1 -.44-2.27 2.09 2.09 0 0 1 .29-.76 1.78 1.78 0 1 0 -3-1.87 5.79 5.79 0 0 0 -.67 1.56h-1.15a1.79 1.79 0 0 0 0 3.57h1.15a4.81 4.81 0 0 0 1.83 2.77 4 4 0 0 0 2.34.75 4.18 4.18 0 0 0 2.36-.73c1.6-1 2.06-2.84 2.44-4.28.31-1.18.55-2 1-2.13.17 0 .45.28.58.62a3.13 3.13 0 0 1 -.3 2.5 1.8 1.8 0 0 0 .67 2.47z" fill="#2e4456"/><path d="m80.5 106.25h1.64a1.79 1.79 0 0 0 1.79-1.79v-3.38a1.79 1.79 0 0 0 -3.57 0v.53c.06.78.08 1.49.09 2.13z" fill="#68bbab"/><g fill="#2e4456"><path d="m60.13 109.15c.49-2.66 1-5.41 1.66-8.13.05-.2.09-.4.14-.6a19.41 19.41 0 0 1 .57-2.13v-33.11a1.79 1.79 0 0 1 1.79-1.79h21.42a1.79 1.79 0 0 1 1.79 1.79v42.82a1.79 1.79 0 0 1 -1.79 1.78h-2.51a21.8 21.8 0 0 1 3.25 3.52 5.37 5.37 0 0 0 4.62-5.3v-42.82a5.36 5.36 0 0 0 -5.36-5.36h-21.42a5.36 5.36 0 0 0 -5.36 5.36v42.82a5.3 5.3 0 0 0 .86 2.89c.11-.55.21-1.15.34-1.74z"/><path d="m29.47 40.41s0 0 0 .06l.05 6a1.79 1.79 0 0 0 1.8 1.77 1.75 1.75 0 0 0 1.47-.79l6.7 13.21a1.78 1.78 0 0 0 1.59 1 1.7 1.7 0 0 0 .81-.2 1.78 1.78 0 0 0 .78-2.4l-6.81-13.46a1.78 1.78 0 0 0 1.77-3.09l-5.4-3.51a1.81 1.81 0 0 0 -2.76 1.41z"/><path d="m25 35.71a7.14 7.14 0 1 0 -7.14-7.14 7.13 7.13 0 0 0 7.14 7.14zm0-10.71a3.57 3.57 0 1 1 -3.57 3.57 3.57 3.57 0 0 1 3.57-3.57z"/><path d="m108.12 61.41a1.7 1.7 0 0 0 .81.2 1.78 1.78 0 0 0 1.59-1l6.7-13.21a1.75 1.75 0 0 0 1.48.79 1.79 1.79 0 0 0 1.79-1.77l.05-6s0 0 0-.06a2.08 2.08 0 0 0 0-.36 1.83 1.83 0 0 0 -2.67-1.11l-5.4 3.55a1.78 1.78 0 0 0 1.77 3.09l-6.9 13.47a1.78 1.78 0 0 0 .78 2.41z"/><path d="m125 35.71a7.14 7.14 0 1 0 -7.14-7.14 7.13 7.13 0 0 0 7.14 7.14zm0-10.71a3.57 3.57 0 1 1 -3.57 3.57 3.57 3.57 0 0 1 3.57-3.57z"/><path d="m75 35.71a7.14 7.14 0 1 0 -7.14-7.14 7.13 7.13 0 0 0 7.14 7.14zm0-10.71a3.57 3.57 0 1 1 -3.57 3.57 3.57 3.57 0 0 1 3.57-3.57z"/><path d="m75 56.25a1.79 1.79 0 0 0 1.79-1.79v-8.22l.28.44a1.79 1.79 0 0 0 1.5.82 1.74 1.74 0 0 0 1-.29 1.78 1.78 0 0 0 .53-2.47l-3.6-5.53a1.78 1.78 0 0 0 -3 0l-3.57 5.53a1.79 1.79 0 0 0 3 1.94l.28-.44v8.22a1.79 1.79 0 0 0 1.79 1.79z"/></g><path d="m55.36 69.83-7.81 1.72a1.8 1.8 0 0 0 -1.13.79 1.77 1.77 0 0 0 -.23 1.35l.78 3.5a1.79 1.79 0 0 0 1.74 1.4 1.87 1.87 0 0 0 .4 0 1.79 1.79 0 0 0 1.35-2.13l-.4-1.77 5.3-1.16z" fill="#68bbab"/><path d="m54 108.78a1.78 1.78 0 0 0 1.59 1.38 9.25 9.25 0 0 1 -.26-2.12v-4.9a1.77 1.77 0 0 0 -2.11 2.13z" fill="#68bbab"/><path d="m100.94 78.36a1.72 1.72 0 0 0 .39 0 1.78 1.78 0 0 0 1.74-1.36l.74-3.32a1.77 1.77 0 0 0 -.23-1.35 1.8 1.8 0 0 0 -1.13-.79l-7.81-1.72v3.66l5.3 1.16-.36 1.58a1.78 1.78 0 0 0 1.36 2.14z" fill="#68bbab"/><path d="m94.64 95.21a4.65 4.65 0 0 0 2.78-2 6.35 6.35 0 0 0 .39-.68l.85.19a1.72 1.72 0 0 0 .39 0 1.79 1.79 0 0 0 .38-3.53l-1-.21a6.7 6.7 0 0 0 -.28-1.47 1.79 1.79 0 0 0 -3.41 1.06 3.16 3.16 0 0 1 -.14 2.23z" fill="#2e4456"/><path d="m94.64 108a9.25 9.25 0 0 1 -.26 2.12 1.78 1.78 0 0 0 1.62-1.34l.74-3.32a1.79 1.79 0 0 0 -1.35-2.14 1.94 1.94 0 0 0 -.72 0z" fill="#68bbab"/><circle cx="1.79" cy="135.71" fill="#2e4456" r="1.79"/><path d="m9.82 133.93h-2.68a1.79 1.79 0 0 0 0 3.57h2.68a1.79 1.79 0 1 0 0-3.57z" fill="#2e4456"/><path d="m142.86 133.93h-2.68a1.79 1.79 0 1 0 0 3.57h2.68a1.79 1.79 0 0 0 0-3.57z" fill="#2e4456"/><circle cx="148.21" cy="135.71" fill="#2e4456" r="1.79"/><path d="m134.57 133.93h-2.43v-3.57a1.79 1.79 0 1 0 -3.57 0v3.57h-3.57v-9.82a1.79 1.79 0 1 0 -3.57 0v9.82h-3.57v-3.57a1.79 1.79 0 1 0 -3.57 0v3.57h-20.54v-3.57a1.79 1.79 0 0 0 -1.75-1.79h-.89v-9.08a1.78 1.78 0 0 0 -1.78-1.79h-4.33a19.72 19.72 0 0 0 -8-7.9l-.11-6a13.74 13.74 0 0 0 -.89-5.44c-1.13-2.5-3.9-3.45-6.9-2.39-2.71 1-3.26 3.42-3.65 5.22 0 .23-.1.45-.16.67-.64 2.63-1.14 5.33-1.62 7.94-.25 1.33-.49 2.65-.75 3.91-.37 1.6-1 5.35.93 6.92l6.51 7.68v.26h-1.61a1.79 1.79 0 0 0 -1.75 1.79v3.57h-31.29v-3.57a1.79 1.79 0 1 0 -3.57 0v3.57h-3.57v-9.82a1.79 1.79 0 1 0 -3.57 0v9.82h-3.57v-3.57a1.79 1.79 0 1 0 -3.57 0v3.57h-2.43a1.8 1.8 0 1 0 0 3.57h119.14a1.8 1.8 0 1 0 0-3.57zm-68.4-16c-.19-.52 2.68-15.72 2.73-16 .37-1.65.59-2.35 1.37-2.62s2-.53 2.44.48a10.61 10.61 0 0 1 .6 4.06l.12 6.14v.89a1.8 1.8 0 0 0 1.06 1.63c.06 0 5.68 2.6 7.65 7.6a1.79 1.79 0 0 0 1.66 1.13h3.7v7.3h-13.6v-.92a1.79 1.79 0 0 0 -.42-1.15s-7.22-8.47-7.31-8.54zm4.37 16v-1.79h19.64v1.79z" fill="#2e4456"/></svg>