<svg viewBox="0 0 150 150" xmlns="http://www.w3.org/2000/svg"><circle cx="1.79" cy="135.71" fill="#2e4456" r="1.79"/><path d="m9.82 133.93h-2.68a1.79 1.79 0 0 0 0 3.57h2.68a1.79 1.79 0 1 0 0-3.57z" fill="#2e4456"/><path d="m142.86 133.93h-2.68a1.79 1.79 0 1 0 0 3.57h2.68a1.79 1.79 0 0 0 0-3.57z" fill="#2e4456"/><circle cx="148.21" cy="135.71" fill="#2e4456" r="1.79"/><g fill="#68bbab"><path d="m105.49 141.07h-7.41a1.79 1.79 0 0 0 0 3.57h7.41a1.79 1.79 0 0 0 0-3.57z"/><path d="m51.92 141.07h-7.41a1.79 1.79 0 0 0 0 3.57h7.41a1.79 1.79 0 0 0 0-3.57z"/><path d="m92.86 141.07h-35.72a1.79 1.79 0 0 0 0 3.57h14.24v1.79h-7.09a1.79 1.79 0 1 0 0 3.57h22.32a1.79 1.79 0 0 0 0-3.57h-8v-1.79h14.25a1.79 1.79 0 0 0 0-3.57z"/><circle cx="121.43" cy="101.79" r="1.79"/><circle cx="29.46" cy="100.89" r="1.79"/></g><path d="m134.57 133.93h-51.14a5.63 5.63 0 0 0 1.08-1.37 5.68 5.68 0 0 0 7-.43 5.56 5.56 0 0 0 1.71-2.88 5 5 0 0 0 5.38-1.07 5.53 5.53 0 0 0 1.82-3.48l3.76-.86a4 4 0 0 0 3.43 2h4.46a4.13 4.13 0 0 0 4-4.23v-.23h14.29a1.79 1.79 0 0 0 1.78-1.79v-25a1.78 1.78 0 0 0 -1.78-1.78h-14.29v-.23a4.14 4.14 0 0 0 -4-4.24h-4.46a4 4 0 0 0 -3.52 2.24c-6.28-.98-13.6-4.58-13.71-4.58-4.33-2.06-7.09-3.1-7.2-3.14a1.18 1.18 0 0 0 -.31-.08c-9.1-1.62-12.46.5-13.21 1.12l-9.77 7.21h-11.74a4.11 4.11 0 0 0 -3.95-3.61h-4.47a4.18 4.18 0 0 0 -4 4.3v.2h-16.09a1.78 1.78 0 0 0 -1.78 1.78v25a1.79 1.79 0 0 0 1.78 1.79h16.07v.16a4.18 4.18 0 0 0 4 4.3h4.49a4.1 4.1 0 0 0 3.95-3.63h.77l16 12.56h-49.49a1.8 1.8 0 1 0 0 3.57h119.14a1.8 1.8 0 1 0 0-3.57zm-18.5-37.5h12.5v21.43h-12.5zm-8.93-3.8c0-.38.24-.66.45-.66h4.46c.21 0 .45.28.45.66v2.91h-5.36zm0 6.48h5.36v5.36h-5.36zm0 8.93h5.36v5.35h-5.36zm0 8.93h5.36v4.69c0 .38-.24.66-.45.66h-4.46c-.21 0-.45-.28-.45-.66zm-71.43 0h-14.28v-21.43h14.28zm8.93 3.73c0 .45-.26.73-.44.73h-4.47c-.18 0-.44-.28-.44-.73v-3.7h5.35zm0-7.31h-5.35v-5.39h5.35zm0-8.92h-5.35v-5.36h5.35zm0-8.93h-5.35v-3.74c0-.44.26-.73.44-.73h4.47c.18 0 .44.29.44.73zm13.93.93.18-.12 13.08-9.65.07-.06s2.47-1.76 10.18-.42c.61.24 3.14 1.23 6.73 3 .38.19 7.92 3.89 14.76 5v26.14l-4.06.93-24.71-27.9a1.76 1.76 0 0 0 -1.28-.55 1.81 1.81 0 0 0 -1.12.4c-3.07 2.48-7 5.31-7.92 5.58-1.28.32-5 .77-6.68-1 0 0-.23-.31-.21-.45s.24-.48.98-.9zm11.05 36.59-19-14.88a1.76 1.76 0 0 0 -1.1-.39h-1.31v-23.15h6.94a4.09 4.09 0 0 0 -1.15 2.28 4.34 4.34 0 0 0 1.25 3.42c3.46 3.58 9.8 2 10.06 2 1.67-.42 5.54-3.31 8-5.25l23.46 26.54a2 2 0 0 1 .05.55 2 2 0 0 1 -.67 1.39c-.51.46-1.14 1-3.14-.37l-.73-.74-7.63-8.19a1.79 1.79 0 1 0 -2.62 2.44l6.79 7.28c.29.29 1.13 1.36.9 2.14a2.69 2.69 0 0 1 -.66 1.39 2.09 2.09 0 0 1 -2.91-.15l-1.15-1.37a1.8 1.8 0 0 0 -.28-.4l-8.27-8.82a1.78 1.78 0 0 0 -2.6 2.44l7.75 8.28a2 2 0 0 1 -.6 1.89 2.08 2.08 0 0 1 -2.91-.14l-1.93-2.13a1.57 1.57 0 0 0 -.41-.32l-8.25-8.18a1.79 1.79 0 1 0 -2.5 2.5l8.28 8.19.1.09a2 2 0 0 1 -.58 2 1.74 1.74 0 0 1 -1 .51h-.2a3.64 3.64 0 0 1 -1.98-.85z" fill="#2e4456"/><path d="m108.28 75.8a6.74 6.74 0 0 0 1 .34v1.27a1.55 1.55 0 1 0 3.09 0v-1.14a6.16 6.16 0 0 0 1.26-.4 4.7 4.7 0 0 0 2.78-5.63c-.81-2.63-3.12-3.31-5-3.87-1.29-.38-2.41-.71-2.89-1.54a2 2 0 0 1 0-2c.59-1 2-1.14 3.19-.91a3.18 3.18 0 0 1 2.21 2.08 1.54 1.54 0 1 0 3-.8 6.16 6.16 0 0 0 -4.57-4.3v-1.54a1.55 1.55 0 1 0 -3.09 0v1.57a5 5 0 0 0 -3.4 7.45c1.1 1.88 3.08 2.48 4.68 3 1.79.54 2.61.87 2.9 1.81a1.66 1.66 0 0 1 -1.08 1.91 3.65 3.65 0 0 1 -4.75-2.1 1.54 1.54 0 1 0 -2.93 1 6.52 6.52 0 0 0 3.6 3.8z" fill="#68bbab"/><path d="m74 70.47a7.71 7.71 0 0 0 1.14.4v1.52a1.84 1.84 0 1 0 3.67 0v-1.39a7.18 7.18 0 0 0 1.51-.48 5.6 5.6 0 0 0 3.31-6.71c-1-3.13-3.71-4-5.92-4.61-1.54-.46-2.87-.85-3.44-1.84a2.37 2.37 0 0 1 0-2.37c.71-1.13 2.43-1.36 3.81-1.09a3.74 3.74 0 0 1 2.69 2.49 1.84 1.84 0 1 0 3.55-1 7.4 7.4 0 0 0 -5.46-5.13v-1.78a1.84 1.84 0 1 0 -3.67 0v1.87a6.15 6.15 0 0 0 -4 2.72 6 6 0 0 0 0 6.16c1.31 2.26 3.67 3 5.58 3.53 2.13.63 3.11 1 3.45 2.15a2 2 0 0 1 -1.29 2.28 4.32 4.32 0 0 1 -5.61-2.49 1.84 1.84 0 1 0 -3.5 1.14 7.76 7.76 0 0 0 4.18 4.63z" fill="#2e4456"/><path d="m39.63 75.8a7.34 7.34 0 0 0 1 .34v1.27a1.55 1.55 0 1 0 3.09 0v-1.14a6.36 6.36 0 0 0 1.26-.4 4.7 4.7 0 0 0 2.77-5.63c-.8-2.63-3.11-3.31-5-3.87-1.29-.38-2.4-.71-2.88-1.54a2 2 0 0 1 0-2c.6-1 2-1.14 3.2-.91a3.14 3.14 0 0 1 2.2 2.08 1.54 1.54 0 1 0 3-.8 6.17 6.17 0 0 0 -4.57-4.3v-1.54a1.55 1.55 0 1 0 -3.09 0v1.57a5 5 0 0 0 -3.4 7.45c1.09 1.88 3.08 2.48 4.67 3 1.8.54 2.61.87 2.9 1.81a1.66 1.66 0 0 1 -1.08 1.91 3.63 3.63 0 0 1 -4.7-2.1 1.54 1.54 0 1 0 -2.93 1 6.53 6.53 0 0 0 3.56 3.8z" fill="#68bbab"/></svg>