<svg viewBox="0 0 150 150" xmlns="http://www.w3.org/2000/svg"><path d="m146.88 62.5c-24.54 0-38.15 6.28-38.72 6.54a3.1 3.1 0 0 0 -1.46 4.2c-4.73-1.79-11.32-4.39-17.92-7.35-11.27-5-18.54-3.48-26.59 2.86h-25c.14-1 .25-2 .33-2.86a3.11 3.11 0 0 0 -1-2.53c-5.36-5.08-26.78-6.72-33.22-7.1a3.11 3.11 0 0 0 -2.3.84 3.15 3.15 0 0 0 -1 2.28v56.25a3.13 3.13 0 0 0 3.13 3.12h18.75a3.11 3.11 0 0 0 3-2.16c.07-.19.33-1 .74-2.28l2.31 2.41c2.79 2.91 5.67 5.92 7.6 7.55 11.64 9.74 25.63 20.26 28.42 22.09 2.26 1.52 7.21 3.64 11.05 3.64 3.08 0 5.45-.71 7.09-2.09a9.76 9.76 0 0 0 7.11-.07 12.35 12.35 0 0 0 6.51-6 12 12 0 0 0 7.84-1.13 10.57 10.57 0 0 0 5.22-5.45 10.22 10.22 0 0 0 7.17-2.57 9.84 9.84 0 0 0 3.36-9.46l5-3.34c.35 1.12.64 2.08.84 2.83a3.14 3.14 0 0 0 3 2.29h18.75a3.12 3.12 0 0 0 3.12-3.12v-56.26a3.12 3.12 0 0 0 -3.13-3.13zm-127.29 50h-13.34v-49.77c10 .79 20.88 2.51 24.82 4.43-1.66 13.68-9.15 38-11.48 45.34zm92.28 15.43c-1.2 1-2.82 1.37-3.75.8-2.37-1.91-12.23-12-18.36-18.39a3.12 3.12 0 1 0 -4.51 4.32c1.45 1.52 13.13 13.68 17.8 17.94a4.33 4.33 0 0 1 -2.3 2.51c-2 1-4.09.83-4.87.11l-.12-.12c-3.75-3-13.15-13-15.28-15.3a3.12 3.12 0 0 0 -4.6 4.23c.1.11 9.27 10 14.46 14.65a6.05 6.05 0 0 1 -3.34 3.32 3.3 3.3 0 0 1 -3.59-.56l-.06-.06c-4.54-3.78-13.66-13.49-15.44-15.38a3.13 3.13 0 0 0 -4.57 4.27c2.12 2.26 8.42 8.94 13.15 13.4a11.88 11.88 0 0 1 -1.49.09 18.09 18.09 0 0 1 -7.66-2.62c-2.19-1.44-16-11.7-27.83-21.65-1.67-1.41-4.55-4.42-7.1-7.09-1.87-2-3.6-3.74-4.74-4.81 2.61-8.59 6.38-21.84 8.46-32.59h19.17c-4.27 4.29-10 12.89-8.53 19.21a7.71 7.71 0 0 0 5.37 5.63c7.08 2.34 13.54.1 18.35-6.28a16 16 0 0 0 4.7-1.49c.58-.26 1.27-.57 2.19-.94 3.57 3.36 8.4 7.26 13.48 11.37 9.18 7.43 19.6 15.86 22 20.73a3.67 3.67 0 0 1 -.99 4.7zm4.68-10.4c-4.31-5.76-13.15-12.92-21.76-19.89-5.68-4.58-11-8.92-14.46-12.34a3.12 3.12 0 0 0 -3.27-.73c-2.1.76-3.4 1.35-4.43 1.81a10.46 10.46 0 0 1 -4.19 1.14 3.17 3.17 0 0 0 -2.29 1.37c-4.42 6.61-9 6-12.05 5-1-.32-1.15-.74-1.24-1.14-.66-2.74 2.63-9.13 6.9-13.4 10.16-10.16 15.4-12.71 26.46-7.76 10.5 4.69 21 8.52 24.22 9.68 3.66 8.92 8.62 22.78 11.83 32.4zm27.2 1.22h-13.29c-3-9.65-11.71-34.81-16.59-45.21 4.77-1.62 15-4.4 29.88-4.75z" fill="#5db9ae"/></svg>