<svg viewBox="0 0 150 150" xmlns="http://www.w3.org/2000/svg"><path d="m57.86 82.72a3.9 3.9 0 0 1 1.41-1 4.85 4.85 0 0 1 1.88-.35 4.07 4.07 0 0 1 1.68.3 3 3 0 0 1 1.05.74 12.6 12.6 0 0 1 .94 1.3 1.48 1.48 0 0 0 .51.42 1.45 1.45 0 0 0 1.67-.28 1.23 1.23 0 0 0 .43-.95 2.46 2.46 0 0 0 -.43-1.19 4.54 4.54 0 0 0 -1.09-1.27 6.1 6.1 0 0 0 -1.89-1 8.45 8.45 0 0 0 -2.68-.39 9.67 9.67 0 0 0 -3.29.52 6.73 6.73 0 0 0 -2.45 1.52 6.36 6.36 0 0 0 -1.54 2.41 9.22 9.22 0 0 0 -.52 3.13 8.75 8.75 0 0 0 .54 3.15 6.57 6.57 0 0 0 4 3.92 9.29 9.29 0 0 0 3.15.52 10.77 10.77 0 0 0 2.77-.33 12.5 12.5 0 0 0 2.61-1 4.11 4.11 0 0 0 .77-.52 1.41 1.41 0 0 0 .41-.61 2.71 2.71 0 0 0 .12-.9v-2.86a2 2 0 0 0 -.27-1.14 1.26 1.26 0 0 0 -.71-.49 4.66 4.66 0 0 0 -1.08-.11h-3.49a1.44 1.44 0 0 0 -1 .32 1 1 0 0 0 -.36.81.89.89 0 0 0 .43.85 2.59 2.59 0 0 0 1.28.25h2.35v2.38a9.79 9.79 0 0 1 -1.87.78 7.46 7.46 0 0 1 -2 .27 4.22 4.22 0 0 1 -3.37-1.4 5.84 5.84 0 0 1 -1.21-4 7.07 7.07 0 0 1 .39-2.14 4.43 4.43 0 0 1 .86-1.66z" fill="#2e4456"/><path d="m89.1 93.79a1.47 1.47 0 0 0 1.08.43 1.42 1.42 0 0 0 1.06-.43 1.79 1.79 0 0 0 .41-1.31v-11.09h3.25a1.79 1.79 0 0 0 1.15-.32 1.07 1.07 0 0 0 .38-.85 1.08 1.08 0 0 0 -.38-.85 1.7 1.7 0 0 0 -1.15-.32h-9.47a1.69 1.69 0 0 0 -1.11.31 1.15 1.15 0 0 0 0 1.71 1.71 1.71 0 0 0 1.13.32h3.25v11.09a1.82 1.82 0 0 0 .4 1.31z" fill="#2e4456"/><path d="m57.18 121.94a9.75 9.75 0 0 1 -2.59-5.27c-5.92-3.61-10.26-9.33-10.77-17.33-.82-13 5.4-23.47 12.24-32.91.65-.89 7.65-10.51 10.39-14.6h17.1c2.73 4.08 9.74 13.7 10.39 14.6 6.84 9.44 13.06 20 12.24 32.91-.64 10.11-7.41 16.59-15.75 19.74a9.78 9.78 0 0 1 3 2.58c8.62-3.81 15.58-11.06 16.28-22.1.87-13.73-5.37-24.82-12.91-35.22-3.8-5.34-7.73-10.57-11.33-16.08h-20.94c-3.6 5.51-7.53 10.74-11.36 16.08-7.54 10.4-13.78 21.49-12.91 35.22.74 11.31 8 18.65 16.92 22.38z" fill="#2e4456"/><path d="m64.29 121.43a6.25 6.25 0 1 0 -6.29-6.24 6.24 6.24 0 0 0 6.29 6.24zm0-8.92a2.68 2.68 0 1 1 -2.68 2.68 2.68 2.68 0 0 1 2.68-2.68z" fill="#2e4456"/><path d="m64.29 41.12a1.79 1.79 0 1 0 0 3.57h21.42a1.79 1.79 0 1 0 0-3.57z" fill="#68bbab"/><g fill="#2e4456"><path d="m65.24 37.55h19.54a33.65 33.65 0 0 1 4.28-9.87c1.15-1.78 3.93-3.43 4-5.76 0-1.74-1.73-2.39-3.19-2.26a7.52 7.52 0 0 0 -2.22.57c-1.89.79-3.37 2.29-5.13 3.29a6.22 6.22 0 0 1 -4.32.8c-1.73-.36-2.41-2.49-4-3-1.89-.58-3.29 1.44-4.58 2.41a5.1 5.1 0 0 1 -4.77.95c-1.74-.59-3.16-1.77-5-2.19-1.07-.25-2.47.22-2.63 1.43-.19 1.42 1.22 2.44 2 3.37 0 .02 3.78 2.84 6.02 10.26zm6.47-10.95c.58-.44 1.06-1 1.65-1.43 1.71 1.71 3.42 2.83 5.93 2.83 3.16 0 5.44-1.64 7.28-3q-.27.36-.51.72a36.83 36.83 0 0 0 -3.94 8.28h-14.34a28.54 28.54 0 0 0 -2.9-5.58 8.73 8.73 0 0 0 6.83-1.82z"/><path d="m142.86 11.61a2.68 2.68 0 1 0 2.68 2.68 2.68 2.68 0 0 0 -2.68-2.68zm0 4a1.34 1.34 0 1 1 1.34-1.34 1.35 1.35 0 0 1 -1.34 1.36z"/><path d="m65.18 15.18a2.68 2.68 0 1 0 -2.68-2.68 2.68 2.68 0 0 0 2.68 2.68zm0-4a1.34 1.34 0 1 1 -1.34 1.34 1.34 1.34 0 0 1 1.34-1.36z"/><path d="m108 33a1.79 1.79 0 1 0 -1.79-1.79 1.79 1.79 0 0 0 1.79 1.79zm0-2.68a.89.89 0 1 1 -.9.89.89.89 0 0 1 .9-.85z"/><path d="m81.25 19.64a1.79 1.79 0 1 0 -1.79-1.78 1.79 1.79 0 0 0 1.79 1.78zm0-2.68a.9.9 0 1 1 -.89.9.89.89 0 0 1 .89-.86z"/><path d="m44.64 37.5a1.79 1.79 0 1 0 -1.78-1.79 1.79 1.79 0 0 0 1.78 1.79zm0-2.68a.9.9 0 1 1 -.89.89.89.89 0 0 1 .89-.89z"/><circle cx="1.79" cy="134.82" r="1.79"/><path d="m9.82 133h-2.68a1.79 1.79 0 0 0 0 3.57h2.68a1.79 1.79 0 1 0 0-3.57z"/><path d="m142.86 133h-2.68a1.79 1.79 0 1 0 0 3.57h2.68a1.79 1.79 0 0 0 0-3.57z"/><circle cx="148.21" cy="134.82" r="1.79"/><path d="m134.57 133h-45.65a6.26 6.26 0 1 0 -6.41 0h-13.1l14.22-21.32a1.78 1.78 0 1 0 -3-2l-14.26 21.47a1.79 1.79 0 0 0 -.05 1.89h-50.89a1.8 1.8 0 1 0 0 3.57h119.14a1.8 1.8 0 1 0 0-3.57zm-48.86-8a2.68 2.68 0 1 1 -2.71 2.68 2.69 2.69 0 0 1 2.71-2.68z"/></g><path d="m78.4 91.42a3.47 3.47 0 0 1 -2.13.61 3.42 3.42 0 0 1 -1.55-.3 2.48 2.48 0 0 1 -.91-.77 5.63 5.63 0 0 1 -.6-1.18 2.43 2.43 0 0 0 -.56-.89 1.11 1.11 0 0 0 -.79-.3 1.27 1.27 0 0 0 -1 .39 1.25 1.25 0 0 0 -.37.92 3.56 3.56 0 0 0 .62 1.92 4.71 4.71 0 0 0 1.62 1.58 7 7 0 0 0 3.56.82 7.42 7.42 0 0 0 3.12-.6 4.56 4.56 0 0 0 2-1.67 4.33 4.33 0 0 0 .68-2.39 4.07 4.07 0 0 0 -.39-1.87 3.54 3.54 0 0 0 -1.1-1.27 6.75 6.75 0 0 0 -1.7-.85 21.92 21.92 0 0 0 -2.24-.64c-.65-.17-1.13-.29-1.41-.38a4.81 4.81 0 0 1 -.85-.36 2 2 0 0 1 -.66-.55 1.29 1.29 0 0 1 -.23-.76 1.48 1.48 0 0 1 .7-1.22 3.14 3.14 0 0 1 1.85-.5 2.78 2.78 0 0 1 1.79.46 3.83 3.83 0 0 1 1 1.3 3.08 3.08 0 0 0 .57.83 1.05 1.05 0 0 0 .77.26 1.17 1.17 0 0 0 .93-.43 1.39 1.39 0 0 0 .37-1 2.81 2.81 0 0 0 -.29-1.19 3.74 3.74 0 0 0 -.95-1.17 4.88 4.88 0 0 0 -1.63-.89 7.31 7.31 0 0 0 -2.33-.33 7.63 7.63 0 0 0 -2.92.5 4.13 4.13 0 0 0 -1.9 1.5 3.63 3.63 0 0 0 -.66 2.15 3.44 3.44 0 0 0 .63 2.12 4.13 4.13 0 0 0 1.68 1.36 14.11 14.11 0 0 0 2.64.86 19 19 0 0 1 1.87.51 2.83 2.83 0 0 1 1.15.7 1.6 1.6 0 0 1 .44 1.18 1.84 1.84 0 0 1 -.82 1.54z" fill="#68bbab"/><path d="m13.91 52.69 1.33-1.75-.84-.47-.85 1.95h-.03l-.86-1.94-.86.49 1.32 1.7v.03l-2.06-.26v.95l2.07-.27v.03l-1.33 1.7.8.51.91-1.97h.03l.83 1.95.89-.5-1.35-1.68v-.02l2.11.25v-.95l-2.11.28z" fill="#68bbab"/><path d="m19.89 12.29.77-1-.48-.27-.5 1.12h-.01l-.5-1.12-.49.28.75.99v.01l-1.18-.15v.55l1.19-.16v.02l-.76.98.46.29.52-1.13h.02l.48 1.12.51-.29-.78-.96v-.02l1.22.15v-.55l-1.22.16z" fill="#68bbab"/><path d="m23.46 30.15.77-1.01-.48-.27-.49 1.13h-.02l-.5-1.12-.49.28.76.98v.02l-1.19-.15v.54l1.2-.15v.02l-.77.98.46.29.52-1.14h.02l.48 1.13.51-.29-.78-.97v-.01l1.22.14v-.54l-1.22.16z" fill="#68bbab"/><path d="m141.07 49.74v-.93l-2.07.28v-.03l1.31-1.71-.83-.47-.83 1.92h-.03l-.85-1.91-.84.48 1.29 1.68v.02l-2.01-.26v.93l2.03-.26v.03l-1.31 1.67.78.5.9-1.94h.02l.83 1.92.86-.49-1.32-1.65v-.02z" fill="#68bbab"/><path d="m105.75 8.56 1.13-1.48-.71-.4-.72 1.65h-.03l-.73-1.64-.72.42 1.11 1.44v.02l-1.74-.22v.8l1.75-.22v.02l-1.12 1.44.67.43.77-1.67h.02l.71 1.65.75-.42-1.14-1.42v-.02l1.79.21v-.8l-1.79.23z" fill="#68bbab"/><path d="m105.49 141.07h-7.41a1.79 1.79 0 0 0 0 3.57h7.41a1.79 1.79 0 0 0 0-3.57z" fill="#68bbab"/><path d="m51.92 141.07h-7.41a1.79 1.79 0 0 0 0 3.57h7.41a1.79 1.79 0 0 0 0-3.57z" fill="#68bbab"/><path d="m92.86 141.07h-35.72a1.79 1.79 0 0 0 0 3.57h14.23v1.79h-7.08a1.79 1.79 0 1 0 0 3.57h22.32a1.79 1.79 0 0 0 0-3.57h-8v-1.79h14.25a1.79 1.79 0 0 0 0-3.57z" fill="#68bbab"/></svg>