<?xml version="1.0" encoding="utf-8"?>
<!-- Generator: Adobe Illustrator 23.0.4, SVG Export Plug-In . SVG Version: 6.00 Build 0)  -->
<svg version="1.1" id="Layer_1" xmlns="http://www.w3.org/2000/svg" xmlns:xlink="http://www.w3.org/1999/xlink" x="0px" y="0px"
	 viewBox="0 0 150 131.5" style="enable-background:new 0 0 150 131.5;" xml:space="preserve">
<style type="text/css">
	.st0{fill:#2E4456;}
	.st1{fill:#68BBAB;}
</style>
<g>
	<path class="st0" d="M4.6,114.9H1.9c-1,0.1-1.8,1-1.7,2c0.1,0.9,0.8,1.7,1.7,1.7h2.8c1-0.1,1.8-1,1.7-2
		C6.3,115.6,5.5,114.9,4.6,114.9z"/>
	<path class="st0" d="M142.6,114.9h-2.8c-1,0.1-1.8,1-1.7,2c0.1,0.9,0.8,1.7,1.7,1.7h2.8c1-0.1,1.8-1,1.7-2
		C144.2,115.6,143.5,114.9,142.6,114.9z"/>
	<circle class="st0" cx="148.1" cy="116.7" r="1.9"/>
</g>
<path class="st1" d="M103.8,122.3h-7.7c-1,0.1-1.8,1-1.7,2c0.1,0.9,0.8,1.6,1.7,1.7h7.7c1-0.1,1.8-1,1.7-2
	C105.4,123,104.7,122.4,103.8,122.3z"/>
<path class="st1" d="M48.3,122.3h-7.7c-1,0.1-1.8,1-1.7,2c0.1,0.9,0.8,1.6,1.7,1.7h7.7c1-0.1,1.8-1,1.7-2
	C49.9,123,49.2,122.4,48.3,122.3z"/>
<path class="st1" d="M90.7,122.3h-37c-1,0-1.8,0.8-1.8,1.9c0,1,0.8,1.8,1.8,1.8h14.7v1.9h-7.3c-1,0-1.8,0.8-1.8,1.9
	c0,1,0.8,1.8,1.8,1.8h23.2c1,0,1.9-0.8,1.9-1.8s-0.8-1.9-1.8-1.9c0,0,0,0,0,0H76V126h14.7c1,0,1.9-0.8,1.9-1.8
	S91.8,122.3,90.7,122.3C90.7,122.3,90.7,122.3,90.7,122.3z"/>
<path class="st0" d="M51.9,44.2c0.3,0.4,0.8,0.5,1.3,0.5c0.5,0,1-0.2,1.3-0.5c0.7-0.7,0.7-1.9,0-2.6c0,0,0,0,0,0L38.2,25.2
	c-0.7-0.7-1.9-0.7-2.6,0.1c-0.7,0.7-0.7,1.8,0,2.5L51.9,44.2z"/>
<path class="st0" d="M86.6,36.1c1,0,1.8-0.8,1.8-1.8V11.4c0-1-0.8-1.8-1.9-1.8c-1,0-1.8,0.8-1.8,1.8v22.8
	C84.7,35.2,85.5,36.1,86.6,36.1C86.6,36.1,86.6,36.1,86.6,36.1z"/>
<path class="st1" d="M61.7,24.5c0.2,0.8,0.9,1.4,1.8,1.4c0.2,0,0.3,0,0.5-0.1c1-0.3,1.6-1.2,1.3-2.2L59.7,1.4
	c-0.2-1-1.3-1.6-2.2-1.3c-1,0.2-1.6,1.3-1.3,2.2l0,0L61.7,24.5z"/>
<path class="st0" d="M66.5,41.2l-0.7,4.1l3.7-1.9l3.7,1.9l-0.7-4.1l3-2.9l-4.1-0.6l-1.8-3.7l-1.8,3.7l-4.1,0.6L66.5,41.2z"/>
<path class="st1" d="M73.6,15.5l1.2,2.8l1.5-2.7l3.1-0.3L77.3,13l0.7-3l-2.8,1.3l-2.7-1.5l0.4,3.1l-2.3,2.1L73.6,15.5z"/>
<path class="st1" d="M47.1,21l2.1-2.3l3,0.4l-1.5-2.7l1.3-2.8l-3,0.6l-2.2-2.1l-0.3,3.1l-2.7,1.5l2.8,1.3L47.1,21z"/>
<path class="st0" d="M134,114.9H88.8c4-1.9,7.6-4.7,10.6-8l6.1-6.7l0.1-0.1l3-3.3c3.3-3.3,3.3-8.6,0-11.9c-1.1-1.1-2.6-1.9-4.2-2.3
	c0.2-0.7,0.3-1.3,0.3-2c0-3.8-2.9-7.1-6.7-7.5c0.3-0.8,0.5-1.7,0.5-2.6c0-4-2.8-7.4-6.7-8.2l10.1-10c3.5-3.1,3.8-8.4,0.7-11.8
	s-8.4-3.8-11.8-0.7c-0.3,0.3-0.6,0.6-0.9,0.9C78.7,52.4,65,65.7,59.6,67.9c-3.2,1.3-3.9,0.3-6.3-3.7c-1.7-3.1-3.9-5.9-6.6-8.2
	c-2.8-2.6-7.2-2.7-10.1-0.2c-3.5,2.8-4,7.6-1.2,11.7c5.8,8.3,5.8,12.1,5.7,15.8c-0.2,17.5,7.8,27.1,16.4,31.7h-47
	c-1-0.1-2,0.6-2.1,1.6s0.6,2,1.6,2.1c0.2,0,0.3,0,0.5,0H134c1,0.1,2-0.6,2.1-1.6s-0.6-2-1.6-2.1C134.3,114.8,134.2,114.8,134,114.9
	L134,114.9z M102.6,86.2c1.2,0,2.4,0.5,3.3,1.4c1.8,1.9,1.8,4.8-0.1,6.7c0,0,0,0,0,0l-2.9,3.2c-1.6,0.8-3.5,0.4-4.8-0.8
	c0-0.1-0.1-0.1-0.2-0.2c-1.5-1.5-1.7-4-0.3-5.7l4.6-4.6C102.3,86.2,102.4,86.2,102.6,86.2z M99.8,77.9c1.4,1.4,1.5,3.7,0.2,5.2
	c-0.1,0.1-0.1,0.1-0.2,0.2l-5.3,5.3c-1.5,0.5-3.3,0.2-4.4-1c-0.1-0.1-0.1-0.2-0.2-0.2c-1.5-1.6-1.6-4-0.3-5.7c0.7-0.6,3.8-3,5.5-4.4
	C96.6,76.4,98.5,76.6,99.8,77.9z M93.3,67.2c0.9,0.9,1.4,2.1,1.4,3.3c-0.1,1.5-0.9,2.9-2,3.9c-1.1,1-3.6,2.9-5.4,4.3
	c-1.5,0.4-3.2,0-4.3-1.1l-0.1-0.1c-1.7-1.8-1.7-4.6,0-6.4l4.3-4.3C89.1,65.4,91.7,65.6,93.3,67.2z M70.3,114.8
	c-4.8-0.4-9.4-2-13.4-4.6h0.9h0.8c4.6-0.3,8.9-3.1,12.6-8.4c0.6-0.9,0.3-2-0.5-2.6c-0.8-0.5-1.9-0.4-2.5,0.4
	c-3.1,4.3-6.4,6.6-9.8,6.8c-4.8,0.3-8.5-3.5-8.5-3.6c-0.1-0.1-0.2-0.2-0.3-0.2c-2.9-4.6-4.9-10.8-4.8-19.5c0-4.9-0.4-9.3-6.4-17.9
	c-1.4-2-1.8-4.8,0.5-6.6c1.8-1.4,3.6-1.3,5.5,0.2c2.4,2.1,4.3,4.5,5.8,7.3c0.9,1.6,1.9,3.1,3.2,4.4c0,0.1,0.1,0.1,0.1,0.2
	c0.2,0.2,3.7,4,0.1,9.7c-0.5,0.9-0.3,2,0.6,2.6c0.3,0.2,0.6,0.3,1,0.3c0.6,0,1.2-0.3,1.6-0.9c2.1-3,2.7-6.7,1.7-10.2
	c0.9-0.1,1.8-0.4,2.7-0.8c7.3-3,24.4-20.7,31.4-28.2c0.9-0.9,2.1-1.5,3.3-1.5c2.6-0.1,4.7,2,4.8,4.6c0,1.3-0.5,2.5-1.4,3.4
	L80.2,68.5c-3.2,3.2-3.2,8.4,0,11.6c0,0,0,0,0,0l0.1,0.1c1.3,1.3,2.9,2.1,4.7,2.3c-0.7,2.7,0.1,5.6,2.1,7.6c0,0,0.1,0,0.1,0.1
	l0.1,0.1c1.5,1.5,3.6,2.3,5.7,2.3c-0.2,2.4,0.6,4.8,2.3,6.4l0.2,0.2c1.1,1.1,2.4,1.8,3.9,2.2l-2.8,3.1l-0.1,0.1
	c-5.9,6.3-14,10-22.6,10.3H71L70.3,114.8z"/>
</svg>
