<svg viewBox="0 0 150 150" xmlns="http://www.w3.org/2000/svg"><circle cx="1.79" cy="135.71" fill="#334355" r="1.79"/><path d="m9.82 133.93h-2.68a1.79 1.79 0 0 0 0 3.57h2.68a1.79 1.79 0 1 0 0-3.57z" fill="#334355"/><path d="m142.86 133.93h-2.68a1.79 1.79 0 1 0 0 3.57h2.68a1.79 1.79 0 0 0 0-3.57z" fill="#334355"/><circle cx="148.21" cy="135.71" fill="#334355" r="1.79"/><path d="m105.49 141.07h-7.41a1.79 1.79 0 0 0 0 3.57h7.41a1.79 1.79 0 0 0 0-3.57z" fill="#68bbab"/><path d="m51.92 141.07h-7.41a1.79 1.79 0 0 0 0 3.57h7.41a1.79 1.79 0 0 0 0-3.57z" fill="#68bbab"/><path d="m92.86 141.07h-35.72a1.79 1.79 0 0 0 0 3.57h14.24v1.79h-7.09a1.79 1.79 0 1 0 0 3.57h22.32a1.79 1.79 0 0 0 0-3.57h-8v-1.79h14.25a1.79 1.79 0 0 0 0-3.57z" fill="#68bbab"/><path d="m134.57 133.93h-29a8.35 8.35 0 0 0 1.54-4.84v-97.47a8.42 8.42 0 0 0 -8.41-8.41h-47.43a8.42 8.42 0 0 0 -8.41 8.41v97.47a8.35 8.35 0 0 0 1.54 4.84h-29a1.8 1.8 0 1 0 0 3.57h119.17a1.8 1.8 0 1 0 0-3.57zm-83.3-107.14h47.46a4.84 4.84 0 0 1 4.67 3.57h-56.8a4.84 4.84 0 0 1 4.67-3.57zm-4.84 7.14h57.14v92.86h-57.14zm4.84 100a4.85 4.85 0 0 1 -4.67-3.57h56.8a4.85 4.85 0 0 1 -4.67 3.57z" fill="#334355"/><circle cx="104.95" cy="31.18" fill="#fff" r="20.38"/><path d="m105 53.47a22.3 22.3 0 1 1 22.29-22.29 22.32 22.32 0 0 1 -22.29 22.29zm0-40.76a18.47 18.47 0 1 0 18.47 18.47 18.49 18.49 0 0 0 -18.47-18.47z" fill="#334355"/><g fill="#68bbab"><path d="m101.8 42.29a2.58 2.58 0 0 1 -1.81-.79l-7.68-8a2.58 2.58 0 1 1 3.69-3.56l5.89 6.1 11.78-11.37a2.59 2.59 0 0 1 3.6 3.73l-13.67 13.16a2.59 2.59 0 0 1 -1.8.73z"/><path d="m64.88 76h4.4v-13.21h-13.21v13.21zm-4.4-8.81h4.4v4.41h-4.4z"/><path d="m86.9 80.41h-8.81v-17.62h-4.4v17.62h-17.62v4.4h30.83z"/><path d="m91.31 80.41h4.4v4.4h-4.4z"/><path d="m73.69 93.62v3.83.58 3.83h4.4v-3.83-.58-3.83-4.4h-4.4z"/><path d="m60.48 89.22h-4.41v13.21h13.21v-13.21zm4.4 8.78h-4.4v-4.38h4.4z"/><path d="m86.9 89.22h-4.4v13.21h13.21v-13.21zm4.41 8.78h-4.41v-4.38h4.41z"/><path d="m91.31 62.79h-8.81v13.21h13.21v-13.21zm0 8.81h-4.41v-4.41h4.41z"/></g></svg>