<svg viewBox="0 0 150 150" xmlns="http://www.w3.org/2000/svg"><path d="m148.88 21.61a6.56 6.56 0 0 0 -5.48-2.28c-7.27 0-22.17 7.22-42 20.35l-73.86-25.81a3.06 3.06 0 0 0 -3.69 1.42l-7.06 12.78a3.08 3.08 0 0 0 1 4.07l9.86 6.26a8.71 8.71 0 0 0 3.84 8.29 8.81 8.81 0 0 0 9.3.06l9.91 6.25a8.62 8.62 0 0 0 3.79 8.63 8.86 8.86 0 0 0 9.59-.13l4 2.57c-14.08 11.36-24.49 21.03-30.82 28.79l-28.89-11a3.08 3.08 0 0 0 -3.68 1.22l-4.22 6.61a3.08 3.08 0 0 0 1 4.23l28.63 18.22a8.38 8.38 0 0 0 1.19 2.08 8.57 8.57 0 0 0 1.69 1.6l11 32.1a3 3 0 0 0 1.54 1.76 3.09 3.09 0 0 0 2.35.16l7.43-2.54a3.08 3.08 0 0 0 2-3.29l-3.9-30.57c9-4.32 20.85-12.14 35.26-23.28l.58 1.72a8.57 8.57 0 0 0 -2.43 9.36 8.71 8.71 0 0 0 7.58 5.7l3.76 11a8.61 8.61 0 0 0 5.06 14.8l4.71 13.79a3.07 3.07 0 0 0 3.72 2l14.07-3.86a3.07 3.07 0 0 0 2.25-3.26l-7.76-77.9c23.63-21.96 33.29-36.06 28.68-41.9zm-27.28 117.81-8.81 2.41-4.52-13.24a3.07 3.07 0 0 0 -3.6-2 2.52 2.52 0 0 1 -2.91-1.57 2.48 2.48 0 0 1 1.32-3.1 3.05 3.05 0 0 0 1.62-3.77l-5.28-15.47a3.1 3.1 0 0 0 -3.77-2 2.55 2.55 0 0 1 -3.06-1.54 2.5 2.5 0 0 1 1.46-3.14 3.06 3.06 0 0 0 1.78-3.85l-2.76-8.05a3.1 3.1 0 0 0 -2.15-1.87 3.29 3.29 0 0 0 -2.86.62c-16.59 13.06-29.78 21.78-39.22 25.94a3.08 3.08 0 0 0 -1.84 3.21l3.89 30.33-2.16.73-10.31-30.27a3.08 3.08 0 0 0 -1.52-1.79 2.06 2.06 0 0 1 -.79-.62 2.27 2.27 0 0 1 -.43-.94 3.06 3.06 0 0 0 -1.35-1.91l-27.03-17.14 1.22-1.93 28.66 10.93a3.08 3.08 0 0 0 3.53-1c6.26-8.2 17.9-19 34.61-32.19a3 3 0 0 0 1.15-2.55 3.06 3.06 0 0 0 -1.42-2.43l-9.69-6.16a3.08 3.08 0 0 0 -4.14.8 2.56 2.56 0 0 1 -3.38.65 2.5 2.5 0 0 1 -.84-3.31 3.07 3.07 0 0 0 -1-4.08l-13.8-8.77a3.08 3.08 0 0 0 -4 .66 2.55 2.55 0 0 1 -3.29.54 2.49 2.49 0 0 1 -.91-3.18 3.08 3.08 0 0 0 -1.11-3.93l-9.35-5.93 4.41-8 72.89 25.49a3.12 3.12 0 0 0 2.72-.35c18.32-12.24 33.95-20.15 39.84-20.15a3.21 3.21 0 0 1 .64.05c0 1.88-4.78 12.07-29.12 34.52a3.11 3.11 0 0 0 -1 2.56z" fill="#51b6a9"/></svg>